<svg width="18" height="18" viewBox="0 0 18 18" fill="none" xmlns="http://www.w3.org/2000/svg">
<mask id="mask0_1546_4580" style="mask-type:alpha" maskUnits="userSpaceOnUse" x="3" y="3" width="12" height="12">
<path d="M3.90625 9.75003H12.2838L8.62375 13.41C8.33125 13.7025 8.33125 14.1825 8.62375 14.475C8.91625 14.7675 9.38875 14.7675 9.68125 14.475L14.6237 9.53253C14.9163 9.24003 14.9163 8.76753 14.6237 8.47503L9.68875 3.52503C9.54863 3.38459 9.35839 3.30566 9.16 3.30566C8.96161 3.30566 8.77137 3.38459 8.63125 3.52503C8.33875 3.81753 8.33875 4.29003 8.63125 4.58253L12.2838 8.25003H3.90625C3.49375 8.25003 3.15625 8.58753 3.15625 9.00003C3.15625 9.41253 3.49375 9.75003 3.90625 9.75003Z" fill="black"/>
</mask>
<g mask="url(#mask0_1546_4580)">
<rect width="18" height="18" fill="#F7FBFE"/>
</g>
</svg>
