<svg width="24" height="24" viewBox="0 0 24 24" fill="none" xmlns="http://www.w3.org/2000/svg">
<path fill-rule="evenodd" clip-rule="evenodd" d="M6.48496 17.5153C3.43887 14.4692 3.43887 9.53056 6.48496 6.48447C9.53105 3.43838 14.4697 3.43838 17.5158 6.48447C19.039 8.00769 19.8004 10.0023 19.8004 11.9999C19.8004 12.8283 19.1285 13.4999 18.3001 13.4999C17.4717 13.4999 16.8001 12.8283 16.8001 11.9999C16.8001 9.34894 14.6511 7.1999 12.0001 7.1999C9.34915 7.1999 7.20011 9.34894 7.20011 11.9999C7.20011 14.6509 9.34915 16.7999 12.0001 16.7999C13.7465 16.7999 15.2751 15.8672 16.1149 14.4728C16.697 14.9875 17.4621 15.2999 18.3001 15.2999C20.1138 15.2999 21.5858 13.8367 21.6 12.0263C21.6003 12.0176 21.6004 12.0087 21.6004 11.9999C21.6004 9.54444 20.663 7.08602 18.7886 5.21168C15.0396 1.46264 8.9612 1.46264 5.21217 5.21168C1.46313 8.96071 1.46313 15.0391 5.21217 18.7881C8.9612 22.5372 15.0396 22.5372 18.7886 18.7881C19.1401 18.4367 19.1401 17.8668 18.7886 17.5153C18.4371 17.1639 17.8673 17.1639 17.5158 17.5153C14.4697 20.5614 9.53105 20.5614 6.48496 17.5153ZM12.0001 8.9999C10.3433 8.9999 9.00011 10.343 9.00011 11.9999C9.00011 13.6568 10.3433 14.9999 12.0001 14.9999C13.657 14.9999 15.0001 13.6568 15.0001 11.9999C15.0001 10.343 13.657 8.9999 12.0001 8.9999Z" fill="#9E9E9E"/>
</svg>
