<svg width="36" height="36" viewBox="0 0 36 36" fill="none" xmlns="http://www.w3.org/2000/svg">
<path d="M20.1172 17.3828C21.1224 17.6172 21.8281 17.901 22.2344 18.2344C22.8177 18.7083 23.1094 19.3229 23.1094 20.0781C23.1094 20.875 22.7891 21.5339 22.1484 22.0547C21.362 22.6849 20.2188 23 18.7188 23H13.3359V22.7109C13.8255 22.7109 14.1562 22.6667 14.3281 22.5781C14.5052 22.4844 14.6276 22.3646 14.6953 22.2188C14.7682 22.0729 14.8047 21.7135 14.8047 21.1406V14.2656C14.8047 13.6927 14.7682 13.3333 14.6953 13.1875C14.6276 13.0365 14.5052 12.9167 14.3281 12.8281C14.151 12.7396 13.8203 12.6953 13.3359 12.6953V12.4062H18.4141C19.6276 12.4062 20.487 12.5156 20.9922 12.7344C21.4974 12.9479 21.8958 13.2708 22.1875 13.7031C22.4792 14.1302 22.625 14.5859 22.625 15.0703C22.625 15.5807 22.4401 16.0365 22.0703 16.4375C21.7005 16.8333 21.0495 17.1484 20.1172 17.3828ZM17.2734 17.1719C18.013 17.1719 18.5573 17.0885 18.9062 16.9219C19.2604 16.7552 19.5312 16.5208 19.7188 16.2188C19.9062 15.9167 20 15.5312 20 15.0625C20 14.5938 19.9062 14.2109 19.7188 13.9141C19.5365 13.612 19.2734 13.3828 18.9297 13.2266C18.5859 13.0703 18.0339 12.9948 17.2734 13V17.1719ZM17.2734 17.7812V21.1797L17.2656 21.5703C17.2656 21.8516 17.3359 22.0651 17.4766 22.2109C17.6224 22.3516 17.8359 22.4219 18.1172 22.4219C18.5339 22.4219 18.9167 22.3307 19.2656 22.1484C19.6198 21.9609 19.8906 21.6927 20.0781 21.3438C20.2656 20.9896 20.3594 20.5964 20.3594 20.1641C20.3594 19.6693 20.2448 19.2266 20.0156 18.8359C19.7865 18.4401 19.4714 18.1641 19.0703 18.0078C18.6693 17.8516 18.0703 17.776 17.2734 17.7812Z" fill="#757575"/>
</svg>
