<svg width="208" height="206" viewBox="0 0 208 206" fill="none" xmlns="http://www.w3.org/2000/svg">
<g filter="url(#filter0_d_986_15928)">
<path d="M192.441 90.0415C190.577 73.3409 184.048 57.5827 173.55 44.4311V30.2564H159.375C146.219 19.7537 130.461 13.2289 113.765 11.361L103.742 1.34229L93.7232 11.361C77.0226 13.2246 61.2644 19.7537 48.1127 30.2564H33.938V44.4311C23.4354 57.587 16.9105 73.3452 15.0426 90.0415L5.02393 100.06L15.0426 110.083C16.9062 126.78 23.4354 142.542 33.938 155.694V169.868H48.1127C61.2686 180.367 77.0268 186.896 93.7232 188.759L103.742 198.782L113.765 188.759C130.465 186.896 146.224 180.367 159.375 169.868H173.55V155.694C184.048 142.538 190.577 126.78 192.441 110.083L202.464 100.06L192.441 90.0415ZM190.2 109.277L190.17 109.552C188.383 126.007 181.951 141.536 171.567 154.462L171.393 154.679V167.712H158.361L158.144 167.886C145.217 178.27 129.689 184.705 113.234 186.488L112.958 186.518L103.742 195.734L94.5255 186.518L94.2496 186.488C77.7952 184.701 62.262 178.27 49.3396 167.886L49.1231 167.712H36.0903V154.679L35.9163 154.462C25.5325 141.536 19.0968 126.007 17.3138 109.552L17.2841 109.277L8.06774 100.06L17.2841 90.8439L17.3138 90.5679C19.101 74.1135 25.5325 58.5846 35.9163 45.658L36.0903 45.4414V32.4087H49.1231L49.3396 32.2346C62.2662 21.8509 77.7952 15.4151 94.2496 13.6321L94.5255 13.6024L103.742 4.38609L112.958 13.6024L113.234 13.6321C129.689 15.4194 145.217 21.8509 158.144 32.2346L158.361 32.4087H171.393V45.4414L171.567 45.658C181.951 58.5846 188.387 74.1135 190.17 90.5722L190.2 90.8481L199.416 100.064L190.2 109.277Z" fill="#E4E4E4"/>
</g>
<defs>
<filter id="filter0_d_986_15928" x="0.0239258" y="-1.65771" width="207.44" height="207.44" filterUnits="userSpaceOnUse" color-interpolation-filters="sRGB">
<feFlood flood-opacity="0" result="BackgroundImageFix"/>
<feColorMatrix in="SourceAlpha" type="matrix" values="0 0 0 0 0 0 0 0 0 0 0 0 0 0 0 0 0 0 127 0" result="hardAlpha"/>
<feOffset dy="2"/>
<feGaussianBlur stdDeviation="2.5"/>
<feComposite in2="hardAlpha" operator="out"/>
<feColorMatrix type="matrix" values="0 0 0 0 0 0 0 0 0 0 0 0 0 0 0 0 0 0 0.1 0"/>
<feBlend mode="normal" in2="BackgroundImageFix" result="effect1_dropShadow_986_15928"/>
<feBlend mode="normal" in="SourceGraphic" in2="effect1_dropShadow_986_15928" result="shape"/>
</filter>
</defs>
</svg>
