<svg xmlns="http://www.w3.org/2000/svg" viewBox="0 0 197.44 197.44"><title>Asset 1</title><g id="Layer_2" data-name="Layer 2"><g id="Layer_1-2" data-name="Layer 1"><path d="M187.42,88.7a88.89,88.89,0,0,0-18.89-45.61V28.91H154.35A88.81,88.81,0,0,0,108.74,10l-10-10-10,10A88.72,88.72,0,0,0,43.09,28.91H28.91V43.09A88.81,88.81,0,0,0,10,88.7l-10,10,10,10a88.72,88.72,0,0,0,18.89,45.61v14.18H43.09A88.89,88.89,0,0,0,88.7,187.42l10,10,10-10a88.89,88.89,0,0,0,45.61-18.89h14.18V154.35a88.89,88.89,0,0,0,18.89-45.61l10-10Zm-2.24,19.23,0,.28a86.52,86.52,0,0,1-18.61,44.91l-.17.22v13h-13l-.22.17a86.48,86.48,0,0,1-44.91,18.61l-.28,0-9.21,9.21-9.22-9.21-.27,0a86.45,86.45,0,0,1-44.91-18.61l-.22-.17h-13v-13l-.18-.22a86.5,86.5,0,0,1-18.6-44.91l0-.28L3,98.72l9.22-9.22,0-.27a86.52,86.52,0,0,1,18.6-44.91l.18-.22v-13h13l.22-.18a86.43,86.43,0,0,1,44.91-18.6l.27,0L98.72,3l9.21,9.22.28,0a86.55,86.55,0,0,1,44.91,18.6l.22.18h13v13l.17.22a86.45,86.45,0,0,1,18.61,44.91l0,.28,9.21,9.21Z"/></g></g></svg>