<svg width="24" height="24" viewBox="0 0 24 24" fill="none" xmlns="http://www.w3.org/2000/svg">
<rect x="0.5" y="0.5" width="23" height="23" rx="3.5" fill="#005183"/>
<path d="M10.2568 19.3364C9.8999 19.3364 9.64258 19.1787 9.39355 18.855L5.08545 13.3682C4.92773 13.1689 4.84473 12.9531 4.84473 12.7622C4.84473 12.3057 5.16846 11.9819 5.6416 11.9819C5.94043 11.9819 6.14795 12.0981 6.35547 12.3887L10.2236 17.4521L17.6777 5.57373C17.877 5.2583 18.0596 5.15039 18.3916 5.15039C18.8481 5.15039 19.147 5.44922 19.147 5.90576C19.147 6.09668 19.0889 6.2793 18.9395 6.52002L11.0952 18.8716C10.896 19.1787 10.6138 19.3364 10.2568 19.3364Z" fill="#F7FBFE"/>
<rect x="0.5" y="0.5" width="23" height="23" rx="3.5" stroke="#005183"/>
</svg>
