<svg width="18" height="18" viewBox="0 0 18 18" fill="none" xmlns="http://www.w3.org/2000/svg">
<path d="M9 7.3125V12.375M9 12.375L6.75 10.125M9 12.375L11.25 10.125M5.0625 14.625C3.19854 14.625 1.6875 13.114 1.6875 11.25C1.6875 9.75529 2.65916 8.48752 4.0053 8.04389C3.96078 7.8069 3.9375 7.56242 3.9375 7.3125C3.9375 5.13788 5.70038 3.375 7.875 3.375C9.69842 3.375 11.2324 4.61445 11.6803 6.29681C11.8991 6.22585 12.1325 6.1875 12.375 6.1875C13.6176 6.1875 14.625 7.19486 14.625 8.4375C14.625 8.69861 14.5805 8.94932 14.4987 9.18249C15.559 9.58534 16.3125 10.6109 16.3125 11.8125C16.3125 13.3658 15.0533 14.625 13.5 14.625H5.0625Z" stroke="#F7FBFE" stroke-width="1.5" stroke-linecap="round" stroke-linejoin="round"/>
</svg>
