<svg width="40" height="40" viewBox="0 0 40 40" fill="none" xmlns="http://www.w3.org/2000/svg">
<path d="M20 27.5L20 16.25M20 16.25L25 21.25M20 16.25L15 21.25M11.25 32.5C7.10786 32.5 3.75 29.1421 3.75 25C3.75 21.6784 5.90925 18.8612 8.90067 17.8753C8.80174 17.3487 8.75 16.8054 8.75 16.25C8.75 11.4175 12.6675 7.5 17.5 7.5C21.552 7.5 24.9608 10.2543 25.9561 13.9929C26.4423 13.8352 26.9612 13.75 27.5 13.75C30.2614 13.75 32.5 15.9886 32.5 18.75C32.5 19.3302 32.4012 19.8874 32.2194 20.4055C34.5756 21.3008 36.25 23.5798 36.25 26.25C36.25 29.7018 33.4518 32.5 30 32.5H11.25Z" stroke="#424242" stroke-width="1.5" stroke-linecap="round" stroke-linejoin="round"/>
</svg>
