<svg width="48" height="48" viewBox="0 0 48 48" fill="none" xmlns="http://www.w3.org/2000/svg">
<path d="M31.5 34.5V41.25C31.5 42.4926 30.4926 43.5 29.25 43.5H9.75C8.50736 43.5 7.5 42.4926 7.5 41.25V15.75C7.5 14.5074 8.50736 13.5 9.75 13.5H13.5C14.5221 13.5 15.5244 13.5852 16.5 13.7489M31.5 34.5H38.25C39.4926 34.5 40.5 33.4926 40.5 32.25V22.5C40.5 13.581 34.0131 6.17711 25.5 4.74888C24.5244 4.5852 23.5221 4.5 22.5 4.5H18.75C17.5074 4.5 16.5 5.50736 16.5 6.75V13.7489M31.5 34.5H18.75C17.5074 34.5 16.5 33.4926 16.5 32.25V13.7489M40.5 27V23.25C40.5 19.5221 37.4779 16.5 33.75 16.5H30.75C29.5074 16.5 28.5 15.4926 28.5 14.25V11.25C28.5 7.52208 25.4779 4.5 21.75 4.5H19.5" stroke="#A18131" stroke-width="1.5" stroke-linecap="round" stroke-linejoin="round"/>
</svg>
