<svg width="30" height="30" viewBox="0 0 30 30" fill="none" xmlns="http://www.w3.org/2000/svg">
<path d="M15 0C12.0333 0 9.13319 0.879735 6.66645 2.52796C4.19972 4.17618 2.27713 6.51886 1.14181 9.25975C0.00649929 12.0006 -0.290551 15.0166 0.288228 17.9264C0.867006 20.8361 2.29562 23.5088 4.3934 25.6066C6.49119 27.7044 9.16394 29.133 12.0737 29.7118C14.9834 30.2906 17.9994 29.9935 20.7403 28.8582C23.4811 27.7229 25.8238 25.8003 27.472 23.3336C29.1203 20.8668 30 17.9667 30 15C30 11.0218 28.4197 7.20644 25.6066 4.3934C22.7936 1.58035 18.9783 0 15 0ZM19.9206 24.6625H10.0794C9.74786 24.6625 9.42992 24.5308 9.1955 24.2964C8.96108 24.062 8.82938 23.744 8.82938 23.4125C8.82938 23.081 8.96108 22.763 9.1955 22.5286C9.42992 22.2942 9.74786 22.1625 10.0794 22.1625H19.9206C20.2522 22.1625 20.5701 22.2942 20.8045 22.5286C21.0389 22.763 21.1706 23.081 21.1706 23.4125C21.1706 23.744 21.0389 24.062 20.8045 24.2964C20.5701 24.5308 20.2522 24.6625 19.9206 24.6625ZM20.8044 15.26L15.88 20.1875C15.6456 20.4218 15.3277 20.5535 14.9963 20.5535C14.6648 20.5535 14.3469 20.4218 14.1125 20.1875L9.19563 15.2713C8.96075 15.0369 8.8286 14.7188 8.82824 14.387C8.82789 14.0551 8.95937 13.7368 9.19376 13.5019C9.42814 13.267 9.74623 13.1348 10.0781 13.1345C10.4099 13.1341 10.7283 13.2656 10.9631 13.5L13.75 16.2869V5.22813C13.75 4.8966 13.8817 4.57866 14.1161 4.34424C14.3505 4.10982 14.6685 3.97813 15 3.97813C15.3315 3.97813 15.6495 4.10982 15.8839 4.34424C16.1183 4.57866 16.25 4.8966 16.25 5.22813V16.2794L19.0369 13.4925C19.2726 13.2648 19.5884 13.1388 19.9161 13.1417C20.2439 13.1445 20.5574 13.276 20.7892 13.5077C21.0209 13.7395 21.1524 14.053 21.1552 14.3807C21.1581 14.7085 21.0321 15.0242 20.8044 15.26Z" fill="#005183"/>
</svg>
