<svg width="20" height="20" viewBox="0 0 20 20" fill="none" xmlns="http://www.w3.org/2000/svg">
<path fill-rule="evenodd" clip-rule="evenodd" d="M4.48301 15.5155C1.43692 12.4694 1.43692 7.53068 4.48301 4.48459C7.52909 1.4385 12.4678 1.4385 15.5139 4.48459C17.0371 6.00781 17.7984 8.00244 17.7984 10C17.7984 10.8285 17.1266 11.5 16.2982 11.5C15.4697 11.5 14.7982 10.8285 14.7982 10C14.7982 7.34906 12.6491 5.20002 9.99816 5.20002C7.34719 5.20002 5.19816 7.34906 5.19816 10C5.19816 12.651 7.34719 14.8 9.99816 14.8C11.7446 14.8 13.2732 13.8673 14.113 12.4729C14.695 12.9876 15.4601 13.3 16.2982 13.3C18.1119 13.3 19.5839 11.8368 19.5981 10.0265C19.5983 10.0177 19.5984 10.0089 19.5984 10C19.5984 7.54456 18.661 5.08614 16.7867 3.2118C13.0376 -0.537234 6.95925 -0.537234 3.21021 3.2118C-0.538821 6.96083 -0.538821 13.0392 3.21021 16.7882C6.95925 20.5373 13.0376 20.5373 16.7867 16.7882C17.1381 16.4368 17.1381 15.8669 16.7867 15.5155C16.4352 15.164 15.8653 15.164 15.5139 15.5155C12.4678 18.5615 7.52909 18.5615 4.48301 15.5155ZM9.99816 7.00002C8.34131 7.00002 6.99816 8.34317 6.99816 10C6.99816 11.6569 8.34131 13 9.99816 13C11.655 13 12.9982 11.6569 12.9982 10C12.9982 8.34317 11.655 7.00002 9.99816 7.00002Z" fill="#9E9E9E"/>
</svg>
