<svg width="78" height="66" viewBox="0 0 78 66" fill="none" xmlns="http://www.w3.org/2000/svg">
<path d="M66.5 66C72.5751 66 77.5 61.0751 77.5 55V38.5C77.5 32.4249 72.5751 27.5 66.5 27.5H11.5C5.42487 27.5 0.5 32.4249 0.5 38.5V55C0.5 61.0751 5.42487 66 11.5 66H66.5Z" fill="#B3CBDA"/>
<path d="M0.5 26.2014V11C0.5 4.92487 5.42487 0 11.5 0H31.2218C33.4099 0 35.5083 0.869194 37.0555 2.41637L44.8336 10.1945C45.3494 10.7103 46.0488 11 46.7782 11H66.5C72.5751 11 77.5 15.9249 77.5 22V26.2014C74.5808 23.5887 70.726 22 66.5 22H11.5C7.27405 22 3.41916 23.5887 0.5 26.2014Z" fill="#B3CBDA"/>
</svg>
