<svg width="30" height="30" viewBox="0 0 30 30" fill="none" xmlns="http://www.w3.org/2000/svg">
<g clip-path="url(#clip0_46_4053)">
<path d="M30 1.875V11.6883C30 12.1856 29.8025 12.6625 29.4508 13.0141C29.0992 13.3657 28.6223 13.5633 28.125 13.5633C27.6277 13.5633 27.1508 13.3657 26.7992 13.0141C26.4475 12.6625 26.25 12.1856 26.25 11.6883V6.40166L19.2695 13.3822C18.9174 13.7316 18.4412 13.9272 17.9452 13.9263C17.4491 13.9253 16.9737 13.7279 16.6229 13.3771C16.2722 13.0264 16.0747 12.5509 16.0738 12.0549C16.0728 11.5589 16.2684 11.0827 16.6178 10.7306L23.5984 3.75H18.3117C17.8144 3.75 17.3375 3.55246 16.9859 3.20083C16.6343 2.84919 16.4367 2.37228 16.4367 1.875C16.4367 1.37772 16.6343 0.900806 16.9859 0.549175C17.3375 0.197544 17.8144 0 18.3117 0L28.125 0C28.6223 0 29.0992 0.197544 29.4508 0.549175C29.8025 0.900806 30 1.37772 30 1.875ZM0 28.125C0 28.6223 0.197544 29.0992 0.549175 29.4508C0.900806 29.8025 1.37772 30 1.875 30H11.6883C12.1856 30 12.6625 29.8025 13.0141 29.4508C13.3657 29.0992 13.5633 28.6223 13.5633 28.125C13.5633 27.6277 13.3657 27.1508 13.0141 26.7992C12.6625 26.4475 12.1856 26.25 11.6883 26.25H6.40172L13.3822 19.2695C13.7338 18.9179 13.9313 18.4409 13.9313 17.9437C13.9313 17.4464 13.7338 16.9695 13.3822 16.6178C13.0305 16.2662 12.5536 16.0687 12.0563 16.0687C11.5591 16.0687 11.0821 16.2662 10.7305 16.6178L3.75 23.5984V18.3118C3.75 17.8145 3.55246 17.3376 3.20083 16.986C2.84919 16.6343 2.37228 16.4368 1.875 16.4368C1.37772 16.4368 0.900806 16.6343 0.549175 16.986C0.197544 17.3376 0 17.8145 0 18.3118L0 28.125Z" fill="#005183"/>
</g>
<defs>
<clipPath id="clip0_46_4053">
<rect width="30" height="30" fill="white"/>
</clipPath>
</defs>
</svg>
