<svg width="64" height="64" viewBox="0 0 64 64" fill="none" xmlns="http://www.w3.org/2000/svg">
<path d="M14.1211 36.0031V36.2531H14.3711H15.8592H16.1092V36.0031C16.1092 31.1895 20.0261 27.273 24.8398 27.273C29.6534 27.273 33.5703 31.1895 33.5703 36.0031V36.2531H33.8203H35.3084H35.5584V36.0031C35.5584 30.0928 30.7502 25.2849 24.8398 25.2849C18.9294 25.2849 14.1211 30.0928 14.1211 36.0031Z" fill="#E6F1F9" stroke="#E6F1F9" stroke-width="0.5"/>
<path d="M24.8391 24.0162C27.9645 24.0162 30.5067 21.4735 30.5067 18.3485C30.5067 15.2235 27.9645 12.6808 24.8391 12.6808C21.7141 12.6808 19.1719 15.2235 19.1719 18.3485C19.1719 21.4735 21.7141 24.0162 24.8391 24.0162ZM24.8391 14.6689C26.8678 14.6689 28.5186 16.3202 28.5186 18.3485C28.5186 20.3767 26.8678 22.0281 24.8391 22.0281C22.8109 22.0281 21.16 20.3768 21.16 18.3485C21.16 16.3202 22.8108 14.6689 24.8391 14.6689Z" fill="#E6F1F9" stroke="#E6F1F9" stroke-width="0.5"/>
<path d="M24.8385 4.91144C13.8496 4.91144 4.91016 13.8504 4.91016 24.8394C4.91016 35.8274 13.8495 44.7674 24.8385 44.7683C35.8275 44.7683 44.767 35.8284 44.767 24.8394C44.767 13.8504 35.8275 4.91144 24.8385 4.91144ZM24.8386 42.7802C14.9462 42.7793 6.89828 34.7307 6.89828 24.8394C6.89828 14.9472 14.9462 6.89957 24.8385 6.89957C34.7308 6.89957 42.7789 14.9472 42.7789 24.8394C42.7789 34.7317 34.7308 42.7802 24.8386 42.7802Z" fill="#E6F1F9" stroke="#E6F1F9" stroke-width="0.5"/>
<path d="M50.4844 59.8259L50.4845 59.826C53.0662 62.4087 57.2456 62.4049 59.8246 59.826C62.3994 57.2506 62.3994 53.0608 59.8246 50.4855C59.8246 50.4855 59.8246 50.4855 59.8245 50.4854M50.4844 59.8259L44.206 39.558C50.4058 42.664 58.2479 48.5558 60.0013 50.3087L59.8245 50.4854M50.4844 59.8259C49.6243 58.9661 47.7237 56.5827 45.644 53.6286C43.6084 50.7372 41.4146 47.3179 39.8734 44.279C41.5207 43.0021 43.0013 41.5214 44.2781 39.8743M50.4844 59.8259L44.2781 39.8743M59.8245 50.4854C58.9643 49.6255 56.581 47.7249 53.6271 45.6451C50.7358 43.6095 47.3169 41.4155 44.2781 39.8743M59.8245 50.4854L44.2781 39.8743M45.4455 38.2375C48.4333 39.7794 51.8021 41.9273 54.6971 43.9563C57.6691 46.0392 60.16 48.0094 61.2302 49.0797C61.2302 49.0797 61.2302 49.0797 61.2302 49.0797M45.4455 38.2375L61.0534 61.0549C64.3128 57.7956 64.3164 52.5184 61.0534 49.2565L61.2302 49.0797M45.4455 38.2375C47.9621 34.3804 49.428 29.7779 49.428 24.839C49.428 11.2807 38.3978 0.25 24.839 0.25C11.2807 0.25 0.250501 11.2807 0.25 24.839C0.25 38.3974 11.2802 49.428 24.839 49.428C29.7775 49.428 34.3795 47.9624 38.2362 45.4464C39.778 48.4341 41.9259 51.803 43.9548 54.6981C46.0378 57.6704 48.0082 60.1615 49.0787 61.2317C52.434 64.587 57.8711 64.5918 61.2302 61.2317M61.2302 49.0797C64.5909 52.4393 64.5871 57.8748 61.2302 61.2317M61.2302 49.0797L61.2302 61.2317M61.2302 61.2317C61.2302 61.2317 61.2302 61.2317 61.2302 61.2317M61.2302 61.2317L61.2302 61.2317" fill="#E6F1F9" stroke="#E6F1F9" stroke-width="0.5"/>
</svg>
