<svg width="52" height="64" viewBox="0 0 52 64" fill="none" xmlns="http://www.w3.org/2000/svg">
<mask id="path-1-outside-1_681_15562" maskUnits="userSpaceOnUse" x="-0.474609" y="-0.5" width="53" height="65" fill="black">
<rect fill="white" x="-0.474609" y="-0.5" width="53" height="65"/>
<path fill-rule="evenodd" clip-rule="evenodd" d="M29.1529 52.055V46.245H32.3953C32.5277 46.2452 32.6577 46.2097 32.7717 46.1424C32.8856 46.0751 32.9794 45.9783 33.0431 45.8623C33.1068 45.7462 33.1381 45.6152 33.1338 45.4829C33.1294 45.3506 33.0895 45.2219 33.0183 45.1103L26.6245 35.0674C26.5585 34.9621 26.4669 34.8753 26.3582 34.8151C26.2494 34.7549 26.1272 34.7234 26.0029 34.7234C25.8787 34.7234 25.7564 34.7549 25.6477 34.8151C25.539 34.8753 25.4473 34.9621 25.3813 35.0674L18.9847 45.1138C18.9143 45.2255 18.875 45.3541 18.871 45.4861C18.8669 45.6182 18.8984 45.7489 18.9619 45.8647C19.0255 45.9805 19.1189 46.0771 19.2325 46.1446C19.3461 46.2121 19.4756 46.248 19.6077 46.2485H22.8529V52.0585C20.5378 51.3076 18.5665 49.7552 17.294 47.6805C16.0214 45.6058 15.5311 43.145 15.9111 40.741C16.2912 38.3369 17.5168 36.1474 19.3673 34.5665C21.2178 32.9856 23.5718 32.1169 26.0057 32.1169C28.4396 32.1169 30.7936 32.9856 32.6442 34.5665C34.4947 36.1474 35.7203 38.3369 36.1003 40.741C36.4804 43.145 35.9901 45.6058 34.7175 47.6805C33.4449 49.7552 31.4737 51.3076 29.1585 52.0585L29.1529 52.055ZM24.3229 52.4162C25.4323 52.6028 26.5651 52.6028 27.6745 52.4162V45.51C27.6745 45.413 27.6936 45.317 27.7308 45.2274C27.7679 45.1378 27.8223 45.0563 27.8908 44.9878C27.9594 44.9192 28.0408 44.8648 28.1304 44.8277C28.22 44.7906 28.3161 44.7715 28.413 44.7715H31.0492L26.0029 36.8384L20.9524 44.7722H23.5886C23.7844 44.7722 23.9721 44.8499 24.1106 44.9882C24.2491 45.1266 24.327 45.3142 24.3271 45.51V52.4155L24.3229 52.4162ZM26.0029 30.6462C23.6897 30.6453 21.4282 31.3306 19.5044 32.6153C17.5807 33.8999 16.0811 35.7262 15.1955 37.8633C14.3099 40.0003 14.078 42.3519 14.529 44.6208C14.9801 46.8896 16.094 48.9737 17.7297 50.6094C19.3654 52.2451 21.4495 53.359 23.7183 53.8101C25.9872 54.2612 28.3388 54.0292 30.4759 53.1436C32.6129 52.258 34.4392 50.7584 35.7239 48.8347C37.0085 46.9109 37.6938 44.6494 37.6929 42.3362C37.6881 39.2373 36.455 36.2667 34.2637 34.0754C32.0724 31.8842 29.1018 30.651 26.0029 30.6462ZM26.0029 13.3394C24.8794 13.3394 23.7812 13.0062 22.847 12.3821C21.9129 11.7579 21.1848 10.8707 20.7548 9.83273C20.3249 8.79475 20.2124 7.65259 20.4316 6.55068C20.6508 5.44878 21.1918 4.43661 21.9862 3.64218C22.7807 2.84775 23.7928 2.30673 24.8947 2.08755C25.9966 1.86837 27.1388 1.98086 28.1768 2.4108C29.2147 2.84074 30.1019 3.56883 30.7261 4.50298C31.3503 5.43713 31.6834 6.5354 31.6834 7.6589C31.681 9.16459 31.0817 10.6079 30.0169 11.6725C28.9521 12.737 27.5086 13.336 26.0029 13.338V13.3394ZM26.0029 0.5014C24.5873 0.501677 23.2036 0.921727 22.0267 1.70843C20.8498 2.49514 19.9326 3.61317 19.3911 4.92113C18.8497 6.2291 18.7082 7.66826 18.9846 9.05663C19.2611 10.445 19.943 11.7202 20.9442 12.721C21.9454 13.7218 23.2209 14.4032 24.6094 14.6791C25.9978 14.955 27.4369 14.813 28.7447 14.271C30.0524 13.729 31.1701 12.8114 31.9564 11.6342C32.7426 10.457 33.1621 9.07311 33.1618 7.6575C33.1596 5.75965 32.4046 3.94019 31.0625 2.59834C29.7204 1.25649 27.9008 0.501853 26.0029 0.5V0.5014ZM3.03456 3.1047C2.6664 3.22428 2.35918 3.48236 2.17786 3.82436C1.99655 4.16636 1.95534 4.56547 2.06296 4.9373L5.24026 16.1037L12.5903 21.4853C12.6837 21.5538 12.7597 21.6434 12.8121 21.7468C12.8645 21.8501 12.8919 21.9644 12.892 22.0803V25.5278L13.1657 25.2541C13.4566 24.9583 13.8415 24.7732 14.2541 24.7306C14.6667 24.6879 15.0814 24.7903 15.4266 25.0203L17.696 26.5092C18.6552 26.0049 19.6583 25.5888 20.6927 25.266L21.245 22.6102C21.3266 22.2037 21.547 21.8382 21.8684 21.5764C22.1899 21.3146 22.5924 21.1728 23.0069 21.1752H29.0087C29.4233 21.1726 29.8259 21.3144 30.1474 21.5763C30.4689 21.8381 30.6892 22.2036 30.7706 22.6102L31.3229 25.266C32.3576 25.5883 33.3607 26.0044 34.3196 26.5092L36.589 25.0203C36.9343 24.7903 37.3489 24.6879 37.7616 24.7306C38.1742 24.7732 38.5591 24.9583 38.85 25.2541L39.1237 25.5278V22.0803C39.1238 21.9644 39.1511 21.8501 39.2036 21.7468C39.256 21.6434 39.332 21.5538 39.4254 21.4853L46.7754 16.1037L49.9471 4.9373C50.0535 4.56493 50.0112 4.16583 49.8292 3.82402C49.6471 3.4822 49.3396 3.22434 48.9713 3.1047L48.7487 3.0347C48.3921 2.91585 48.0037 2.93641 47.6617 3.09224C47.3196 3.24808 47.0493 3.52763 46.9049 3.8747L42.9499 13.2932C42.8756 13.4716 42.7337 13.6133 42.5551 13.6873L32.0173 18.14C31.9267 18.1789 31.829 18.199 31.7303 18.1988H20.2762C20.1773 18.199 20.0794 18.179 19.9885 18.14L9.45075 13.6873C9.27278 13.6125 9.1311 13.471 9.05595 13.2932L5.10376 3.8747C4.9586 3.52763 4.68767 3.24823 4.34524 3.09246C4.0028 2.93669 3.61416 2.91606 3.25716 3.0347L3.03456 3.1047ZM42.0847 30.95C42.1285 30.8888 42.1484 30.8137 42.1405 30.7389C42.1327 30.664 42.0976 30.5947 42.042 30.544L37.7993 26.3013C37.7481 26.2466 37.6788 26.2122 37.6043 26.2044C37.5297 26.1965 37.4549 26.2158 37.3933 26.2586L34.7529 27.9862C34.64 28.0596 34.5092 28.101 34.3746 28.1059C34.24 28.1109 34.1065 28.0791 33.9885 28.0142C32.8802 27.3937 31.7032 26.9046 30.4815 26.5568C30.3517 26.5201 30.2344 26.4485 30.1424 26.3498C30.0505 26.251 29.9874 26.1289 29.96 25.9968L29.3174 22.9098C29.3048 22.8358 29.266 22.7688 29.208 22.7211C29.15 22.6734 29.0768 22.6482 29.0017 22.6501H23.002C22.9271 22.6486 22.8541 22.674 22.7962 22.7216C22.7383 22.7692 22.6994 22.836 22.6863 22.9098L22.0437 25.9968C22.0164 26.1289 21.9533 26.251 21.8614 26.3498C21.7694 26.4485 21.6521 26.5201 21.5222 26.5568C20.3004 26.904 19.1234 27.3932 18.0152 28.0142C17.8964 28.0797 17.762 28.1117 17.6264 28.1068C17.4907 28.1019 17.359 28.0602 17.2452 27.9862L14.6097 26.2551C14.5482 26.2124 14.4733 26.1933 14.3988 26.2011C14.3243 26.2089 14.2551 26.2432 14.2037 26.2978L9.96105 30.5405C9.9056 30.5913 9.87064 30.6606 9.86278 30.7354C9.85491 30.8102 9.87468 30.8853 9.91835 30.9465L11.653 33.5848C11.7279 33.6975 11.7702 33.8288 11.7751 33.9641C11.78 34.0994 11.7475 34.2334 11.681 34.3513C11.0619 35.46 10.5738 36.6369 10.2264 37.8583C10.1901 37.9883 10.1186 38.1059 10.0198 38.1979C9.921 38.2899 9.79868 38.3529 9.66635 38.3798L6.57656 39.0203C6.50295 39.0342 6.43674 39.074 6.38978 39.1323C6.34283 39.1907 6.31821 39.2639 6.32036 39.3388V45.3385C6.31827 45.4132 6.34293 45.4862 6.3899 45.5443C6.43687 45.6025 6.50307 45.6419 6.57656 45.6556L9.66635 46.2968C9.79858 46.3239 9.92079 46.3869 10.0196 46.4789C10.1184 46.5709 10.1899 46.6883 10.2264 46.8183C10.5749 48.0395 11.063 49.2165 11.681 50.326C11.7475 50.4437 11.7801 50.5776 11.7751 50.7128C11.7702 50.848 11.7279 50.9792 11.653 51.0918L9.92465 53.7301C9.88098 53.7913 9.86121 53.8664 9.86908 53.9412C9.87694 54.0159 9.9119 54.0853 9.96735 54.1361L14.21 58.3788C14.2614 58.4333 14.3308 58.4676 14.4053 58.4752C14.4799 58.4827 14.5547 58.4632 14.616 58.4201L17.2529 56.6904C17.3728 56.6119 17.5129 56.57 17.6561 56.57C17.7825 56.5699 17.9068 56.6019 18.0173 56.6631C19.1259 57.2824 20.3029 57.7705 21.5243 58.1177C21.654 58.1547 21.771 58.2265 21.8629 58.3252C21.9548 58.4238 22.0181 58.5457 22.0458 58.6777L22.6884 61.7661C22.7019 61.8394 22.7411 61.9056 22.799 61.9527C22.8568 61.9998 22.9296 62.0247 23.0041 62.023H29.0059C29.0808 62.0251 29.154 62.0001 29.2119 61.9527C29.2699 61.9052 29.3089 61.8385 29.3216 61.7647L29.9642 58.6777C29.9917 58.5456 30.0549 58.4236 30.1468 58.3248C30.2387 58.2261 30.356 58.1545 30.4857 58.1177C31.7074 57.7711 32.8844 57.2829 33.9927 56.6631C34.1113 56.5968 34.2458 56.5642 34.3815 56.569C34.5173 56.5739 34.6492 56.6158 34.7627 56.6904L37.3982 58.4201C37.4595 58.4632 37.5344 58.4827 37.6089 58.4752C37.6835 58.4676 37.7528 58.4333 37.8042 58.3788L42.0469 54.1361C42.1025 54.0854 42.1376 54.016 42.1454 53.9412C42.1533 53.8663 42.1334 53.7912 42.0896 53.7301L40.3613 51.0904C40.2864 50.978 40.2442 50.8471 40.2392 50.7121C40.2343 50.5772 40.2668 50.4435 40.3333 50.326C40.953 49.2173 41.4412 48.0401 41.7879 46.8183C41.8249 46.6886 41.8966 46.5714 41.9953 46.4795C42.094 46.3876 42.2159 46.3244 42.3479 46.2968L45.4349 45.6556C45.5084 45.6419 45.5746 45.6025 45.6216 45.5443C45.6686 45.4862 45.6932 45.4132 45.6911 45.3385V39.3388C45.6933 39.2639 45.6687 39.1907 45.6217 39.1323C45.5747 39.074 45.5085 39.0342 45.4349 39.0203L42.3479 38.3798C42.2158 38.3524 42.0938 38.2892 41.995 38.1973C41.8963 38.1054 41.8247 37.9881 41.7879 37.8583C41.441 36.6367 40.9528 35.4598 40.3333 34.3513C40.2668 34.2334 40.2342 34.0994 40.2392 33.9641C40.2441 33.8288 40.2864 33.6975 40.3613 33.5848L42.0847 30.95ZM3.88296 16.7519C3.92903 16.9097 4.02508 17.0482 4.15666 17.1467L11.4073 22.4548V27.0048L8.91525 29.4996C8.62036 29.7903 8.43593 30.1747 8.39365 30.5867C8.35137 30.9986 8.45387 31.4125 8.68355 31.7571L10.1753 34.03C9.6706 34.989 9.25447 35.9921 8.93206 37.0267L6.27206 37.5769C5.8658 37.6595 5.50086 37.8806 5.23961 38.2025C4.97837 38.5244 4.83707 38.927 4.83986 39.3416V45.3413C4.83689 45.7556 4.97817 46.1581 5.23948 46.4797C5.50079 46.8013 5.86585 47.022 6.27206 47.1039L8.93206 47.6555C9.25397 48.6905 9.67011 49.6938 10.1753 50.6529L8.68635 52.923C8.45659 53.268 8.35406 53.6823 8.39633 54.0947C8.43861 54.5071 8.62306 54.892 8.91805 55.1833L13.1608 59.426C13.4521 59.7211 13.837 59.9057 14.2495 59.9481C14.6621 59.9905 15.0765 59.8881 15.4217 59.6584L17.6911 58.1695C18.6503 58.6742 19.6533 59.0908 20.6878 59.4141L21.2401 62.0692C21.322 62.4751 21.5427 62.8399 21.8641 63.101C22.1856 63.362 22.5879 63.5031 23.002 63.5H29.0038C29.4179 63.5023 29.8198 63.3606 30.1408 63.099C30.4617 62.8374 30.6817 62.4723 30.7629 62.0664L31.3152 59.4064C32.3499 59.0841 33.353 58.6679 34.3119 58.1632L36.5813 59.6521C36.9265 59.8819 37.341 59.9844 37.7536 59.942C38.1661 59.8996 38.5511 59.7149 38.8423 59.4197L43.085 55.177C43.3797 54.8856 43.5642 54.501 43.607 54.0888C43.6497 53.6766 43.5481 53.2623 43.3195 52.9167L41.8278 50.6466C42.3346 49.6879 42.7517 48.6845 43.0738 47.6492L45.7296 47.0976C46.1358 47.0157 46.5009 46.795 46.7622 46.4734C47.0235 46.1518 47.1648 45.7493 47.1618 45.335V39.3388C47.1646 38.9242 47.0233 38.5216 46.7621 38.1997C46.5008 37.8778 46.1359 37.6567 45.7296 37.5741L43.0696 37.0239C42.7472 35.9883 42.3311 34.9844 41.8264 34.0244L43.3181 31.755C43.5468 31.4098 43.6484 30.996 43.6057 30.5842C43.5629 30.1724 43.3784 29.7882 43.0836 29.4975L40.5916 27.0027V22.4527L47.8422 17.1446C47.9747 17.0469 48.0709 16.9081 48.1159 16.7498L51.3604 5.3398C51.5732 4.60079 51.4905 3.80801 51.1298 3.12883C50.769 2.44966 50.1585 1.93725 49.427 1.6998L49.2037 1.6298C48.4944 1.39245 47.7215 1.43332 47.0412 1.74417C46.3609 2.05501 45.824 2.61261 45.5392 3.3042L41.7039 12.4448L31.5805 16.7183H20.4253L10.302 12.4483L6.46246 3.3049C6.1779 2.6131 5.64108 2.05528 4.9607 1.7444C4.28032 1.43351 3.50723 1.3928 2.79796 1.6305L2.57536 1.7005C1.84367 1.93766 1.23283 2.44998 0.871921 3.12922C0.511011 3.80846 0.428299 4.6014 0.641262 5.3405L3.88296 16.7519Z"/>
</mask>
<path fill-rule="evenodd" clip-rule="evenodd" d="M29.1529 52.055V46.245H32.3953C32.5277 46.2452 32.6577 46.2097 32.7717 46.1424C32.8856 46.0751 32.9794 45.9783 33.0431 45.8623C33.1068 45.7462 33.1381 45.6152 33.1338 45.4829C33.1294 45.3506 33.0895 45.2219 33.0183 45.1103L26.6245 35.0674C26.5585 34.9621 26.4669 34.8753 26.3582 34.8151C26.2494 34.7549 26.1272 34.7234 26.0029 34.7234C25.8787 34.7234 25.7564 34.7549 25.6477 34.8151C25.539 34.8753 25.4473 34.9621 25.3813 35.0674L18.9847 45.1138C18.9143 45.2255 18.875 45.3541 18.871 45.4861C18.8669 45.6182 18.8984 45.7489 18.9619 45.8647C19.0255 45.9805 19.1189 46.0771 19.2325 46.1446C19.3461 46.2121 19.4756 46.248 19.6077 46.2485H22.8529V52.0585C20.5378 51.3076 18.5665 49.7552 17.294 47.6805C16.0214 45.6058 15.5311 43.145 15.9111 40.741C16.2912 38.3369 17.5168 36.1474 19.3673 34.5665C21.2178 32.9856 23.5718 32.1169 26.0057 32.1169C28.4396 32.1169 30.7936 32.9856 32.6442 34.5665C34.4947 36.1474 35.7203 38.3369 36.1003 40.741C36.4804 43.145 35.9901 45.6058 34.7175 47.6805C33.4449 49.7552 31.4737 51.3076 29.1585 52.0585L29.1529 52.055ZM24.3229 52.4162C25.4323 52.6028 26.5651 52.6028 27.6745 52.4162V45.51C27.6745 45.413 27.6936 45.317 27.7308 45.2274C27.7679 45.1378 27.8223 45.0563 27.8908 44.9878C27.9594 44.9192 28.0408 44.8648 28.1304 44.8277C28.22 44.7906 28.3161 44.7715 28.413 44.7715H31.0492L26.0029 36.8384L20.9524 44.7722H23.5886C23.7844 44.7722 23.9721 44.8499 24.1106 44.9882C24.2491 45.1266 24.327 45.3142 24.3271 45.51V52.4155L24.3229 52.4162ZM26.0029 30.6462C23.6897 30.6453 21.4282 31.3306 19.5044 32.6153C17.5807 33.8999 16.0811 35.7262 15.1955 37.8633C14.3099 40.0003 14.078 42.3519 14.529 44.6208C14.9801 46.8896 16.094 48.9737 17.7297 50.6094C19.3654 52.2451 21.4495 53.359 23.7183 53.8101C25.9872 54.2612 28.3388 54.0292 30.4759 53.1436C32.6129 52.258 34.4392 50.7584 35.7239 48.8347C37.0085 46.9109 37.6938 44.6494 37.6929 42.3362C37.6881 39.2373 36.455 36.2667 34.2637 34.0754C32.0724 31.8842 29.1018 30.651 26.0029 30.6462ZM26.0029 13.3394C24.8794 13.3394 23.7812 13.0062 22.847 12.3821C21.9129 11.7579 21.1848 10.8707 20.7548 9.83273C20.3249 8.79475 20.2124 7.65259 20.4316 6.55068C20.6508 5.44878 21.1918 4.43661 21.9862 3.64218C22.7807 2.84775 23.7928 2.30673 24.8947 2.08755C25.9966 1.86837 27.1388 1.98086 28.1768 2.4108C29.2147 2.84074 30.1019 3.56883 30.7261 4.50298C31.3503 5.43713 31.6834 6.5354 31.6834 7.6589C31.681 9.16459 31.0817 10.6079 30.0169 11.6725C28.9521 12.737 27.5086 13.336 26.0029 13.338V13.3394ZM26.0029 0.5014C24.5873 0.501677 23.2036 0.921727 22.0267 1.70843C20.8498 2.49514 19.9326 3.61317 19.3911 4.92113C18.8497 6.2291 18.7082 7.66826 18.9846 9.05663C19.2611 10.445 19.943 11.7202 20.9442 12.721C21.9454 13.7218 23.2209 14.4032 24.6094 14.6791C25.9978 14.955 27.4369 14.813 28.7447 14.271C30.0524 13.729 31.1701 12.8114 31.9564 11.6342C32.7426 10.457 33.1621 9.07311 33.1618 7.6575C33.1596 5.75965 32.4046 3.94019 31.0625 2.59834C29.7204 1.25649 27.9008 0.501853 26.0029 0.5V0.5014ZM3.03456 3.1047C2.6664 3.22428 2.35918 3.48236 2.17786 3.82436C1.99655 4.16636 1.95534 4.56547 2.06296 4.9373L5.24026 16.1037L12.5903 21.4853C12.6837 21.5538 12.7597 21.6434 12.8121 21.7468C12.8645 21.8501 12.8919 21.9644 12.892 22.0803V25.5278L13.1657 25.2541C13.4566 24.9583 13.8415 24.7732 14.2541 24.7306C14.6667 24.6879 15.0814 24.7903 15.4266 25.0203L17.696 26.5092C18.6552 26.0049 19.6583 25.5888 20.6927 25.266L21.245 22.6102C21.3266 22.2037 21.547 21.8382 21.8684 21.5764C22.1899 21.3146 22.5924 21.1728 23.0069 21.1752H29.0087C29.4233 21.1726 29.8259 21.3144 30.1474 21.5763C30.4689 21.8381 30.6892 22.2036 30.7706 22.6102L31.3229 25.266C32.3576 25.5883 33.3607 26.0044 34.3196 26.5092L36.589 25.0203C36.9343 24.7903 37.3489 24.6879 37.7616 24.7306C38.1742 24.7732 38.5591 24.9583 38.85 25.2541L39.1237 25.5278V22.0803C39.1238 21.9644 39.1511 21.8501 39.2036 21.7468C39.256 21.6434 39.332 21.5538 39.4254 21.4853L46.7754 16.1037L49.9471 4.9373C50.0535 4.56493 50.0112 4.16583 49.8292 3.82402C49.6471 3.4822 49.3396 3.22434 48.9713 3.1047L48.7487 3.0347C48.3921 2.91585 48.0037 2.93641 47.6617 3.09224C47.3196 3.24808 47.0493 3.52763 46.9049 3.8747L42.9499 13.2932C42.8756 13.4716 42.7337 13.6133 42.5551 13.6873L32.0173 18.14C31.9267 18.1789 31.829 18.199 31.7303 18.1988H20.2762C20.1773 18.199 20.0794 18.179 19.9885 18.14L9.45075 13.6873C9.27278 13.6125 9.1311 13.471 9.05595 13.2932L5.10376 3.8747C4.9586 3.52763 4.68767 3.24823 4.34524 3.09246C4.0028 2.93669 3.61416 2.91606 3.25716 3.0347L3.03456 3.1047ZM42.0847 30.95C42.1285 30.8888 42.1484 30.8137 42.1405 30.7389C42.1327 30.664 42.0976 30.5947 42.042 30.544L37.7993 26.3013C37.7481 26.2466 37.6788 26.2122 37.6043 26.2044C37.5297 26.1965 37.4549 26.2158 37.3933 26.2586L34.7529 27.9862C34.64 28.0596 34.5092 28.101 34.3746 28.1059C34.24 28.1109 34.1065 28.0791 33.9885 28.0142C32.8802 27.3937 31.7032 26.9046 30.4815 26.5568C30.3517 26.5201 30.2344 26.4485 30.1424 26.3498C30.0505 26.251 29.9874 26.1289 29.96 25.9968L29.3174 22.9098C29.3048 22.8358 29.266 22.7688 29.208 22.7211C29.15 22.6734 29.0768 22.6482 29.0017 22.6501H23.002C22.9271 22.6486 22.8541 22.674 22.7962 22.7216C22.7383 22.7692 22.6994 22.836 22.6863 22.9098L22.0437 25.9968C22.0164 26.1289 21.9533 26.251 21.8614 26.3498C21.7694 26.4485 21.6521 26.5201 21.5222 26.5568C20.3004 26.904 19.1234 27.3932 18.0152 28.0142C17.8964 28.0797 17.762 28.1117 17.6264 28.1068C17.4907 28.1019 17.359 28.0602 17.2452 27.9862L14.6097 26.2551C14.5482 26.2124 14.4733 26.1933 14.3988 26.2011C14.3243 26.2089 14.2551 26.2432 14.2037 26.2978L9.96105 30.5405C9.9056 30.5913 9.87064 30.6606 9.86278 30.7354C9.85491 30.8102 9.87468 30.8853 9.91835 30.9465L11.653 33.5848C11.7279 33.6975 11.7702 33.8288 11.7751 33.9641C11.78 34.0994 11.7475 34.2334 11.681 34.3513C11.0619 35.46 10.5738 36.6369 10.2264 37.8583C10.1901 37.9883 10.1186 38.1059 10.0198 38.1979C9.921 38.2899 9.79868 38.3529 9.66635 38.3798L6.57656 39.0203C6.50295 39.0342 6.43674 39.074 6.38978 39.1323C6.34283 39.1907 6.31821 39.2639 6.32036 39.3388V45.3385C6.31827 45.4132 6.34293 45.4862 6.3899 45.5443C6.43687 45.6025 6.50307 45.6419 6.57656 45.6556L9.66635 46.2968C9.79858 46.3239 9.92079 46.3869 10.0196 46.4789C10.1184 46.5709 10.1899 46.6883 10.2264 46.8183C10.5749 48.0395 11.063 49.2165 11.681 50.326C11.7475 50.4437 11.7801 50.5776 11.7751 50.7128C11.7702 50.848 11.7279 50.9792 11.653 51.0918L9.92465 53.7301C9.88098 53.7913 9.86121 53.8664 9.86908 53.9412C9.87694 54.0159 9.9119 54.0853 9.96735 54.1361L14.21 58.3788C14.2614 58.4333 14.3308 58.4676 14.4053 58.4752C14.4799 58.4827 14.5547 58.4632 14.616 58.4201L17.2529 56.6904C17.3728 56.6119 17.5129 56.57 17.6561 56.57C17.7825 56.5699 17.9068 56.6019 18.0173 56.6631C19.1259 57.2824 20.3029 57.7705 21.5243 58.1177C21.654 58.1547 21.771 58.2265 21.8629 58.3252C21.9548 58.4238 22.0181 58.5457 22.0458 58.6777L22.6884 61.7661C22.7019 61.8394 22.7411 61.9056 22.799 61.9527C22.8568 61.9998 22.9296 62.0247 23.0041 62.023H29.0059C29.0808 62.0251 29.154 62.0001 29.2119 61.9527C29.2699 61.9052 29.3089 61.8385 29.3216 61.7647L29.9642 58.6777C29.9917 58.5456 30.0549 58.4236 30.1468 58.3248C30.2387 58.2261 30.356 58.1545 30.4857 58.1177C31.7074 57.7711 32.8844 57.2829 33.9927 56.6631C34.1113 56.5968 34.2458 56.5642 34.3815 56.569C34.5173 56.5739 34.6492 56.6158 34.7627 56.6904L37.3982 58.4201C37.4595 58.4632 37.5344 58.4827 37.6089 58.4752C37.6835 58.4676 37.7528 58.4333 37.8042 58.3788L42.0469 54.1361C42.1025 54.0854 42.1376 54.016 42.1454 53.9412C42.1533 53.8663 42.1334 53.7912 42.0896 53.7301L40.3613 51.0904C40.2864 50.978 40.2442 50.8471 40.2392 50.7121C40.2343 50.5772 40.2668 50.4435 40.3333 50.326C40.953 49.2173 41.4412 48.0401 41.7879 46.8183C41.8249 46.6886 41.8966 46.5714 41.9953 46.4795C42.094 46.3876 42.2159 46.3244 42.3479 46.2968L45.4349 45.6556C45.5084 45.6419 45.5746 45.6025 45.6216 45.5443C45.6686 45.4862 45.6932 45.4132 45.6911 45.3385V39.3388C45.6933 39.2639 45.6687 39.1907 45.6217 39.1323C45.5747 39.074 45.5085 39.0342 45.4349 39.0203L42.3479 38.3798C42.2158 38.3524 42.0938 38.2892 41.995 38.1973C41.8963 38.1054 41.8247 37.9881 41.7879 37.8583C41.441 36.6367 40.9528 35.4598 40.3333 34.3513C40.2668 34.2334 40.2342 34.0994 40.2392 33.9641C40.2441 33.8288 40.2864 33.6975 40.3613 33.5848L42.0847 30.95ZM3.88296 16.7519C3.92903 16.9097 4.02508 17.0482 4.15666 17.1467L11.4073 22.4548V27.0048L8.91525 29.4996C8.62036 29.7903 8.43593 30.1747 8.39365 30.5867C8.35137 30.9986 8.45387 31.4125 8.68355 31.7571L10.1753 34.03C9.6706 34.989 9.25447 35.9921 8.93206 37.0267L6.27206 37.5769C5.8658 37.6595 5.50086 37.8806 5.23961 38.2025C4.97837 38.5244 4.83707 38.927 4.83986 39.3416V45.3413C4.83689 45.7556 4.97817 46.1581 5.23948 46.4797C5.50079 46.8013 5.86585 47.022 6.27206 47.1039L8.93206 47.6555C9.25397 48.6905 9.67011 49.6938 10.1753 50.6529L8.68635 52.923C8.45659 53.268 8.35406 53.6823 8.39633 54.0947C8.43861 54.5071 8.62306 54.892 8.91805 55.1833L13.1608 59.426C13.4521 59.7211 13.837 59.9057 14.2495 59.9481C14.6621 59.9905 15.0765 59.8881 15.4217 59.6584L17.6911 58.1695C18.6503 58.6742 19.6533 59.0908 20.6878 59.4141L21.2401 62.0692C21.322 62.4751 21.5427 62.8399 21.8641 63.101C22.1856 63.362 22.5879 63.5031 23.002 63.5H29.0038C29.4179 63.5023 29.8198 63.3606 30.1408 63.099C30.4617 62.8374 30.6817 62.4723 30.7629 62.0664L31.3152 59.4064C32.3499 59.0841 33.353 58.6679 34.3119 58.1632L36.5813 59.6521C36.9265 59.8819 37.341 59.9844 37.7536 59.942C38.1661 59.8996 38.5511 59.7149 38.8423 59.4197L43.085 55.177C43.3797 54.8856 43.5642 54.501 43.607 54.0888C43.6497 53.6766 43.5481 53.2623 43.3195 52.9167L41.8278 50.6466C42.3346 49.6879 42.7517 48.6845 43.0738 47.6492L45.7296 47.0976C46.1358 47.0157 46.5009 46.795 46.7622 46.4734C47.0235 46.1518 47.1648 45.7493 47.1618 45.335V39.3388C47.1646 38.9242 47.0233 38.5216 46.7621 38.1997C46.5008 37.8778 46.1359 37.6567 45.7296 37.5741L43.0696 37.0239C42.7472 35.9883 42.3311 34.9844 41.8264 34.0244L43.3181 31.755C43.5468 31.4098 43.6484 30.996 43.6057 30.5842C43.5629 30.1724 43.3784 29.7882 43.0836 29.4975L40.5916 27.0027V22.4527L47.8422 17.1446C47.9747 17.0469 48.0709 16.9081 48.1159 16.7498L51.3604 5.3398C51.5732 4.60079 51.4905 3.80801 51.1298 3.12883C50.769 2.44966 50.1585 1.93725 49.427 1.6998L49.2037 1.6298C48.4944 1.39245 47.7215 1.43332 47.0412 1.74417C46.3609 2.05501 45.824 2.61261 45.5392 3.3042L41.7039 12.4448L31.5805 16.7183H20.4253L10.302 12.4483L6.46246 3.3049C6.1779 2.6131 5.64108 2.05528 4.9607 1.7444C4.28032 1.43351 3.50723 1.3928 2.79796 1.6305L2.57536 1.7005C1.84367 1.93766 1.23283 2.44998 0.871921 3.12922C0.511011 3.80846 0.428299 4.6014 0.641262 5.3405L3.88296 16.7519Z" fill="#E6F1F9"/>
<path fill-rule="evenodd" clip-rule="evenodd" d="M29.1529 52.055V46.245H32.3953C32.5277 46.2452 32.6577 46.2097 32.7717 46.1424C32.8856 46.0751 32.9794 45.9783 33.0431 45.8623C33.1068 45.7462 33.1381 45.6152 33.1338 45.4829C33.1294 45.3506 33.0895 45.2219 33.0183 45.1103L26.6245 35.0674C26.5585 34.9621 26.4669 34.8753 26.3582 34.8151C26.2494 34.7549 26.1272 34.7234 26.0029 34.7234C25.8787 34.7234 25.7564 34.7549 25.6477 34.8151C25.539 34.8753 25.4473 34.9621 25.3813 35.0674L18.9847 45.1138C18.9143 45.2255 18.875 45.3541 18.871 45.4861C18.8669 45.6182 18.8984 45.7489 18.9619 45.8647C19.0255 45.9805 19.1189 46.0771 19.2325 46.1446C19.3461 46.2121 19.4756 46.248 19.6077 46.2485H22.8529V52.0585C20.5378 51.3076 18.5665 49.7552 17.294 47.6805C16.0214 45.6058 15.5311 43.145 15.9111 40.741C16.2912 38.3369 17.5168 36.1474 19.3673 34.5665C21.2178 32.9856 23.5718 32.1169 26.0057 32.1169C28.4396 32.1169 30.7936 32.9856 32.6442 34.5665C34.4947 36.1474 35.7203 38.3369 36.1003 40.741C36.4804 43.145 35.9901 45.6058 34.7175 47.6805C33.4449 49.7552 31.4737 51.3076 29.1585 52.0585L29.1529 52.055ZM24.3229 52.4162C25.4323 52.6028 26.5651 52.6028 27.6745 52.4162V45.51C27.6745 45.413 27.6936 45.317 27.7308 45.2274C27.7679 45.1378 27.8223 45.0563 27.8908 44.9878C27.9594 44.9192 28.0408 44.8648 28.1304 44.8277C28.22 44.7906 28.3161 44.7715 28.413 44.7715H31.0492L26.0029 36.8384L20.9524 44.7722H23.5886C23.7844 44.7722 23.9721 44.8499 24.1106 44.9882C24.2491 45.1266 24.327 45.3142 24.3271 45.51V52.4155L24.3229 52.4162ZM26.0029 30.6462C23.6897 30.6453 21.4282 31.3306 19.5044 32.6153C17.5807 33.8999 16.0811 35.7262 15.1955 37.8633C14.3099 40.0003 14.078 42.3519 14.529 44.6208C14.9801 46.8896 16.094 48.9737 17.7297 50.6094C19.3654 52.2451 21.4495 53.359 23.7183 53.8101C25.9872 54.2612 28.3388 54.0292 30.4759 53.1436C32.6129 52.258 34.4392 50.7584 35.7239 48.8347C37.0085 46.9109 37.6938 44.6494 37.6929 42.3362C37.6881 39.2373 36.455 36.2667 34.2637 34.0754C32.0724 31.8842 29.1018 30.651 26.0029 30.6462ZM26.0029 13.3394C24.8794 13.3394 23.7812 13.0062 22.847 12.3821C21.9129 11.7579 21.1848 10.8707 20.7548 9.83273C20.3249 8.79475 20.2124 7.65259 20.4316 6.55068C20.6508 5.44878 21.1918 4.43661 21.9862 3.64218C22.7807 2.84775 23.7928 2.30673 24.8947 2.08755C25.9966 1.86837 27.1388 1.98086 28.1768 2.4108C29.2147 2.84074 30.1019 3.56883 30.7261 4.50298C31.3503 5.43713 31.6834 6.5354 31.6834 7.6589C31.681 9.16459 31.0817 10.6079 30.0169 11.6725C28.9521 12.737 27.5086 13.336 26.0029 13.338V13.3394ZM26.0029 0.5014C24.5873 0.501677 23.2036 0.921727 22.0267 1.70843C20.8498 2.49514 19.9326 3.61317 19.3911 4.92113C18.8497 6.2291 18.7082 7.66826 18.9846 9.05663C19.2611 10.445 19.943 11.7202 20.9442 12.721C21.9454 13.7218 23.2209 14.4032 24.6094 14.6791C25.9978 14.955 27.4369 14.813 28.7447 14.271C30.0524 13.729 31.1701 12.8114 31.9564 11.6342C32.7426 10.457 33.1621 9.07311 33.1618 7.6575C33.1596 5.75965 32.4046 3.94019 31.0625 2.59834C29.7204 1.25649 27.9008 0.501853 26.0029 0.5V0.5014ZM3.03456 3.1047C2.6664 3.22428 2.35918 3.48236 2.17786 3.82436C1.99655 4.16636 1.95534 4.56547 2.06296 4.9373L5.24026 16.1037L12.5903 21.4853C12.6837 21.5538 12.7597 21.6434 12.8121 21.7468C12.8645 21.8501 12.8919 21.9644 12.892 22.0803V25.5278L13.1657 25.2541C13.4566 24.9583 13.8415 24.7732 14.2541 24.7306C14.6667 24.6879 15.0814 24.7903 15.4266 25.0203L17.696 26.5092C18.6552 26.0049 19.6583 25.5888 20.6927 25.266L21.245 22.6102C21.3266 22.2037 21.547 21.8382 21.8684 21.5764C22.1899 21.3146 22.5924 21.1728 23.0069 21.1752H29.0087C29.4233 21.1726 29.8259 21.3144 30.1474 21.5763C30.4689 21.8381 30.6892 22.2036 30.7706 22.6102L31.3229 25.266C32.3576 25.5883 33.3607 26.0044 34.3196 26.5092L36.589 25.0203C36.9343 24.7903 37.3489 24.6879 37.7616 24.7306C38.1742 24.7732 38.5591 24.9583 38.85 25.2541L39.1237 25.5278V22.0803C39.1238 21.9644 39.1511 21.8501 39.2036 21.7468C39.256 21.6434 39.332 21.5538 39.4254 21.4853L46.7754 16.1037L49.9471 4.9373C50.0535 4.56493 50.0112 4.16583 49.8292 3.82402C49.6471 3.4822 49.3396 3.22434 48.9713 3.1047L48.7487 3.0347C48.3921 2.91585 48.0037 2.93641 47.6617 3.09224C47.3196 3.24808 47.0493 3.52763 46.9049 3.8747L42.9499 13.2932C42.8756 13.4716 42.7337 13.6133 42.5551 13.6873L32.0173 18.14C31.9267 18.1789 31.829 18.199 31.7303 18.1988H20.2762C20.1773 18.199 20.0794 18.179 19.9885 18.14L9.45075 13.6873C9.27278 13.6125 9.1311 13.471 9.05595 13.2932L5.10376 3.8747C4.9586 3.52763 4.68767 3.24823 4.34524 3.09246C4.0028 2.93669 3.61416 2.91606 3.25716 3.0347L3.03456 3.1047ZM42.0847 30.95C42.1285 30.8888 42.1484 30.8137 42.1405 30.7389C42.1327 30.664 42.0976 30.5947 42.042 30.544L37.7993 26.3013C37.7481 26.2466 37.6788 26.2122 37.6043 26.2044C37.5297 26.1965 37.4549 26.2158 37.3933 26.2586L34.7529 27.9862C34.64 28.0596 34.5092 28.101 34.3746 28.1059C34.24 28.1109 34.1065 28.0791 33.9885 28.0142C32.8802 27.3937 31.7032 26.9046 30.4815 26.5568C30.3517 26.5201 30.2344 26.4485 30.1424 26.3498C30.0505 26.251 29.9874 26.1289 29.96 25.9968L29.3174 22.9098C29.3048 22.8358 29.266 22.7688 29.208 22.7211C29.15 22.6734 29.0768 22.6482 29.0017 22.6501H23.002C22.9271 22.6486 22.8541 22.674 22.7962 22.7216C22.7383 22.7692 22.6994 22.836 22.6863 22.9098L22.0437 25.9968C22.0164 26.1289 21.9533 26.251 21.8614 26.3498C21.7694 26.4485 21.6521 26.5201 21.5222 26.5568C20.3004 26.904 19.1234 27.3932 18.0152 28.0142C17.8964 28.0797 17.762 28.1117 17.6264 28.1068C17.4907 28.1019 17.359 28.0602 17.2452 27.9862L14.6097 26.2551C14.5482 26.2124 14.4733 26.1933 14.3988 26.2011C14.3243 26.2089 14.2551 26.2432 14.2037 26.2978L9.96105 30.5405C9.9056 30.5913 9.87064 30.6606 9.86278 30.7354C9.85491 30.8102 9.87468 30.8853 9.91835 30.9465L11.653 33.5848C11.7279 33.6975 11.7702 33.8288 11.7751 33.9641C11.78 34.0994 11.7475 34.2334 11.681 34.3513C11.0619 35.46 10.5738 36.6369 10.2264 37.8583C10.1901 37.9883 10.1186 38.1059 10.0198 38.1979C9.921 38.2899 9.79868 38.3529 9.66635 38.3798L6.57656 39.0203C6.50295 39.0342 6.43674 39.074 6.38978 39.1323C6.34283 39.1907 6.31821 39.2639 6.32036 39.3388V45.3385C6.31827 45.4132 6.34293 45.4862 6.3899 45.5443C6.43687 45.6025 6.50307 45.6419 6.57656 45.6556L9.66635 46.2968C9.79858 46.3239 9.92079 46.3869 10.0196 46.4789C10.1184 46.5709 10.1899 46.6883 10.2264 46.8183C10.5749 48.0395 11.063 49.2165 11.681 50.326C11.7475 50.4437 11.7801 50.5776 11.7751 50.7128C11.7702 50.848 11.7279 50.9792 11.653 51.0918L9.92465 53.7301C9.88098 53.7913 9.86121 53.8664 9.86908 53.9412C9.87694 54.0159 9.9119 54.0853 9.96735 54.1361L14.21 58.3788C14.2614 58.4333 14.3308 58.4676 14.4053 58.4752C14.4799 58.4827 14.5547 58.4632 14.616 58.4201L17.2529 56.6904C17.3728 56.6119 17.5129 56.57 17.6561 56.57C17.7825 56.5699 17.9068 56.6019 18.0173 56.6631C19.1259 57.2824 20.3029 57.7705 21.5243 58.1177C21.654 58.1547 21.771 58.2265 21.8629 58.3252C21.9548 58.4238 22.0181 58.5457 22.0458 58.6777L22.6884 61.7661C22.7019 61.8394 22.7411 61.9056 22.799 61.9527C22.8568 61.9998 22.9296 62.0247 23.0041 62.023H29.0059C29.0808 62.0251 29.154 62.0001 29.2119 61.9527C29.2699 61.9052 29.3089 61.8385 29.3216 61.7647L29.9642 58.6777C29.9917 58.5456 30.0549 58.4236 30.1468 58.3248C30.2387 58.2261 30.356 58.1545 30.4857 58.1177C31.7074 57.7711 32.8844 57.2829 33.9927 56.6631C34.1113 56.5968 34.2458 56.5642 34.3815 56.569C34.5173 56.5739 34.6492 56.6158 34.7627 56.6904L37.3982 58.4201C37.4595 58.4632 37.5344 58.4827 37.6089 58.4752C37.6835 58.4676 37.7528 58.4333 37.8042 58.3788L42.0469 54.1361C42.1025 54.0854 42.1376 54.016 42.1454 53.9412C42.1533 53.8663 42.1334 53.7912 42.0896 53.7301L40.3613 51.0904C40.2864 50.978 40.2442 50.8471 40.2392 50.7121C40.2343 50.5772 40.2668 50.4435 40.3333 50.326C40.953 49.2173 41.4412 48.0401 41.7879 46.8183C41.8249 46.6886 41.8966 46.5714 41.9953 46.4795C42.094 46.3876 42.2159 46.3244 42.3479 46.2968L45.4349 45.6556C45.5084 45.6419 45.5746 45.6025 45.6216 45.5443C45.6686 45.4862 45.6932 45.4132 45.6911 45.3385V39.3388C45.6933 39.2639 45.6687 39.1907 45.6217 39.1323C45.5747 39.074 45.5085 39.0342 45.4349 39.0203L42.3479 38.3798C42.2158 38.3524 42.0938 38.2892 41.995 38.1973C41.8963 38.1054 41.8247 37.9881 41.7879 37.8583C41.441 36.6367 40.9528 35.4598 40.3333 34.3513C40.2668 34.2334 40.2342 34.0994 40.2392 33.9641C40.2441 33.8288 40.2864 33.6975 40.3613 33.5848L42.0847 30.95ZM3.88296 16.7519C3.92903 16.9097 4.02508 17.0482 4.15666 17.1467L11.4073 22.4548V27.0048L8.91525 29.4996C8.62036 29.7903 8.43593 30.1747 8.39365 30.5867C8.35137 30.9986 8.45387 31.4125 8.68355 31.7571L10.1753 34.03C9.6706 34.989 9.25447 35.9921 8.93206 37.0267L6.27206 37.5769C5.8658 37.6595 5.50086 37.8806 5.23961 38.2025C4.97837 38.5244 4.83707 38.927 4.83986 39.3416V45.3413C4.83689 45.7556 4.97817 46.1581 5.23948 46.4797C5.50079 46.8013 5.86585 47.022 6.27206 47.1039L8.93206 47.6555C9.25397 48.6905 9.67011 49.6938 10.1753 50.6529L8.68635 52.923C8.45659 53.268 8.35406 53.6823 8.39633 54.0947C8.43861 54.5071 8.62306 54.892 8.91805 55.1833L13.1608 59.426C13.4521 59.7211 13.837 59.9057 14.2495 59.9481C14.6621 59.9905 15.0765 59.8881 15.4217 59.6584L17.6911 58.1695C18.6503 58.6742 19.6533 59.0908 20.6878 59.4141L21.2401 62.0692C21.322 62.4751 21.5427 62.8399 21.8641 63.101C22.1856 63.362 22.5879 63.5031 23.002 63.5H29.0038C29.4179 63.5023 29.8198 63.3606 30.1408 63.099C30.4617 62.8374 30.6817 62.4723 30.7629 62.0664L31.3152 59.4064C32.3499 59.0841 33.353 58.6679 34.3119 58.1632L36.5813 59.6521C36.9265 59.8819 37.341 59.9844 37.7536 59.942C38.1661 59.8996 38.5511 59.7149 38.8423 59.4197L43.085 55.177C43.3797 54.8856 43.5642 54.501 43.607 54.0888C43.6497 53.6766 43.5481 53.2623 43.3195 52.9167L41.8278 50.6466C42.3346 49.6879 42.7517 48.6845 43.0738 47.6492L45.7296 47.0976C46.1358 47.0157 46.5009 46.795 46.7622 46.4734C47.0235 46.1518 47.1648 45.7493 47.1618 45.335V39.3388C47.1646 38.9242 47.0233 38.5216 46.7621 38.1997C46.5008 37.8778 46.1359 37.6567 45.7296 37.5741L43.0696 37.0239C42.7472 35.9883 42.3311 34.9844 41.8264 34.0244L43.3181 31.755C43.5468 31.4098 43.6484 30.996 43.6057 30.5842C43.5629 30.1724 43.3784 29.7882 43.0836 29.4975L40.5916 27.0027V22.4527L47.8422 17.1446C47.9747 17.0469 48.0709 16.9081 48.1159 16.7498L51.3604 5.3398C51.5732 4.60079 51.4905 3.80801 51.1298 3.12883C50.769 2.44966 50.1585 1.93725 49.427 1.6998L49.2037 1.6298C48.4944 1.39245 47.7215 1.43332 47.0412 1.74417C46.3609 2.05501 45.824 2.61261 45.5392 3.3042L41.7039 12.4448L31.5805 16.7183H20.4253L10.302 12.4483L6.46246 3.3049C6.1779 2.6131 5.64108 2.05528 4.9607 1.7444C4.28032 1.43351 3.50723 1.3928 2.79796 1.6305L2.57536 1.7005C1.84367 1.93766 1.23283 2.44998 0.871921 3.12922C0.511011 3.80846 0.428299 4.6014 0.641262 5.3405L3.88296 16.7519Z" stroke="#E6F1F9" mask="url(#path-1-outside-1_681_15562)"/>
</svg>
