<svg width="225" height="103" viewBox="0 0 225 103" fill="none" xmlns="http://www.w3.org/2000/svg">
<g clip-path="url(#clip0_838_14194)">
<rect width="224" height="103" transform="translate(0.841309)" fill="url(#paint0_linear_838_14194)"/>
<path d="M95.7897 60.0554C95.7897 48.0007 104.019 37.8844 115.169 34.9324C114.296 34.8395 113.405 34.791 112.507 34.791C98.5247 34.791 87.1963 46.1067 87.1963 60.0554C87.1963 74.0041 98.5288 85.3198 112.507 85.3198C113.405 85.3198 114.292 85.2713 115.169 85.1825C104.019 82.2263 95.7897 72.1141 95.7897 60.0554Z" fill="white"/>
<path d="M65.3933 60.0554C65.3933 48.0007 57.168 37.8844 46.0176 34.9324C46.8915 34.8395 47.7775 34.791 48.6757 34.791C62.6583 34.791 73.9867 46.1067 73.9867 60.0554C73.9867 74.0041 62.6542 85.3198 48.6757 85.3198C47.7775 85.3198 46.8915 85.2713 46.0176 85.1825C57.168 82.2263 65.3933 72.1141 65.3933 60.0554Z" fill="white"/>
<path d="M10.9845 94.1679V96.2032C10.9845 96.9342 10.6406 97.2936 9.92849 97.2936H5.48612C3.22852 97.2936 2.51644 95.9206 3.37822 93.1987C-0.31567 94.3617 -0.0486421 99.6117 4.6648 99.6117H11.0694C12.5543 99.6117 13.2866 98.703 13.2866 96.9302V94.0952C13.2866 93.7358 13.4282 93.344 13.7114 92.9846H11.4052C11.1342 93.3925 10.9804 93.7721 10.9804 94.1638L10.9845 94.1679Z" fill="white"/>
<path d="M7.31074 90.6949C7.31074 90.3719 7.37952 90.1296 7.52517 89.964H5.59529C5.44964 90.1296 5.38086 90.3719 5.38086 90.6949V91.8459H7.31479V90.6949H7.31074Z" fill="white"/>
<path d="M9.71406 90.6666C9.71406 90.3435 9.78284 90.1093 9.93254 89.9437H7.99861C7.85296 90.1093 7.78418 90.3435 7.78418 90.6666V91.8256H9.71406V90.6666Z" fill="white"/>
<path d="M15.3258 89.4308V97.023C15.3258 97.2734 15.2773 97.7944 15.2004 98.5415C15.1114 99.2926 14.897 100.064 14.5571 100.88C16.6003 100.88 17.6239 99.4178 17.6239 96.4859V89.3622C17.6239 89.0027 17.7817 88.611 18.0528 88.2516H15.7588C15.4755 88.6635 15.3299 89.0431 15.3299 89.4308H15.3258Z" fill="white"/>
<path d="M20.136 94.1477C20.2938 98.5052 20.2048 100.064 19.9014 100.67C19.602 101.292 19.0032 101.994 18.0767 102.814C20.9776 102.814 22.4422 101.352 22.4422 98.4164V94.0791C22.4422 93.7197 22.5919 93.3279 22.871 92.9645H20.5649C20.2898 93.3764 20.136 93.756 20.136 94.1437V94.1477Z" fill="white"/>
<path d="M26.6058 96.1831V89.4308C26.6058 89.0391 26.4602 88.6595 26.1729 88.2516H23.8789C24.154 88.611 24.3118 89.0027 24.3118 89.3622V97.3461C24.3118 98.8484 25.0441 99.6157 26.5168 99.6157H28.9484V97.2936H27.6618C26.9497 97.2936 26.6058 96.914 26.6058 96.1831Z" fill="white"/>
<path d="M33.1435 91.8943L32.7835 93.8247H32.6257C30.6917 93.8247 29.6074 95.5369 30.2224 97.3058H28.9561V99.6158H41.3526V97.2937H39.714C39.0465 93.9135 36.9871 92.0801 33.1395 91.8943H33.1435ZM32.569 97.3058C32.0714 97.3058 31.687 96.7162 31.687 96.2316C31.687 95.7146 32.0714 95.3431 32.569 95.3431C33.0667 95.3431 33.451 95.6662 33.451 96.3406C33.451 96.9544 33.0586 97.3058 32.569 97.3058ZM35.037 97.3058C35.3809 96.4052 35.2231 95.1694 34.4544 94.5758C34.1793 94.3052 34.2683 94.2366 34.7376 94.3618C35.8219 94.6525 37.2663 95.9691 37.1692 97.3058H35.037Z" fill="white"/>
<path d="M50.1204 96.6313V96.2719C50.1204 95.2219 49.7967 94.3456 49.121 93.6146C48.4575 92.8635 47.6645 92.4919 46.7218 92.4919C45.7791 92.4919 44.9821 92.8635 44.3388 93.5944C43.5094 94.5112 43.4042 95.5046 43.2828 96.6354C43.2828 97.0836 42.9389 97.2977 42.2269 97.2977H41.3691V99.6198H42.5101C43.2626 99.6198 43.9059 99.4219 44.4238 99.014C45.0671 99.6763 45.8398 100.028 46.7178 100.028C47.5957 100.028 48.3685 99.7046 49.0118 99.0625C49.5094 99.4219 50.1325 99.6198 50.885 99.6198H52.0179V97.2977H51.1602C50.4562 97.2977 50.1163 97.0836 50.1163 96.6354L50.1204 96.6313ZM46.6531 97.7742C45.9693 97.7742 45.415 97.0796 45.415 96.1629C45.415 95.2461 45.9693 94.5758 46.6531 94.5758C47.3368 94.5758 47.9235 95.2785 47.9235 96.1629C47.9235 97.0473 47.3692 97.7742 46.6531 97.7742Z" fill="white"/>
<path d="M53.5229 89.447V96.2033C53.5229 96.9343 53.179 97.2937 52.4669 97.2937H52.0381V99.6158H53.6119C55.0968 99.6158 55.8291 98.8646 55.8291 97.3623V89.3784C55.8291 89.019 55.9707 88.6272 56.2539 88.2678H53.9477C53.6767 88.6757 53.5189 89.0594 53.5189 89.447H53.5229Z" fill="white"/>
<path d="M57.8558 89.4308V97.023C57.8558 97.2734 57.8072 97.7944 57.7263 98.5415C57.6373 99.2926 57.4229 100.064 57.083 100.88C59.1221 100.88 60.1498 99.4178 60.1498 96.4859V89.3622C60.1498 89.0027 60.3076 88.611 60.5786 88.2516H58.2846C58.0014 88.6635 57.8558 89.0431 57.8558 89.4308Z" fill="white"/>
<path d="M68.2415 96.2436L68.2213 94.0992C68.2213 93.7398 68.367 93.3481 68.6542 92.9886H66.3562C66.073 93.3965 65.9273 93.7761 65.9273 94.1679C66.077 98.5253 65.988 100.084 65.6846 100.69C65.3933 101.316 64.7864 102.015 63.8599 102.834C66.5746 102.834 68.0109 101.566 68.2051 99.0342C68.6947 99.4945 69.0952 99.6197 69.4432 99.6197H70.6933V97.2976H69.4027C68.6906 97.2976 68.3103 96.9544 68.2415 96.2436Z" fill="white"/>
<path d="M73.0442 94.1679V96.2032C73.0442 96.9342 72.6922 97.2936 71.9923 97.2936H70.7017V99.6157H73.1211C74.6059 99.6157 75.3382 98.8646 75.3382 97.3623V94.0992C75.3382 93.7398 75.4839 93.3481 75.7671 92.9886H73.469C73.1858 93.3965 73.0402 93.7761 73.0402 94.1679H73.0442Z" fill="white"/>
<path d="M73.3677 101.801V102.96H75.2976V101.801C75.2976 101.477 75.3583 101.243 75.516 101.07H73.5821C73.4243 101.243 73.3677 101.477 73.3677 101.801Z" fill="white"/>
<path d="M70.9565 101.817V102.976H72.8905V101.817C72.8905 101.494 72.9593 101.263 73.1049 101.098H71.171C71.0294 101.263 70.9565 101.498 70.9565 101.817Z" fill="white"/>
<path d="M84.5141 94.0589C84.5141 93.6995 84.6678 93.3118 84.9429 92.9483H84.6516C83.009 92.3224 81.5363 92.1608 80.1769 92.4799C78.8215 92.803 77.9881 93.5056 77.6199 94.6243C77.3448 95.4845 77.2962 96.3568 77.5107 97.2573C77.7453 98.1337 78.2632 98.804 79.0643 99.2321C79.8532 99.6602 80.9092 99.7692 82.2201 99.5754C82.1796 100.064 82.0906 100.415 81.9854 100.646C81.682 101.272 81.0751 101.97 80.1607 102.79C82.6327 102.79 84.0488 101.736 84.4089 99.6117H86.5572V97.2896H84.5141V94.0508V94.0589ZM81.771 97.5118C80.0353 98.0852 78.8337 95.9973 80.2093 94.8585C80.6664 94.4789 81.2167 94.4668 81.7305 94.701C82.5114 95.0524 82.6489 97.2291 81.771 97.5118Z" fill="white"/>
<path d="M90.9918 95.1331V89.342C90.9918 88.9826 91.1496 88.5909 91.4247 88.2314H89.1307C88.8475 88.6393 88.7019 89.0189 88.7019 89.4107V96.167C88.7019 96.7041 88.6331 97.0837 88.5238 97.2977H86.5737V99.6198H101.932V97.2977H99.9089C97.8375 92.3668 94.1476 91.131 90.9918 95.1331ZM91.6675 97.2977C92.7801 95.5612 93.7471 94.8504 94.6453 94.8504C95.7012 94.8504 96.648 95.8439 97.5745 97.2977H91.6675Z" fill="white"/>
<path d="M104.189 90.6787C104.189 90.3556 104.258 90.1093 104.404 89.9478H102.47C102.32 90.1133 102.255 90.3597 102.255 90.6787V91.8256H104.185V90.6787H104.189Z" fill="white"/>
<path d="M104.294 94.1679V96.2032C104.294 96.9342 103.942 97.2936 103.238 97.2936H101.948V99.6157H104.371C105.852 99.6157 106.584 98.8646 106.584 97.3623V94.0992C106.584 93.7398 106.734 93.3481 107.017 92.9886H104.719C104.436 93.3965 104.294 93.7761 104.294 94.1679Z" fill="white"/>
<path d="M106.601 90.6465C106.601 90.3234 106.662 90.0892 106.815 89.9236H104.885C104.728 90.0892 104.667 90.3234 104.667 90.6465V91.8095H106.601V90.6465Z" fill="white"/>
<path d="M110.529 92.5C109.182 92.8231 108.341 93.5217 107.981 94.6444C107.697 95.5006 107.657 96.3809 107.875 97.2734C108.11 98.1538 108.628 98.8242 109.417 99.2523C110.206 99.6803 111.262 99.7894 112.573 99.5955C112.532 100.084 112.447 100.431 112.338 100.67C112.034 101.292 111.44 101.994 110.513 102.814C113.414 102.814 114.879 101.352 114.879 98.4163V94.079C114.879 93.7196 115.02 93.3279 115.308 92.9644H115.004C113.374 92.3425 111.889 92.1769 110.533 92.5H110.529ZM112.14 97.5117C110.404 98.0852 109.202 95.9973 110.578 94.8585C111.035 94.4788 111.581 94.4667 112.099 94.701C112.88 95.0523 113.018 97.229 112.14 97.5117Z" fill="white"/>
<path d="M133.785 90.6949C133.785 90.3719 133.846 90.1417 134 89.964H132.066C131.908 90.1417 131.847 90.3719 131.847 90.6949V91.858H133.781V90.6949H133.785Z" fill="white"/>
<path d="M131.588 92.5C130.241 92.8231 129.399 93.5217 129.031 94.6444C128.756 95.5006 128.796 96.3809 129.165 97.2734H125.337C123.084 97.2734 122.368 95.9004 123.229 93.1785C119.535 94.3415 119.802 99.5915 124.516 99.5915H133.696C135.181 99.5915 135.901 98.8403 135.901 97.3421V94.075C135.901 93.7156 135.97 93.3239 136.115 92.9604H136.055C134.424 92.3385 132.939 92.1729 131.584 92.496L131.588 92.5ZM133.611 96.1831C133.611 96.914 133.267 97.2734 132.555 97.2734H131.568C130.884 96.2679 130.856 95.5208 131.499 95.0038C132.122 94.4869 132.838 94.4264 133.611 94.7898V96.1831Z" fill="white"/>
<path d="M138.219 94.1477C138.373 98.5052 138.284 100.064 137.984 100.67C137.681 101.292 137.086 101.994 136.156 102.814C139.057 102.814 140.521 101.352 140.521 98.4164V94.0791C140.521 93.7197 140.667 93.3279 140.95 92.9645H138.644C138.373 93.3764 138.219 93.756 138.219 94.1437V94.1477Z" fill="white"/>
<path d="M144.684 96.1831V89.4308C144.684 89.0391 144.539 88.6595 144.255 88.2516H141.961C142.237 88.611 142.394 89.0027 142.394 89.3622V97.3461C142.394 98.8484 143.127 99.6157 144.599 99.6157H147.031V97.2936H145.74C145.028 97.2936 144.684 96.914 144.684 96.1831Z" fill="white"/>
<path d="M156.365 95.6258L154.702 93.8933C153.735 92.8797 152.877 92.391 152.125 92.3628C151.372 92.3426 150.377 92.6858 149.398 93.756L147.739 95.5774L149.224 97.2937H147.035V99.6158H157.243V97.2937H154.9L156.365 95.6258ZM151.999 97.322L150.458 95.646L152.088 94.1235L153.525 95.751L152.003 97.3179L151.999 97.322Z" fill="white"/>
<path d="M166.002 96.6313V96.2719C166.002 95.2219 165.679 94.3456 165.007 93.6146C164.343 92.8635 163.55 92.4919 162.604 92.4919C161.657 92.4919 160.864 92.8635 160.225 93.5944C159.391 94.5112 159.286 95.5046 159.169 96.6354C159.169 97.0836 158.825 97.2977 158.113 97.2977H157.251V99.6198H158.396C159.148 99.6198 159.792 99.4219 160.31 99.014C160.953 99.6763 161.726 100.028 162.604 100.028C163.482 100.028 164.254 99.7046 164.898 99.0625C165.395 99.4219 166.022 99.6198 166.775 99.6198H167.908V97.2977H167.046C166.346 97.2977 166.002 97.0836 166.002 96.6354V96.6313ZM162.535 97.7742C161.851 97.7742 161.293 97.0796 161.293 96.1629C161.293 95.2461 161.851 94.5758 162.535 94.5758C163.219 94.5758 163.801 95.2785 163.801 96.1629C163.801 97.0473 163.247 97.7742 162.535 97.7742Z" fill="white"/>
<path d="M169.405 89.447V96.2033C169.405 96.9343 169.065 97.2937 168.349 97.2937H167.92V99.6158H169.49C170.975 99.6158 171.707 98.8646 171.707 97.3623V89.3784C171.707 89.019 171.857 88.6272 172.136 88.2678H169.83C169.554 88.6757 169.401 89.0594 169.401 89.447H169.405Z" fill="white"/>
<path d="M173.734 89.4308V97.023C173.734 97.2734 173.685 97.7944 173.609 98.5415C173.524 99.2926 173.305 100.064 172.965 100.88C175.009 100.88 176.032 99.4178 176.032 96.4859V89.3622C176.032 89.0027 176.19 88.611 176.461 88.2516H174.167C173.884 88.6635 173.738 89.0431 173.738 89.4308H173.734Z" fill="white"/>
<path d="M185.103 90.6666C185.103 90.3435 185.164 90.1093 185.317 89.9437H183.383C183.226 90.1093 183.169 90.3435 183.169 90.6666V91.8256H185.099V90.6666H185.103Z" fill="white"/>
<path d="M182.687 90.6949C182.687 90.3719 182.756 90.1296 182.902 89.964H180.968C180.818 90.1296 180.753 90.3719 180.753 90.6949V91.8459H182.687V90.6949Z" fill="white"/>
<path d="M190.27 101.837V103H192.203V101.837C192.203 101.514 192.268 101.28 192.418 101.114H190.484C190.338 101.28 190.27 101.514 190.27 101.837Z" fill="white"/>
<path d="M192.681 101.817V102.976H194.611V101.817C194.611 101.494 194.671 101.263 194.825 101.086H192.891C192.733 101.263 192.677 101.498 192.677 101.817H192.681Z" fill="white"/>
<path d="M211.312 90.6465C211.312 90.3234 211.373 90.0892 211.526 89.9236H209.592C209.435 90.0892 209.378 90.3234 209.378 90.6465V91.8095H211.312V90.6465Z" fill="white"/>
<path d="M211.276 96.2033L211.247 94.0992C211.247 93.7398 211.401 93.3481 211.672 92.9887H209.378C209.095 93.3965 208.949 93.7762 208.949 94.1679V96.2033C208.949 96.9342 208.61 97.2936 207.898 97.2936H205.737C205.033 97.2936 204.693 97.0796 204.693 96.6313V96.2719C204.693 95.2219 204.37 94.3456 203.694 93.6146C203.03 92.8635 202.241 92.4919 201.295 92.4919C200.348 92.4919 199.555 92.8635 198.912 93.5944C198.082 94.5112 197.973 95.5046 197.856 96.6354C197.856 97.0836 197.516 97.2977 196.804 97.2977H194.68C193.964 97.2977 193.603 96.9382 193.603 96.2073L193.575 94.1033C193.575 93.7439 193.729 93.3521 194.004 92.9927H191.71C191.427 93.4006 191.281 93.7802 191.281 94.1719V96.2073C191.281 96.9382 190.937 97.2977 190.225 97.2977H187.85C187.146 97.2977 186.794 96.9382 186.794 96.2073V94.1719C186.948 93.7842 187.077 93.4006 187.223 92.9927H184.949C184.46 92.6696 183.873 92.496 183.25 92.496C181.211 92.496 179.811 94.3981 179.811 96.2113C179.811 97.0877 180.135 97.859 180.758 98.5698C181.385 99.2523 182.222 99.6036 183.246 99.6036C184.047 99.6036 184.731 99.4986 185.317 99.2805C185.661 99.5148 186.127 99.6238 186.713 99.6238H191.362C191.937 99.6238 192.386 99.5148 192.754 99.2805C193.114 99.5148 193.567 99.6238 194.154 99.6238H197.083C197.835 99.6238 198.479 99.4259 198.997 99.018C199.64 99.6803 200.413 100.032 201.291 100.032C202.169 100.032 202.941 99.7086 203.585 99.0665C204.082 99.4259 204.705 99.6238 205.458 99.6238H209.034C209.613 99.6238 210.058 99.5148 210.43 99.2805C210.79 99.5148 211.239 99.6238 211.826 99.6238H213.602V97.3017H212.344C211.632 97.3017 211.268 96.9423 211.268 96.2113L211.276 96.2033ZM183.23 97.3461C182.603 97.3461 182.085 97.0231 181.988 96.1669C181.891 95.2906 182.546 94.5798 183.23 94.5798C183.914 94.5798 184.496 95.2825 184.496 96.1669C184.496 97.0513 183.938 97.3461 183.23 97.3461ZM201.222 97.7742C200.538 97.7742 199.984 97.0796 199.984 96.1629C199.984 95.2461 200.538 94.5758 201.222 94.5758C201.906 94.5758 202.492 95.2785 202.492 96.1629C202.492 97.0473 201.934 97.7742 201.222 97.7742Z" fill="white"/>
<path d="M219.505 90.6666C219.505 90.3435 219.569 90.1093 219.719 89.9437H217.785C217.64 90.1093 217.571 90.3435 217.571 90.6666V91.8256H219.505V90.6666Z" fill="white"/>
<path d="M217.102 90.6949C217.102 90.3719 217.171 90.1296 217.316 89.964H215.386C215.237 90.1296 215.172 90.3719 215.172 90.6949V91.8459H217.102V90.6949Z" fill="white"/>
<path d="M222.539 88.2678C222.268 88.6757 222.115 89.0594 222.115 89.447V96.2033C222.115 96.9343 221.771 97.2937 221.059 97.2937H219.363C218.651 97.2937 218.287 96.9343 218.287 96.2033L218.259 94.0993C218.259 93.7399 218.413 93.3482 218.684 92.9887H216.39C216.111 93.3966 215.961 93.7762 215.961 94.168V96.2033C215.961 96.9343 215.617 97.2937 214.905 97.2937H213.614V99.6158H216.046C216.624 99.6158 217.073 99.5068 217.446 99.2725C217.806 99.5068 218.255 99.6158 218.842 99.6158H222.2C223.684 99.6158 224.417 98.8646 224.417 97.3623V89.3784C224.417 89.019 224.562 88.6272 224.842 88.2678H222.535H222.539Z" fill="white"/>
<path d="M19.8245 73.4347H36.8293C39.5603 73.4347 40.8671 72.0536 40.8671 69.255V61.4568C40.8671 59.9666 41.4659 58.5128 42.5097 56.9459H51.3338C50.2495 58.327 49.6871 59.8172 49.6871 61.1983V72.0536C49.6871 78.8422 46.8874 82.3112 41.2029 82.3112H16.6849C-1.36378 82.3112 -2.37525 62.2039 11.7489 57.7657C8.46366 68.1727 11.1906 73.4347 19.8245 73.4347ZM27.633 45.3798C27.0747 46.0139 26.8117 46.9467 26.8117 48.1784V52.5803H19.4118V48.1784C19.4118 46.9467 19.6748 46.0139 20.2372 45.3798H27.6371H27.633ZM36.8293 45.3071C36.271 45.9412 36.008 46.8377 36.008 48.0694V52.5076H28.604V48.0694C28.604 46.8377 28.867 45.9412 29.4294 45.3071H36.8293Z" fill="white"/>
<path d="M83.8424 75.3812C79.2665 70.4745 76.2321 79.1814 82.5598 79.1814H85.8087L87.4958 83.3208H71.1909L72.9873 79.1814H75.5119C71.0453 72.207 81.8559 66.2099 85.9584 73.0389L83.8464 75.3852L83.8424 75.3812Z" fill="white"/>
<path d="M141.913 73.362C140.493 69.9293 140.343 66.5734 141.391 63.2902C142.807 58.9973 146.024 56.3118 151.182 55.08C156.377 53.8483 162.057 54.4824 168.3 56.8691H168.523C167.964 58.2502 167.705 59.7444 167.705 61.1215V73.6205C167.705 79.3671 164.938 82.2344 159.258 82.2344H124.127C106.075 82.2344 105.071 62.1311 119.195 57.6889C115.906 68.0959 118.637 73.358 127.271 73.358H141.921L141.913 73.362ZM158.918 63.8475C155.964 62.4663 153.237 62.6925 150.846 64.6673C148.378 66.6461 148.492 69.5174 151.109 73.362H154.884C157.615 73.362 158.922 71.9809 158.922 69.1822V63.8475H158.918ZM160.411 45.3838C159.816 46.0542 159.585 46.9507 159.585 48.1824V52.6206H152.185V48.1824C152.185 46.9507 152.408 46.0542 153.007 45.3838H160.407H160.411Z" fill="white"/>
<path d="M189.545 82.3152C172.128 82.3152 169.923 62.7692 184.609 57.6202C181.842 65.3417 182.704 73.2853 192.681 73.2853H209.69C212.417 73.2853 213.873 71.3105 214.213 67.4659L214.063 43.405C214.063 41.9148 214.622 40.4569 215.706 38.89H224.635C223.591 40.2712 222.993 41.7613 222.993 43.1425V66.1978C222.993 79.141 222.543 81.3419 214.622 82.3111H189.545V82.3152ZM203.597 53.2547C202.698 52.3985 201.877 51.9503 201.092 51.9503C199.785 51.9503 198.964 52.8468 198.964 53.9655C198.964 56.0533 200.348 57.2123 202.553 57.2123H205.316L206.886 60.5683H192.159L193.802 57.2123H196.043C195.485 55.9806 195.222 54.862 195.222 53.816C195.222 50.9043 197.69 48.5176 200.489 48.5176C202.209 48.5176 204.078 49.3738 205.498 51.2759L203.593 53.2506L203.597 53.2547Z" fill="white"/>
<path d="M96.5019 19.8812C97.1169 23.2775 97.2059 27.2432 95.5431 30.5184C93.9692 33.6038 90.9227 35.7845 86.4601 37.0082C85.4405 34.1691 84.9429 31.0676 85.9867 29.105C87.1034 27.009 89.6968 25.1069 92.2052 23.2735C93.686 22.1912 95.187 21.0927 96.5019 19.8812ZM97.0886 10.8149C97.1533 11.4732 97.1938 12.0911 97.2342 12.709C97.2342 12.7413 97.2342 12.7695 97.2383 12.8059C96.2551 18.5647 86.2861 21.5693 83.0858 27.5623C80.6825 32.0732 83.4297 38.5993 84.5019 40.8245C84.514 40.8164 84.5221 40.8083 84.5302 40.7922C109.57 36.3297 97.0845 10.8149 97.0845 10.8149H97.0886Z" fill="white"/>
<path d="M65.3569 12.9512C67.7601 14.7766 69.8761 17.1067 70.0703 19.3238C70.2767 21.6903 69.1398 24.6909 68.0352 27.5945C67.3879 29.3108 66.7284 31.0433 66.2874 32.7799C63.9165 30.2639 61.6751 26.9888 61.2827 23.338C60.9145 19.8932 62.2861 16.4121 65.3569 12.9593M64.9118 8.69873C64.9118 8.69873 64.9037 8.72296 64.9037 8.73508C46.3453 26.1003 70.746 40.6992 70.746 40.6992C70.3333 40.1823 69.9611 39.6896 69.5848 39.1888C69.5646 39.1646 69.5484 39.1404 69.5322 39.1121C67.2139 33.7491 73.926 25.8095 73.3394 19.0452C72.8903 13.9568 67.0278 9.97891 64.9078 8.69873H64.9118Z" fill="white"/>
<path d="M81.0628 3.2792C85.1653 3.2792 88.4749 5.41957 91.1168 9.80529C89.2274 11.0976 87.0588 12.1395 85.2624 12.1395C84.959 12.1395 84.6717 12.1112 84.4047 12.0507C82.2806 11.5701 79.9381 9.71645 77.6764 7.92339C76.4991 6.99455 75.3055 6.04956 74.0756 5.2338L75.1437 4.519C77.0008 3.79208 79.0358 3.2792 81.0628 3.2792ZM81.0628 0C72.7688 0 65.0654 6.76436 65.0654 6.76436C65.648 6.54629 66.1942 6.35648 66.7445 6.16667C66.7768 6.1586 66.8011 6.15052 66.8335 6.1384C67.0034 6.12225 67.1733 6.11417 67.3433 6.11417C72.611 6.11417 77.6643 13.8881 83.6846 15.2491C84.2065 15.3662 84.7365 15.4227 85.2665 15.4227C89.4863 15.4227 93.7831 12.0426 95.3326 10.6937C95.3245 10.6857 95.3124 10.6816 95.3003 10.6736C91.4203 2.52805 86.1283 0 81.0628 0Z" fill="white"/>
</g>
<defs>
<linearGradient id="paint0_linear_838_14194" x1="0" y1="51.5" x2="224" y2="51.5" gradientUnits="userSpaceOnUse">
</linearGradient>
<clipPath id="clip0_838_14194">
<rect width="224" height="103" fill="white" transform="translate(0.841309)"/>
</clipPath>
</defs>
</svg>
