<svg width="280" height="129" viewBox="0 0 280 129" fill="none" xmlns="http://www.w3.org/2000/svg">
<g clip-path="url(#clip0_1190_41122)">
<rect width="280" height="129" fill="url(#paint0_linear_1190_41122)"/>
<path d="M118.687 75.215C118.687 60.1174 128.974 47.4475 142.912 43.7503C141.819 43.6339 140.707 43.5732 139.584 43.5732C122.106 43.5732 107.945 57.7453 107.945 75.215C107.945 92.6848 122.111 106.857 139.584 106.857C140.707 106.857 141.814 106.796 142.912 106.685C128.974 102.983 118.687 90.3177 118.687 75.215Z" fill="white"/>
<path d="M80.6884 75.215C80.6884 60.1174 70.4068 47.4475 56.4688 43.7503C57.5611 43.6339 58.6687 43.5732 59.7914 43.5732C77.2696 43.5732 91.4302 57.7453 91.4302 75.215C91.4302 92.6848 77.2646 106.857 59.7914 106.857C58.6687 106.857 57.5611 106.796 56.4688 106.685C70.4068 102.983 80.6884 90.3177 80.6884 75.215Z" fill="white"/>
<path d="M12.6783 117.939V120.488C12.6783 121.403 12.2485 121.853 11.3584 121.853H5.8054C2.9834 121.853 2.09331 120.134 3.17052 116.725C-1.44683 118.181 -1.11305 124.757 4.77876 124.757H12.7845C14.6406 124.757 15.556 123.618 15.556 121.398V117.848C15.556 117.397 15.733 116.907 16.087 116.457H13.2043C12.8655 116.967 12.6733 117.443 12.6733 117.933L12.6783 117.939Z" fill="white"/>
<path d="M8.08814 113.589C8.08814 113.184 8.17411 112.881 8.35617 112.673H5.94382C5.76176 112.881 5.67578 113.184 5.67578 113.589V115.03H8.09319V113.589H8.08814Z" fill="white"/>
<path d="M11.092 113.553C11.092 113.149 11.178 112.855 11.3651 112.648H8.94773C8.76566 112.855 8.67969 113.149 8.67969 113.553V115.005H11.092V113.553Z" fill="white"/>
<path d="M18.1054 112.006V121.514C18.1054 121.828 18.0447 122.48 17.9486 123.416C17.8374 124.357 17.5693 125.323 17.1445 126.345C19.6985 126.345 20.978 124.514 20.978 120.842V111.92C20.978 111.47 21.1752 110.979 21.5141 110.529H18.6466C18.2925 111.045 18.1105 111.52 18.1105 112.006H18.1054Z" fill="white"/>
<path d="M24.1172 117.913C24.3144 123.371 24.2031 125.323 23.8238 126.082C23.4496 126.861 22.7011 127.741 21.543 128.767C25.1691 128.767 26.9998 126.936 26.9998 123.259V117.827C26.9998 117.377 27.187 116.887 27.5359 116.431H24.6532C24.3093 116.947 24.1172 117.423 24.1172 117.908V117.913Z" fill="white"/>
<path d="M32.2055 120.462V112.006C32.2055 111.515 32.0235 111.04 31.6644 110.529H28.7969C29.1408 110.979 29.338 111.47 29.338 111.92V121.919C29.338 123.801 30.2534 124.762 32.0943 124.762H35.1337V121.853H33.5255C32.6354 121.853 32.2055 121.378 32.2055 120.462Z" fill="white"/>
<path d="M40.3789 115.091L39.9288 117.509H39.7315C37.3141 117.509 35.9588 119.653 36.7275 121.868H35.1445V124.762H50.6402V121.853H48.592C47.7576 117.62 45.1834 115.324 40.3738 115.091H40.3789ZM39.6607 121.868C39.0387 121.868 38.5582 121.13 38.5582 120.523C38.5582 119.876 39.0387 119.41 39.6607 119.41C40.2828 119.41 40.7632 119.815 40.7632 120.66C40.7632 121.428 40.2727 121.868 39.6607 121.868ZM42.7457 121.868C43.1756 120.741 42.9784 119.193 42.0175 118.449C41.6736 118.111 41.7848 118.025 42.3715 118.181C43.7268 118.546 45.5323 120.194 45.4109 121.868H42.7457Z" fill="white"/>
<path d="M61.5992 121.024V120.574C61.5992 119.259 61.1946 118.161 60.35 117.246C59.5206 116.305 58.5294 115.84 57.351 115.84C56.1727 115.84 55.1764 116.305 54.3723 117.22C53.3355 118.368 53.204 119.613 53.0523 121.029C53.0523 121.59 52.6224 121.858 51.7323 121.858H50.6602V124.767H52.0863C53.027 124.767 53.8311 124.519 54.4785 124.008C55.2826 124.837 56.2485 125.277 57.346 125.277C58.4434 125.277 59.4094 124.873 60.2135 124.069C60.8355 124.519 61.6144 124.767 62.555 124.767H63.9711V121.858H62.8989C62.019 121.858 61.5941 121.59 61.5941 121.029L61.5992 121.024ZM57.2651 122.455C56.4104 122.455 55.7175 121.585 55.7175 120.437C55.7175 119.289 56.4104 118.449 57.2651 118.449C58.1197 118.449 58.8531 119.329 58.8531 120.437C58.8531 121.545 58.1602 122.455 57.2651 122.455Z" fill="white"/>
<path d="M65.8521 112.026V120.488C65.8521 121.403 65.4223 121.853 64.5322 121.853H63.9961V124.762H65.9634C67.8194 124.762 68.7348 123.821 68.7348 121.939V111.94C68.7348 111.49 68.9118 110.999 69.2659 110.549H66.3832C66.0443 111.06 65.8471 111.54 65.8471 112.026H65.8521Z" fill="white"/>
<path d="M71.2667 112.006V121.514C71.2667 121.828 71.2061 122.48 71.1049 123.416C70.9936 124.357 70.7256 125.323 70.3008 126.345C72.8497 126.345 74.1343 124.514 74.1343 120.842V111.92C74.1343 111.47 74.3315 110.979 74.6703 110.529H71.8028C71.4488 111.045 71.2667 111.52 71.2667 112.006Z" fill="white"/>
<path d="M84.2505 120.538L84.2253 117.853C84.2253 117.402 84.4073 116.912 84.7664 116.462H81.8938C81.5398 116.973 81.3577 117.448 81.3577 117.939C81.5449 123.396 81.4336 125.348 81.0543 126.107C80.6902 126.891 79.9316 127.766 78.7734 128.793C82.1669 128.793 83.9623 127.205 84.205 124.033C84.817 124.61 85.3176 124.767 85.7526 124.767H87.3153V121.858H85.702C84.8119 121.858 84.3365 121.428 84.2505 120.538Z" fill="white"/>
<path d="M90.2524 117.939V120.488C90.2524 121.403 89.8124 121.853 88.9375 121.853H87.3242V124.762H90.3485C92.2046 124.762 93.1199 123.821 93.1199 121.939V117.853C93.1199 117.402 93.302 116.912 93.656 116.462H90.7834C90.4294 116.973 90.2474 117.448 90.2474 117.939H90.2524Z" fill="white"/>
<path d="M90.6562 127.498V128.949H93.0686V127.498C93.0686 127.093 93.1445 126.8 93.3417 126.582H90.9243C90.7271 126.8 90.6562 127.093 90.6562 127.498Z" fill="white"/>
<path d="M87.6445 127.518V128.97H90.0619V127.518C90.0619 127.113 90.1479 126.825 90.33 126.618H87.9126C87.7356 126.825 87.6445 127.119 87.6445 127.518Z" fill="white"/>
<path d="M104.589 117.802C104.589 117.352 104.782 116.866 105.125 116.411H104.761C102.708 115.627 100.867 115.425 99.1679 115.824C97.4737 116.229 96.4319 117.109 95.9717 118.51C95.6278 119.587 95.5671 120.68 95.8351 121.808C96.1284 122.905 96.7758 123.745 97.7771 124.281C98.7633 124.817 100.083 124.954 101.722 124.711C101.671 125.323 101.56 125.763 101.429 126.051C101.049 126.835 100.291 127.71 99.1477 128.737C102.238 128.737 104.008 127.417 104.458 124.757H107.143V121.848H104.589V117.792V117.802ZM101.16 122.126C98.9909 122.845 97.4889 120.23 99.2084 118.803C99.7798 118.328 100.468 118.313 101.11 118.606C102.086 119.046 102.258 121.772 101.16 122.126Z" fill="white"/>
<path d="M112.687 119.147V111.894C112.687 111.444 112.884 110.954 113.228 110.504H110.36C110.006 111.014 109.824 111.49 109.824 111.98V120.442C109.824 121.115 109.738 121.59 109.602 121.858H107.164V124.767H126.362V121.858H123.833C121.244 115.683 116.631 114.135 112.687 119.147ZM113.531 121.858C114.922 119.684 116.131 118.793 117.253 118.793C118.573 118.793 119.757 120.038 120.915 121.858H113.531Z" fill="white"/>
<path d="M129.183 113.569C129.183 113.164 129.269 112.855 129.451 112.653H127.034C126.847 112.861 126.766 113.169 126.766 113.569V115.005H129.178V113.569H129.183Z" fill="white"/>
<path d="M129.316 117.939V120.488C129.316 121.403 128.876 121.853 127.996 121.853H126.383V124.762H129.412C131.263 124.762 132.179 123.821 132.179 121.939V117.853C132.179 117.402 132.366 116.912 132.72 116.462H129.847C129.493 116.973 129.316 117.448 129.316 117.939Z" fill="white"/>
<path d="M132.199 113.528C132.199 113.123 132.275 112.83 132.467 112.623H130.054C129.857 112.83 129.781 113.123 129.781 113.528V114.985H132.199V113.528Z" fill="white"/>
<path d="M137.109 115.85C135.425 116.254 134.373 117.129 133.923 118.535C133.569 119.608 133.518 120.71 133.792 121.828C134.085 122.931 134.732 123.77 135.718 124.306C136.705 124.842 138.025 124.979 139.663 124.736C139.613 125.348 139.506 125.783 139.37 126.082C138.991 126.861 138.247 127.741 137.089 128.767C140.715 128.767 142.546 126.936 142.546 123.259V117.827C142.546 117.377 142.723 116.887 143.082 116.431H142.703C140.665 115.652 138.808 115.445 137.114 115.85H137.109ZM139.122 122.126C136.952 122.845 135.45 120.23 137.17 118.803C137.741 118.328 138.424 118.313 139.071 118.606C140.047 119.046 140.219 121.772 139.122 122.126Z" fill="white"/>
<path d="M166.18 113.589C166.18 113.184 166.256 112.896 166.448 112.673H164.031C163.834 112.896 163.758 113.184 163.758 113.589V115.045H166.175V113.589H166.18Z" fill="white"/>
<path d="M163.432 115.85C161.747 116.254 160.695 117.129 160.235 118.535C159.891 119.608 159.942 120.71 160.402 121.828H155.618C152.801 121.828 151.906 120.108 152.983 116.699C148.366 118.156 148.699 124.731 154.591 124.731H166.066C167.922 124.731 168.823 123.79 168.823 121.914V117.822C168.823 117.372 168.909 116.881 169.091 116.426H169.015C166.977 115.647 165.121 115.44 163.426 115.845L163.432 115.85ZM165.96 120.462C165.96 121.378 165.53 121.828 164.64 121.828H163.406C162.552 120.569 162.516 119.633 163.32 118.985C164.099 118.338 164.994 118.262 165.96 118.717V120.462Z" fill="white"/>
<path d="M171.72 117.913C171.912 123.371 171.801 125.323 171.427 126.082C171.047 126.861 170.304 127.741 169.141 128.767C172.767 128.767 174.597 126.936 174.597 123.259V117.827C174.597 117.377 174.78 116.887 175.134 116.431H172.251C171.912 116.947 171.72 117.423 171.72 117.908V117.913Z" fill="white"/>
<path d="M179.802 120.462V112.006C179.802 111.515 179.62 111.04 179.266 110.529H176.398C176.742 110.979 176.94 111.47 176.94 111.92V121.919C176.94 123.801 177.855 124.762 179.696 124.762H182.735V121.853H181.122C180.232 121.853 179.802 121.378 179.802 120.462Z" fill="white"/>
<path d="M194.404 119.764L192.326 117.595C191.117 116.325 190.045 115.713 189.104 115.678C188.164 115.652 186.92 116.082 185.696 117.423L183.622 119.704L185.478 121.853H182.742V124.762H195.502V121.853H192.574L194.404 119.764ZM188.948 121.889L187.021 119.79L189.059 117.883L190.854 119.921L188.953 121.884L188.948 121.889Z" fill="white"/>
<path d="M206.451 121.024V120.574C206.451 119.259 206.046 118.161 205.207 117.246C204.377 116.305 203.386 115.84 202.203 115.84C201.019 115.84 200.028 116.305 199.229 117.22C198.187 118.368 198.056 119.613 197.909 121.029C197.909 121.59 197.479 121.858 196.589 121.858H195.512V124.767H196.943C197.884 124.767 198.688 124.519 199.335 124.008C200.139 124.837 201.105 125.277 202.203 125.277C203.3 125.277 204.266 124.873 205.07 124.069C205.692 124.519 206.476 124.767 207.417 124.767H208.833V121.858H207.756C206.881 121.858 206.451 121.59 206.451 121.029V121.024ZM202.117 122.455C201.262 122.455 200.564 121.585 200.564 120.437C200.564 119.289 201.262 118.449 202.117 118.449C202.971 118.449 203.7 119.329 203.7 120.437C203.7 121.545 203.007 122.455 202.117 122.455Z" fill="white"/>
<path d="M210.704 112.026V120.488C210.704 121.403 210.279 121.853 209.384 121.853H208.848V124.762H210.81C212.666 124.762 213.581 123.821 213.581 121.939V111.94C213.581 111.49 213.768 110.999 214.117 110.549H211.235C210.891 111.06 210.699 111.54 210.699 112.026H210.704Z" fill="white"/>
<path d="M216.113 112.006V121.514C216.113 121.828 216.053 122.48 215.956 123.416C215.85 124.357 215.577 125.323 215.152 126.345C217.706 126.345 218.986 124.514 218.986 120.842V111.92C218.986 111.47 219.183 110.979 219.522 110.529H216.654C216.3 111.045 216.118 111.52 216.118 112.006H216.113Z" fill="white"/>
<path d="M230.328 113.553C230.328 113.149 230.403 112.855 230.596 112.648H228.178C227.981 112.855 227.91 113.149 227.91 113.553V115.005H230.323V113.553H230.328Z" fill="white"/>
<path d="M227.308 113.589C227.308 113.184 227.394 112.881 227.576 112.673H225.159C224.972 112.881 224.891 113.184 224.891 113.589V115.03H227.308V113.589Z" fill="white"/>
<path d="M236.785 127.543V129H239.203V127.543C239.203 127.139 239.283 126.845 239.471 126.638H237.053C236.871 126.845 236.785 127.139 236.785 127.543Z" fill="white"/>
<path d="M239.798 127.518V128.97H242.21V127.518C242.21 127.113 242.286 126.825 242.478 126.603H240.061C239.864 126.825 239.793 127.118 239.793 127.518H239.798Z" fill="white"/>
<path d="M263.089 113.528C263.089 113.123 263.165 112.83 263.357 112.623H260.94C260.743 112.83 260.672 113.123 260.672 113.528V114.985H263.089V113.528Z" fill="white"/>
<path d="M263.042 120.488L263.007 117.853C263.007 117.402 263.199 116.912 263.538 116.462H260.67C260.316 116.972 260.134 117.448 260.134 117.939V120.488C260.134 121.403 259.709 121.853 258.819 121.853H256.118C255.238 121.853 254.814 121.585 254.814 121.024V120.574C254.814 119.259 254.409 118.161 253.564 117.246C252.735 116.305 251.749 115.84 250.565 115.84C249.382 115.84 248.391 116.305 247.587 117.22C246.55 118.368 246.413 119.613 246.267 121.029C246.267 121.59 245.842 121.858 244.952 121.858H242.297C241.402 121.858 240.951 121.408 240.951 120.493L240.916 117.858C240.916 117.407 241.108 116.917 241.452 116.467H238.585C238.231 116.978 238.049 117.453 238.049 117.944V120.493C238.049 121.408 237.619 121.858 236.729 121.858H233.76C232.88 121.858 232.44 121.408 232.44 120.493V117.944C232.632 117.458 232.794 116.978 232.976 116.467H230.134C229.522 116.062 228.789 115.845 228.01 115.845C225.461 115.845 223.711 118.227 223.711 120.498C223.711 121.595 224.116 122.561 224.894 123.452C225.678 124.306 226.725 124.746 228.005 124.746C229.006 124.746 229.861 124.615 230.594 124.342C231.024 124.635 231.605 124.772 232.339 124.772H238.15C238.868 124.772 239.429 124.635 239.889 124.342C240.339 124.635 240.906 124.772 241.639 124.772H245.301C246.241 124.772 247.046 124.524 247.693 124.013C248.497 124.842 249.463 125.283 250.56 125.283C251.658 125.283 252.624 124.878 253.428 124.074C254.05 124.524 254.829 124.772 255.769 124.772H260.24C260.963 124.772 261.52 124.635 261.985 124.342C262.435 124.635 262.996 124.772 263.73 124.772H265.95V121.863H264.377C263.487 121.863 263.032 121.413 263.032 120.498L263.042 120.488ZM227.984 121.919C227.2 121.919 226.553 121.514 226.432 120.442C226.31 119.345 227.13 118.454 227.984 118.454C228.839 118.454 229.567 119.335 229.567 120.442C229.567 121.55 228.869 121.919 227.984 121.919ZM250.474 122.455C249.62 122.455 248.927 121.585 248.927 120.437C248.927 119.289 249.62 118.449 250.474 118.449C251.329 118.449 252.062 119.329 252.062 120.437C252.062 121.545 251.365 122.455 250.474 122.455Z" fill="white"/>
<path d="M273.328 113.553C273.328 113.149 273.408 112.855 273.596 112.648H271.178C270.996 112.855 270.91 113.149 270.91 113.553V115.005H273.328V113.553Z" fill="white"/>
<path d="M270.326 113.589C270.326 113.184 270.412 112.881 270.594 112.673H268.182C267.995 112.881 267.914 113.184 267.914 113.589V115.03H270.326V113.589Z" fill="white"/>
<path d="M277.121 110.549C276.783 111.06 276.59 111.54 276.59 112.026V120.488C276.59 121.403 276.16 121.853 275.27 121.853H273.151C272.261 121.853 271.806 121.403 271.806 120.488L271.771 117.853C271.771 117.402 271.963 116.912 272.302 116.462H269.434C269.085 116.973 268.898 117.448 268.898 117.939V120.488C268.898 121.403 268.468 121.853 267.578 121.853H265.965V124.762H269.004C269.727 124.762 270.289 124.625 270.754 124.332C271.204 124.625 271.766 124.762 272.499 124.762H276.697C278.553 124.762 279.468 123.821 279.468 121.939V111.94C279.468 111.49 279.65 110.999 279.999 110.549H277.116H277.121Z" fill="white"/>
<path d="M23.7274 91.9716H44.9834C48.3971 91.9716 50.0306 90.2419 50.0306 86.7368V76.9701C50.0306 75.1038 50.7791 73.2829 52.0839 71.3205H63.114C61.7586 73.0503 61.0557 74.9166 61.0557 76.6464V90.2419C61.0557 98.7441 57.556 103.089 50.4504 103.089H19.8029C-2.75795 103.089 -4.02228 77.9058 13.6329 72.3472C9.52635 85.3813 12.935 91.9716 23.7274 91.9716ZM33.4881 56.8349C32.7901 57.629 32.4614 58.7973 32.4614 60.34V65.853H23.2115V60.34C23.2115 58.7973 23.5403 57.629 24.2432 56.8349H33.4931H33.4881ZM44.9834 56.7438C44.2855 57.5379 43.9568 58.6608 43.9568 60.2034V65.7619H34.7018V60.2034C34.7018 58.6608 35.0306 57.5379 35.7335 56.7438H44.9834Z" fill="white"/>
<path d="M103.752 94.4095C98.032 88.2642 94.2389 99.1689 102.149 99.1689H106.21L108.319 104.353H87.9375L90.183 99.1689H93.3387C87.7554 90.434 101.269 82.9231 106.397 91.4759L103.757 94.4145L103.752 94.4095Z" fill="white"/>
<path d="M176.338 91.8806C174.563 87.5814 174.376 83.3783 175.686 79.2663C177.456 73.8899 181.477 70.5264 187.925 68.9838C194.418 67.4411 201.519 68.2352 209.322 71.2244H209.601C208.903 72.9542 208.579 74.8256 208.579 76.5503V92.2043C208.579 99.4016 205.12 102.993 198.019 102.993H154.106C131.541 102.993 130.286 77.8147 147.941 72.2511C143.83 85.2852 147.244 91.8755 158.036 91.8755H176.349L176.338 91.8806ZM197.595 79.9643C193.903 78.2345 190.494 78.5178 187.505 80.9911C184.42 83.4694 184.562 87.0655 187.834 91.8806H192.552C195.966 91.8806 197.6 90.1508 197.6 86.6457V79.9643H197.595ZM199.461 56.8399C198.717 57.6795 198.429 58.8023 198.429 60.345V65.9035H189.179V60.345C189.179 58.8023 189.457 57.6795 190.206 56.8399H199.456H199.461Z" fill="white"/>
<path d="M235.878 103.094C214.106 103.094 211.35 78.6139 229.708 72.1651C226.249 81.8357 227.326 91.7845 239.798 91.7845H261.059C264.467 91.7845 266.288 89.3112 266.713 84.4961L266.526 54.3616C266.526 52.4952 267.224 50.6693 268.579 48.7069H279.741C278.436 50.4367 277.687 52.303 277.687 54.0328V82.908C277.687 99.1183 277.126 101.875 267.224 103.089H235.878V103.094ZM253.442 66.6976C252.32 65.6254 251.293 65.0639 250.312 65.0639C248.678 65.0639 247.652 66.1868 247.652 67.5878C247.652 70.2027 249.381 71.6543 252.137 71.6543H255.592L257.554 75.8573H239.145L241.198 71.6543H244C243.302 70.1117 242.974 68.7106 242.974 67.4007C242.974 63.754 246.059 60.7648 249.558 60.7648C251.708 60.7648 254.044 61.837 255.819 64.2193L253.437 66.6926L253.442 66.6976Z" fill="white"/>
<path d="M119.577 24.8998C120.346 29.1535 120.457 34.1202 118.378 38.2221C116.411 42.0863 112.603 44.8176 107.025 46.3501C105.75 42.7944 105.128 38.91 106.433 36.4519C107.829 33.8269 111.07 31.4447 114.206 29.1484C116.057 27.7929 117.933 26.4172 119.577 24.8998ZM120.31 13.545C120.391 14.3694 120.442 15.1433 120.492 15.9171C120.492 15.9576 120.492 15.993 120.497 16.0385C119.268 23.251 106.807 27.014 102.807 34.5198C99.8026 40.1694 103.237 48.3429 104.577 51.1297C104.592 51.1196 104.602 51.1095 104.612 51.0893C135.912 45.5004 120.305 13.545 120.305 13.545H120.31Z" fill="white"/>
<path d="M80.6441 16.2204C83.6482 18.5065 86.2931 21.4249 86.5359 24.2016C86.7938 27.1655 85.3727 30.9235 83.9921 34.5601C83.1829 36.7096 82.3585 38.8795 81.8073 41.0543C78.8437 37.9033 76.0419 33.8014 75.5513 29.2291C75.0911 24.9148 76.8056 20.5549 80.6441 16.2305M80.0878 10.8945C80.0878 10.8945 80.0777 10.9248 80.0777 10.94C56.8796 32.6887 87.3805 50.9727 87.3805 50.9727C86.8646 50.3253 86.3993 49.7083 85.929 49.0811C85.9037 49.0508 85.8835 49.0204 85.8633 48.985C82.9654 42.2682 91.3555 32.3245 90.6222 23.8526C90.0609 17.4798 82.7328 12.4978 80.0827 10.8945H80.0878Z" fill="white"/>
<path d="M100.278 4.10696C105.406 4.10696 109.543 6.78761 112.846 12.2804C110.484 13.8989 107.773 15.2038 105.528 15.2038C105.148 15.2038 104.789 15.1684 104.455 15.0926C101.8 14.4907 98.8721 12.1691 96.045 9.92347C94.5733 8.76017 93.0814 7.57663 91.544 6.55495L92.8791 5.65971C95.2004 4.7493 97.7443 4.10696 100.278 4.10696ZM100.278 0C89.9104 0 80.2812 8.47187 80.2812 8.47187C81.0095 8.19875 81.6922 7.96103 82.38 7.72331C82.4205 7.71319 82.4508 7.70308 82.4913 7.6879C82.7037 7.66767 82.9161 7.65756 83.1285 7.65756C89.7132 7.65756 96.0298 17.3939 103.555 19.0984C104.208 19.2451 104.87 19.3159 105.533 19.3159C110.807 19.3159 116.178 15.0825 118.115 13.3931C118.105 13.383 118.09 13.378 118.075 13.3679C113.225 3.1662 106.61 0 100.278 0Z" fill="white"/>
</g>
<defs>
<linearGradient id="paint0_linear_1190_41122" x1="0" y1="64.5" x2="280" y2="64.5" gradientUnits="userSpaceOnUse">
</linearGradient>
<clipPath id="clip0_1190_41122">
<rect width="280" height="129" fill="white"/>
</clipPath>
</defs>
</svg>
