<svg width="22" height="30" viewBox="0 0 22 30" fill="none" xmlns="http://www.w3.org/2000/svg">
<path d="M11 23V16M11 16C11.6906 16 12.3608 15.9126 13 15.748M11 16C10.3094 16 9.63924 15.9126 9 15.748M14 25.7192C13.0283 25.9036 12.0254 26 11 26C9.97461 26 8.97175 25.9036 8 25.7192M13 28.896C12.3427 28.9648 11.6755 29 11 29C10.3245 29 9.65727 28.9648 9 28.896M14 23V22.7444C14 21.4339 14.8777 20.3134 16.0113 19.6557C18.9941 17.925 21 14.6968 21 11C21 5.47715 16.5228 1 11 1C5.47715 1 1 5.47715 1 11C1 14.6968 3.00594 17.925 5.98873 19.6557C7.1223 20.3134 8 21.4339 8 22.7444V23" stroke="#005183" stroke-width="1.5" stroke-linecap="round" stroke-linejoin="round"/>
</svg>
