<svg width="49" height="48" viewBox="0 0 49 48" fill="none" xmlns="http://www.w3.org/2000/svg">
<path d="M24.5 36V25.5M24.5 25.5C25.5359 25.5 26.5411 25.3689 27.5 25.1221M24.5 25.5C23.4641 25.5 22.4589 25.3689 21.5 25.1221M29 40.0789C27.5424 40.3554 26.0381 40.5 24.5 40.5C22.9619 40.5 21.4576 40.3554 20 40.0789M27.5 44.844C26.5141 44.9471 25.5132 45 24.5 45C23.4868 45 22.4859 44.9471 21.5 44.844M29 36V35.6167C29 33.6508 30.3165 31.97 32.0169 30.9835C36.4911 28.3875 39.5 23.5451 39.5 18C39.5 9.71573 32.7843 3 24.5 3C16.2157 3 9.5 9.71573 9.5 18C9.5 23.5451 12.5089 28.3875 16.9831 30.9835C18.6835 31.97 20 33.6508 20 35.6167V36" stroke="#A18131" stroke-width="1.5" stroke-linecap="round" stroke-linejoin="round"/>
</svg>
