<svg width="18" height="14" viewBox="0 0 18 14" fill="none" xmlns="http://www.w3.org/2000/svg">
<path d="M17.028 0.359521C16.3488 0.680355 15.193 1.28202 14.6121 1.39702C14.5896 1.40285 14.5713 1.41035 14.5496 1.41619C13.8721 0.747854 12.9438 0.333688 11.9163 0.333688C9.84545 0.333688 8.16629 2.01285 8.16629 4.08369C8.16629 4.19285 8.15712 4.39369 8.16629 4.50035C5.48462 4.50035 3.52629 3.10119 2.06045 1.30285C1.86462 1.06119 1.65629 1.18702 1.61295 1.35869C1.51545 1.74702 1.48212 2.39619 1.48212 2.85952C1.48212 4.02702 2.39462 5.17369 3.81545 5.88452C3.55379 5.95202 3.26545 6.00035 2.96545 6.00035C2.61212 6.00035 2.20545 5.90785 1.84962 5.72119C1.71795 5.65202 1.43379 5.67119 1.51795 6.00785C1.85545 7.35702 3.39545 8.30452 4.77129 8.58035C4.45879 8.76452 3.79212 8.72702 3.48545 8.72702C3.37212 8.72702 2.97795 8.70035 2.72295 8.66869C2.49045 8.64035 2.13295 8.70035 2.43212 9.15369C3.07462 10.1262 4.52795 10.737 5.77879 10.7604C4.62712 11.6637 2.74379 11.9937 0.939619 11.9937C0.574619 11.9854 0.592953 12.4012 0.887119 12.5554C2.21795 13.2537 4.39795 13.667 5.95545 13.667C12.1471 13.667 15.6663 8.94785 15.6663 4.49952C15.6663 4.42785 15.6646 4.27785 15.6621 4.12702C15.6621 4.11202 15.6663 4.09785 15.6663 4.08285C15.6663 4.06035 15.6596 4.03869 15.6596 4.01619C15.6571 3.90285 15.6546 3.79702 15.6521 3.74202C16.143 3.38785 16.8946 2.77285 17.2746 2.30202C17.4038 2.14202 17.2996 1.94785 17.1238 2.00869C16.6713 2.16619 15.8888 2.47119 15.3988 2.52952C16.3796 1.88035 16.8646 1.31535 17.2813 0.687855C17.4238 0.473688 17.2455 0.256188 17.028 0.359521Z" fill="#005183"/>
</svg>
