<svg width="14" height="14" viewBox="0 0 14 14" fill="none" xmlns="http://www.w3.org/2000/svg">
<path d="M0.333252 4.2219H3.11103V13.6663H0.333252V4.2219ZM1.71381 3.11079H1.69825C0.869363 3.11079 0.333252 2.49301 0.333252 1.72134C0.333252 0.933008 0.88603 0.333008 1.72992 0.333008C2.57492 0.333008 3.09547 0.933008 3.11103 1.72134C3.11103 2.49245 2.57492 3.11079 1.71381 3.11079ZM13.6666 13.6663H10.8888V8.61134C10.8888 7.39023 10.2083 6.5569 9.11547 6.5569C8.28159 6.5569 7.83047 7.11912 7.61158 7.66245C7.53158 7.8569 7.55547 8.39467 7.55547 8.66634V13.6663H4.7777V4.2219H7.55547V5.67523C7.95603 5.05523 8.58325 4.2219 10.1877 4.2219C12.1755 4.2219 13.666 5.4719 13.666 8.26301L13.6666 13.6663Z" fill="#F7FBFE"/>
</svg>
