<svg width="4" height="18" viewBox="0 0 4 18" fill="none" xmlns="http://www.w3.org/2000/svg">
<path d="M1.99922 0.599609C2.99333 0.599609 3.79922 1.4055 3.79922 2.39961C3.79922 3.39372 2.99333 4.19961 1.99922 4.19961C1.00511 4.19961 0.199219 3.39372 0.199219 2.39961C0.199219 1.4055 1.00511 0.599609 1.99922 0.599609Z" fill="#9E9E9E"/>
<path d="M1.99922 7.19961C2.99333 7.19961 3.79922 8.0055 3.79922 8.99961C3.79922 9.99372 2.99333 10.7996 1.99922 10.7996C1.00511 10.7996 0.199219 9.99372 0.199219 8.99961C0.199219 8.0055 1.00511 7.19961 1.99922 7.19961Z" fill="#9E9E9E"/>
<path d="M3.79922 15.5996C3.79922 14.6055 2.99333 13.7996 1.99922 13.7996C1.00511 13.7996 0.199219 14.6055 0.199219 15.5996C0.199219 16.5937 1.00511 17.3996 1.99922 17.3996C2.99333 17.3996 3.79922 16.5937 3.79922 15.5996Z" fill="#9E9E9E"/>
</svg>
