<svg width="105" height="48" viewBox="0 0 105 48" fill="none" xmlns="http://www.w3.org/2000/svg">
<g clip-path="url(#clip0_939_4399)">
<rect width="105" height="48" fill="url(#paint0_linear_939_4399)"/>
<path d="M44.5072 27.9866C44.5072 22.3689 48.3647 17.6545 53.5914 16.2788C53.1818 16.2355 52.7646 16.2129 52.3435 16.2129C45.7892 16.2129 40.479 21.4862 40.479 27.9866C40.479 34.487 45.7911 39.7603 52.3435 39.7603C52.7646 39.7603 53.1799 39.7377 53.5914 39.6963C48.3647 38.3187 44.5072 33.6062 44.5072 27.9866Z" fill="white"/>
<path d="M30.2586 27.9866C30.2586 22.3689 26.403 17.6545 21.1763 16.2788C21.5859 16.2355 22.0012 16.2129 22.4223 16.2129C28.9766 16.2129 34.2868 21.4862 34.2868 27.9866C34.2868 34.487 28.9747 39.7603 22.4223 39.7603C22.0012 39.7603 21.5859 39.7377 21.1763 39.6963C26.403 38.3187 30.2586 33.6062 30.2586 27.9866Z" fill="white"/>
<path d="M4.75462 43.8835V44.832C4.75462 45.1726 4.59342 45.3401 4.25963 45.3401H2.17727C1.11902 45.3401 0.785235 44.7002 1.18919 43.4318C-0.542319 43.9738 -0.417149 46.4204 1.79228 46.4204H4.79445C5.49046 46.4204 5.83373 45.9969 5.83373 45.1707V43.8496C5.83373 43.6821 5.90011 43.4995 6.03286 43.332H4.95186C4.82479 43.5221 4.75272 43.699 4.75272 43.8816L4.75462 43.8835Z" fill="white"/>
<path d="M3.03256 42.2654C3.03256 42.1149 3.0648 42.002 3.13308 41.9248H2.22844C2.16017 42.002 2.12793 42.1149 2.12793 42.2654V42.8018H3.03446V42.2654H3.03256Z" fill="white"/>
<path d="M4.15903 42.2519C4.15903 42.1014 4.19127 41.9922 4.26144 41.915H3.35491C3.28664 41.9922 3.25439 42.1014 3.25439 42.2519V42.792H4.15903V42.2519Z" fill="white"/>
<path d="M6.78953 41.6765V45.2146C6.78953 45.3313 6.76678 45.5741 6.73074 45.9222C6.68902 46.2723 6.58851 46.6318 6.4292 47.0119C7.38693 47.0119 7.86675 46.3306 7.86675 44.9643V41.6445C7.86675 41.477 7.94071 41.2944 8.06778 41.127H6.99246C6.85971 41.3189 6.79143 41.4958 6.79143 41.6765H6.78953Z" fill="white"/>
<path d="M9.04442 43.8747C9.11839 45.9053 9.07666 46.6318 8.93443 46.9141C8.79408 47.2039 8.5134 47.5314 8.0791 47.9134C9.4389 47.9134 10.1254 47.2321 10.1254 45.8639V43.8427C10.1254 43.6752 10.1956 43.4926 10.3265 43.3232H9.24545C9.11649 43.5152 9.04442 43.6921 9.04442 43.8728V43.8747Z" fill="white"/>
<path d="M12.0771 44.8232V41.6765C12.0771 41.4939 12.0088 41.317 11.8741 41.127H10.7988C10.9278 41.2944 11.0018 41.477 11.0018 41.6445V45.3652C11.0018 46.0653 11.345 46.4229 12.0353 46.4229H13.1751V45.3407H12.5721C12.2383 45.3407 12.0771 45.1638 12.0771 44.8232Z" fill="white"/>
<path d="M15.1418 42.8242L14.973 43.7238H14.8991C13.9926 43.7238 13.4843 44.5218 13.7726 45.3461H13.179V46.4226H18.9898V45.3404H18.2218C17.9088 43.7652 16.9435 42.9108 15.1399 42.8242H15.1418ZM14.8725 45.3461C14.6393 45.3461 14.4591 45.0713 14.4591 44.8455C14.4591 44.6046 14.6393 44.4314 14.8725 44.4314C15.1058 44.4314 15.286 44.582 15.286 44.8963C15.286 45.1823 15.102 45.3461 14.8725 45.3461ZM16.0294 45.3461C16.1906 44.9264 16.1166 44.3505 15.7563 44.0739C15.6273 43.9478 15.6691 43.9158 15.8891 43.9741C16.3973 44.1096 17.0744 44.7231 17.0289 45.3461H16.0294Z" fill="white"/>
<path d="M23.0995 45.0316V44.8641C23.0995 44.3748 22.9477 43.9664 22.631 43.6257C22.32 43.2757 21.9483 43.1025 21.5064 43.1025C21.0645 43.1025 20.6909 43.2757 20.3893 43.6163C20.0006 44.0435 19.9513 44.5065 19.8944 45.0335C19.8944 45.2424 19.7332 45.3421 19.3994 45.3421H18.9973V46.4242H19.5321C19.8849 46.4242 20.1864 46.332 20.4292 46.1419C20.7307 46.4506 21.093 46.6143 21.5045 46.6143C21.916 46.6143 22.2783 46.4638 22.5798 46.1645C22.8131 46.332 23.1051 46.4242 23.4579 46.4242H23.9889V45.3421H23.5869C23.2569 45.3421 23.0976 45.2424 23.0976 45.0335L23.0995 45.0316ZM21.4742 45.5642C21.1536 45.5642 20.8938 45.2405 20.8938 44.8133C20.8938 44.3861 21.1536 44.0736 21.4742 44.0736C21.7947 44.0736 22.0697 44.4011 22.0697 44.8133C22.0697 45.2254 21.8098 45.5642 21.4742 45.5642Z" fill="white"/>
<path d="M24.6946 41.6833V44.8319C24.6946 45.1725 24.5333 45.34 24.1996 45.34H23.9985V46.4222H24.7363C25.4323 46.4222 25.7756 46.0721 25.7756 45.372V41.6513C25.7756 41.4838 25.8419 41.3013 25.9747 41.1338H24.8937C24.7666 41.3239 24.6927 41.5027 24.6927 41.6833H24.6946Z" fill="white"/>
<path d="M26.7255 41.6765V45.2146C26.7255 45.3313 26.7028 45.5741 26.6648 45.9222C26.6231 46.2723 26.5226 46.6318 26.3633 47.0119C27.3191 47.0119 27.8008 46.3306 27.8008 44.9643V41.6445C27.8008 41.477 27.8748 41.2944 28.0019 41.127H26.9265C26.7938 41.3189 26.7255 41.4958 26.7255 41.6765Z" fill="white"/>
<path d="M31.594 44.8509L31.5845 43.8515C31.5845 43.684 31.6527 43.5015 31.7874 43.334H30.7102C30.5774 43.5241 30.5092 43.701 30.5092 43.8835C30.5793 45.9142 30.5376 46.6406 30.3954 46.9229C30.2588 47.2146 29.9743 47.5402 29.54 47.9223C30.8126 47.9223 31.4859 47.3313 31.5769 46.1513C31.8064 46.3659 31.9941 46.4242 32.1572 46.4242H32.7432V45.3421H32.1383C31.8045 45.3421 31.6262 45.1821 31.594 44.8509Z" fill="white"/>
<path d="M33.8451 43.8835V44.832C33.8451 45.1727 33.6802 45.3402 33.3521 45.3402H32.7471V46.4223H33.8812C34.5772 46.4223 34.9205 46.0723 34.9205 45.3722V43.8515C34.9205 43.684 34.9887 43.5015 35.1215 43.334H34.0443C33.9115 43.5241 33.8432 43.701 33.8432 43.8835H33.8451Z" fill="white"/>
<path d="M33.9968 47.4402V47.9804H34.9015V47.4402C34.9015 47.2897 34.9299 47.1805 35.0039 47.0996H34.0973C34.0234 47.1805 33.9968 47.2897 33.9968 47.4402Z" fill="white"/>
<path d="M32.8665 47.4483V47.9884H33.773V47.4483C33.773 47.2977 33.8052 47.1904 33.8735 47.1133H32.967C32.9006 47.1904 32.8665 47.2996 32.8665 47.4483Z" fill="white"/>
<path d="M39.2217 43.8326C39.2217 43.6651 39.2938 43.4845 39.4228 43.3151H39.2862C38.5162 43.0234 37.8259 42.9481 37.1887 43.0968C36.5534 43.2473 36.1627 43.5748 35.9901 44.0961C35.8611 44.497 35.8384 44.9035 35.9389 45.3232C36.0489 45.7315 36.2916 46.044 36.6672 46.2434C37.037 46.4429 37.532 46.4937 38.1464 46.4034C38.1275 46.6311 38.0857 46.7949 38.0364 46.9021C37.8942 47.1938 37.6097 47.5194 37.1811 47.9015C38.3399 47.9015 39.0037 47.4103 39.1724 46.4203H40.1795V45.3382H39.2217V43.8289V43.8326ZM37.9359 45.4417C37.1223 45.709 36.5591 44.736 37.2039 44.2053C37.4182 44.0283 37.6761 44.0227 37.917 44.1319C38.283 44.2956 38.3475 45.31 37.9359 45.4417Z" fill="white"/>
<path d="M42.258 44.3335V41.6347C42.258 41.4672 42.332 41.2847 42.4609 41.1172H41.3856C41.2528 41.3073 41.1846 41.4842 41.1846 41.6667V44.8153C41.1846 45.0656 41.1523 45.2425 41.1011 45.3422H40.187V46.4244H47.3861V45.3422H46.4379C45.4669 43.0443 43.7373 42.4685 42.258 44.3335ZM42.5747 45.3422C43.0963 44.533 43.5495 44.2018 43.9705 44.2018C44.4655 44.2018 44.9093 44.6647 45.3436 45.3422H42.5747Z" fill="white"/>
<path d="M48.4444 42.2576C48.4444 42.1071 48.4766 41.9923 48.5449 41.917H47.6384C47.5682 41.9942 47.5378 42.109 47.5378 42.2576V42.7921H48.4425V42.2576H48.4444Z" fill="white"/>
<path d="M48.4938 43.8835V44.832C48.4938 45.1727 48.3288 45.3402 47.9988 45.3402H47.3938V46.4223H48.5298C49.2239 46.4223 49.5672 46.0723 49.5672 45.3722V43.8515C49.5672 43.684 49.6374 43.5015 49.7701 43.334H48.6929C48.5602 43.5241 48.4938 43.701 48.4938 43.8835Z" fill="white"/>
<path d="M49.5747 42.2422C49.5747 42.0916 49.6032 41.9824 49.6753 41.9053H48.7706C48.6967 41.9824 48.6682 42.0916 48.6682 42.2422V42.7842H49.5747V42.2422Z" fill="white"/>
<path d="M51.4162 43.1065C50.7846 43.257 50.3902 43.5826 50.2214 44.1058C50.0886 44.5048 50.0697 44.915 50.1721 45.331C50.2821 45.7412 50.5248 46.0536 50.8946 46.2531C51.2645 46.4526 51.7595 46.5034 52.3739 46.4131C52.355 46.6408 52.3151 46.8027 52.2639 46.9137C52.1217 47.2035 51.8429 47.531 51.4086 47.913C52.7684 47.913 53.4549 47.2318 53.4549 45.8636V43.8423C53.4549 43.6748 53.5213 43.4923 53.656 43.3229H53.5137C52.7494 43.0331 52.0534 42.9559 51.4181 43.1065H51.4162ZM52.171 45.442C51.3574 45.7092 50.7941 44.7363 51.4389 44.2055C51.6533 44.0286 51.9093 44.023 52.152 44.1321C52.5181 44.2959 52.5825 45.3103 52.171 45.442Z" fill="white"/>
<path d="M62.3174 42.2654C62.3174 42.1149 62.3458 42.0076 62.4179 41.9248H61.5113C61.4374 42.0076 61.4089 42.1149 61.4089 42.2654V42.8075H62.3155V42.2654H62.3174Z" fill="white"/>
<path d="M61.2875 43.1064C60.656 43.2569 60.2615 43.5825 60.089 44.1057C59.96 44.5047 59.979 44.915 60.1515 45.3309H58.3574C57.3011 45.3309 56.9654 44.691 57.3694 43.4226C55.6379 43.9646 55.763 46.4112 57.9725 46.4112H62.2756C62.9716 46.4112 63.3092 46.0611 63.3092 45.3629V43.8404C63.3092 43.6729 63.3415 43.4903 63.4097 43.3209H63.3813C62.617 43.0311 61.921 42.9539 61.2856 43.1045L61.2875 43.1064ZM62.2358 44.8228C62.2358 45.1634 62.0746 45.3309 61.7408 45.3309H61.2781C60.9576 44.8623 60.9443 44.5141 61.2458 44.2732C61.5379 44.0323 61.8736 44.0041 62.2358 44.1735V44.8228Z" fill="white"/>
<path d="M64.3959 43.8747C64.468 45.9053 64.4263 46.6318 64.2859 46.9141C64.1437 47.2039 63.8649 47.5314 63.4287 47.9134C64.7885 47.9134 65.475 47.2321 65.475 45.8639V43.8427C65.475 43.6752 65.5433 43.4926 65.6761 43.3232H64.5951C64.468 43.5152 64.3959 43.6921 64.3959 43.8728V43.8747Z" fill="white"/>
<path d="M67.4265 44.8232V41.6765C67.4265 41.4939 67.3582 41.317 67.2255 41.127H66.1501C66.2791 41.2944 66.3531 41.477 66.3531 41.6445V45.3652C66.3531 46.0653 66.6963 46.4229 67.3867 46.4229H68.5265V45.3407H67.9215C67.5877 45.3407 67.4265 45.1638 67.4265 44.8232Z" fill="white"/>
<path d="M72.9017 44.563L72.1222 43.7557C71.6689 43.2833 71.2669 43.0556 70.9141 43.0424C70.5614 43.033 70.0948 43.1929 69.6359 43.6917L68.8583 44.5404L69.5543 45.3403H68.5283V46.4224H73.3132V45.3403H72.2151L72.9017 44.563ZM70.8553 45.3535L70.1328 44.5724L70.8971 43.8629L71.5703 44.6214L70.8572 45.3516L70.8553 45.3535Z" fill="white"/>
<path d="M77.4193 45.0316V44.8641C77.4193 44.3748 77.2676 43.9664 76.9527 43.6257C76.6417 43.2757 76.27 43.1025 75.8262 43.1025C75.3824 43.1025 75.0107 43.2757 74.7111 43.6163C74.3204 44.0435 74.2711 44.5065 74.2161 45.0335C74.2161 45.2424 74.0549 45.3421 73.7211 45.3421H73.3171V46.4242H73.8539C74.2066 46.4242 74.5081 46.332 74.7509 46.1419C75.0524 46.4506 75.4147 46.6143 75.8262 46.6143C76.2378 46.6143 76.6 46.4638 76.9015 46.1645C77.1348 46.332 77.4288 46.4242 77.7815 46.4242H78.3125V45.3421H77.9086C77.5805 45.3421 77.4193 45.2424 77.4193 45.0335V45.0316ZM75.794 45.5642C75.4735 45.5642 75.2117 45.2405 75.2117 44.8133C75.2117 44.3861 75.4735 44.0736 75.794 44.0736C76.1145 44.0736 76.3876 44.4011 76.3876 44.8133C76.3876 45.2254 76.1278 45.5642 75.794 45.5642Z" fill="white"/>
<path d="M79.0141 41.6833V44.8319C79.0141 45.1725 78.8548 45.34 78.5191 45.34H78.3181V46.4222H79.054C79.75 46.4222 80.0932 46.0721 80.0932 45.372V41.6513C80.0932 41.4838 80.1634 41.3013 80.2943 41.1338H79.2133C79.0843 41.3239 79.0122 41.5027 79.0122 41.6833H79.0141Z" fill="white"/>
<path d="M81.0434 41.6765V45.2146C81.0434 45.3313 81.0207 45.5741 80.9846 45.9222C80.9448 46.2723 80.8424 46.6318 80.6831 47.0119C81.6408 47.0119 82.1207 46.3306 82.1207 44.9643V41.6445C82.1207 41.477 82.1946 41.2944 82.3217 41.127H81.2464C81.1136 41.3189 81.0453 41.4958 81.0453 41.6765H81.0434Z" fill="white"/>
<path d="M86.3726 42.2519C86.3726 42.1014 86.401 41.9922 86.4731 41.915H85.5666C85.4926 41.9922 85.4661 42.1014 85.4661 42.2519V42.792H86.3707V42.2519H86.3726Z" fill="white"/>
<path d="M85.2405 42.2654C85.2405 42.1149 85.2728 42.002 85.341 41.9248H84.4345C84.3643 42.002 84.334 42.1149 84.334 42.2654V42.8018H85.2405V42.2654Z" fill="white"/>
<path d="M88.7944 47.458V48H89.701V47.458C89.701 47.3074 89.7313 47.1983 89.8015 47.1211H88.8949C88.8267 47.1983 88.7944 47.3074 88.7944 47.458Z" fill="white"/>
<path d="M89.9247 47.4481V47.9882H90.8294V47.4481C90.8294 47.2975 90.8578 47.1902 90.9299 47.1074H90.0234C89.9494 47.1902 89.9229 47.2994 89.9229 47.4481H89.9247Z" fill="white"/>
<path d="M98.6582 42.2422C98.6582 42.0916 98.6867 41.9824 98.7588 41.9053H97.8522C97.7783 41.9824 97.7517 42.0916 97.7517 42.2422V42.7842H98.6582V42.2422Z" fill="white"/>
<path d="M98.6412 44.8321L98.6279 43.8516C98.6279 43.6841 98.7 43.5015 98.8271 43.334H97.7517C97.619 43.5241 97.5507 43.701 97.5507 43.8836V44.8321C97.5507 45.1727 97.3914 45.3402 97.0576 45.3402H96.0449C95.7149 45.3402 95.5556 45.2405 95.5556 45.0316V44.8641C95.5556 44.3748 95.4039 43.9664 95.0872 43.6257C94.7761 43.2757 94.4063 43.1025 93.9625 43.1025C93.5188 43.1025 93.147 43.2757 92.8455 43.6163C92.4567 44.0435 92.4055 44.5065 92.3505 45.0335C92.3505 45.2424 92.1912 45.3421 91.8574 45.3421H90.8617C90.5261 45.3421 90.3573 45.1746 90.3573 44.834L90.344 43.8535C90.344 43.686 90.4161 43.5034 90.545 43.3359H89.4697C89.337 43.526 89.2687 43.7029 89.2687 43.8854V44.834C89.2687 45.1746 89.1075 45.3421 88.7737 45.3421H87.6604C87.3305 45.3421 87.1655 45.1746 87.1655 44.834V43.8854C87.2375 43.7048 87.2982 43.526 87.3665 43.3359H86.3006C86.0712 43.1853 85.7962 43.1044 85.5041 43.1044C84.5483 43.1044 83.8921 43.9908 83.8921 44.8358C83.8921 45.2442 84.0438 45.6037 84.3359 45.9349C84.6298 46.253 85.0224 46.4167 85.5022 46.4167C85.8777 46.4167 86.1982 46.3678 86.4732 46.2662C86.6344 46.3753 86.8525 46.4261 87.1275 46.4261H89.3066C89.5759 46.4261 89.7864 46.3753 89.959 46.2662C90.1278 46.3753 90.3402 46.4261 90.6152 46.4261H91.9883C92.341 46.4261 92.6426 46.3339 92.8853 46.1438C93.1869 46.4525 93.5491 46.6162 93.9606 46.6162C94.3722 46.6162 94.7344 46.4656 95.0359 46.1664C95.2692 46.3339 95.5613 46.4261 95.914 46.4261H97.5905C97.8617 46.4261 98.0704 46.3753 98.2448 46.2662C98.4136 46.3753 98.6241 46.4261 98.8991 46.4261H99.7317V45.344H99.1419C98.8081 45.344 98.6374 45.1765 98.6374 44.8358L98.6412 44.8321ZM85.4946 45.3647C85.2007 45.3647 84.9579 45.2141 84.9124 44.8151C84.8669 44.4068 85.1741 44.0755 85.4946 44.0755C85.8151 44.0755 86.0882 44.403 86.0882 44.8151C86.0882 45.2273 85.8265 45.3647 85.4946 45.3647ZM93.9284 45.5642C93.6079 45.5642 93.3481 45.2405 93.3481 44.8133C93.3481 44.3861 93.6079 44.0736 93.9284 44.0736C94.2489 44.0736 94.5239 44.4011 94.5239 44.8133C94.5239 45.2254 94.2622 45.5642 93.9284 45.5642Z" fill="white"/>
<path d="M102.499 42.2519C102.499 42.1014 102.529 41.9922 102.599 41.915H101.693C101.624 41.9922 101.592 42.1014 101.592 42.2519V42.792H102.499V42.2519Z" fill="white"/>
<path d="M101.372 42.2654C101.372 42.1149 101.404 42.002 101.473 41.9248H100.568C100.498 42.002 100.468 42.1149 100.468 42.2654V42.8018H101.372V42.2654Z" fill="white"/>
<path d="M103.921 41.1338C103.794 41.3239 103.722 41.5027 103.722 41.6833V44.8319C103.722 45.1725 103.561 45.34 103.227 45.34H102.432C102.098 45.34 101.928 45.1725 101.928 44.8319L101.914 43.8514C101.914 43.6839 101.987 43.5013 102.114 43.3338H101.038C100.907 43.5239 100.837 43.7008 100.837 43.8834V44.8319C100.837 45.1725 100.676 45.34 100.342 45.34H99.7373V46.4222H100.877C101.148 46.4222 101.359 46.3714 101.533 46.2622C101.702 46.3714 101.913 46.4222 102.188 46.4222H103.762C104.458 46.4222 104.801 46.0721 104.801 45.372V41.6513C104.801 41.4838 104.869 41.3013 105 41.1338H103.919H103.921Z" fill="white"/>
<path d="M8.8985 34.2223H16.8695C18.1497 34.2223 18.7622 33.5786 18.7622 32.2744V28.6403C18.7622 27.9459 19.0429 27.2683 19.5322 26.5381H23.6685C23.1602 27.1818 22.8966 27.8762 22.8966 28.5199V33.5786C22.8966 36.7423 21.5842 38.3589 18.9196 38.3589H7.42681C-1.0335 38.3589 -1.50762 28.9885 5.11308 26.9202C3.57311 31.77 4.85136 34.2223 8.8985 34.2223ZM12.5588 21.1481C12.297 21.4436 12.1738 21.8783 12.1738 22.4523V24.5037H8.70506V22.4523C8.70506 21.8783 8.82833 21.4436 9.09194 21.1481H12.5607H12.5588ZM16.8695 21.1143C16.6078 21.4097 16.4845 21.8275 16.4845 22.4015V24.4698H13.0139V22.4015C13.0139 21.8275 13.1372 21.4097 13.4008 21.1143H16.8695Z" fill="white"/>
<path d="M38.9067 35.1292C36.7617 32.8426 35.3394 36.9002 38.3055 36.9002H39.8284L40.6192 38.8292H32.9763L33.8184 36.9002H35.0018C32.908 33.65 37.9755 30.8552 39.8986 34.0377L38.9086 35.1311L38.9067 35.1292Z" fill="white"/>
<path d="M66.1274 34.1878C65.4617 32.5881 65.3916 31.0242 65.8828 29.4941C66.5466 27.4936 68.0543 26.2421 70.4723 25.6681C72.9074 25.0941 75.5701 25.3895 78.4964 26.5018H78.6007C78.339 27.1454 78.2176 27.8418 78.2176 28.4835V34.3082C78.2176 36.9863 76.9204 38.3225 74.2577 38.3225H57.7904C49.3282 38.3225 48.8578 28.954 55.4785 26.8838C53.9367 31.7337 55.2168 34.1859 59.264 34.1859H66.1312L66.1274 34.1878ZM74.0984 29.7538C72.714 29.1102 71.4357 29.2156 70.3149 30.1359C69.158 31.0581 69.2111 32.3962 70.4382 34.1878H72.2076C73.4878 34.1878 74.1003 33.5442 74.1003 32.2399V29.7538H74.0984ZM74.7982 21.1494C74.5195 21.4618 74.4114 21.8796 74.4114 22.4536V24.5219H70.9426V22.4536C70.9426 21.8796 71.047 21.4618 71.3276 21.1494H74.7963H74.7982Z" fill="white"/>
<path d="M88.4548 38.36C80.2903 38.36 79.2567 29.2512 86.141 26.8517C84.8438 30.45 85.2478 34.1519 89.9246 34.1519H97.8975C99.1757 34.1519 99.8585 33.2316 100.018 31.44L99.9476 20.2271C99.9476 19.5327 100.209 18.8533 100.718 18.123H104.903C104.414 18.7667 104.133 19.4611 104.133 20.1048V30.849C104.133 36.8808 103.923 37.9065 100.209 38.3581H88.4548V38.36ZM95.0413 24.8173C94.6203 24.4183 94.2353 24.2094 93.8674 24.2094C93.2548 24.2094 92.8698 24.6272 92.8698 25.1485C92.8698 26.1215 93.5185 26.6616 94.552 26.6616H95.8474L96.5832 28.2255H89.6799L90.4499 26.6616H91.5006C91.2389 26.0876 91.1156 25.5663 91.1156 25.0789C91.1156 23.7219 92.2724 22.6097 93.5848 22.6097C94.3908 22.6097 95.267 23.0087 95.9327 23.8951L95.0395 24.8154L95.0413 24.8173Z" fill="white"/>
<path d="M44.8411 9.26509C45.1294 10.8478 45.1711 12.6959 44.3916 14.2222C43.6539 15.6601 42.2258 16.6763 40.134 17.2466C39.656 15.9236 39.4228 14.4782 39.9121 13.5635C40.4355 12.5868 41.6512 11.7004 42.827 10.846C43.5211 10.3416 44.2247 9.82969 44.8411 9.26509ZM45.1161 5.04004C45.1464 5.3468 45.1654 5.63475 45.1844 5.92269C45.1844 5.93775 45.1844 5.95092 45.1862 5.96786C44.7254 8.65157 40.0524 10.0518 38.5523 12.8446C37.4257 14.9468 38.7135 17.9881 39.216 19.0251C39.2217 19.0213 39.2255 19.0175 39.2293 19.01C50.9668 16.9304 45.1142 5.04004 45.1142 5.04004H45.1161Z" fill="white"/>
<path d="M30.2418 6.03544C31.3683 6.8861 32.3602 7.972 32.4512 9.00521C32.5479 10.1081 32.015 11.5064 31.4973 12.8595C31.1938 13.6594 30.8847 14.4667 30.678 15.276C29.5666 14.1035 28.516 12.5772 28.332 10.8759C28.1594 9.27057 28.8023 7.6483 30.2418 6.0392M30.0332 4.05371C30.0332 4.05371 30.0294 4.065 30.0294 4.07065C21.3301 12.1632 32.7679 18.9666 32.7679 18.9666C32.5745 18.7257 32.4 18.4961 32.2236 18.2627C32.2141 18.2514 32.2066 18.2401 32.199 18.2269C31.1123 15.7277 34.2586 12.0277 33.9836 8.87535C33.7731 6.50405 31.025 4.6503 30.0313 4.05371H30.0332Z" fill="white"/>
<path d="M37.604 1.52817C39.5271 1.52817 41.0784 2.52562 42.3168 4.56946C41.4312 5.17169 40.4146 5.65724 39.5726 5.65724C39.4303 5.65724 39.2957 5.64407 39.1705 5.61584C38.1749 5.39188 37.0768 4.52805 36.0166 3.69245C35.4647 3.2596 34.9053 2.81921 34.3287 2.43905L34.8294 2.10594C35.6999 1.76718 36.6539 1.52817 37.604 1.52817ZM37.604 0C33.7162 0 30.1052 3.15232 30.1052 3.15232C30.3783 3.0507 30.6343 2.96224 30.8923 2.87379C30.9074 2.87003 30.9188 2.86626 30.934 2.86062C31.0136 2.85309 31.0933 2.84932 31.173 2.84932C33.6422 2.84932 36.0109 6.47214 38.8329 7.10637C39.0776 7.16095 39.326 7.1873 39.5745 7.1873C41.5525 7.1873 43.5666 5.61208 44.293 4.98349C44.2892 4.97973 44.2835 4.97785 44.2778 4.97408C42.4591 1.17812 39.9784 0 37.604 0Z" fill="white"/>
</g>
<defs>
<linearGradient id="paint0_linear_939_4399" x1="0" y1="24" x2="105" y2="24" gradientUnits="userSpaceOnUse">
</linearGradient>
<clipPath id="clip0_939_4399">
<rect width="105" height="48" fill="white"/>
</clipPath>
</defs>
</svg>
