<svg width="105" height="48" viewBox="0 0 105 48" fill="none" xmlns="http://www.w3.org/2000/svg">
<g clip-path="url(#clip0_939_12645)">
<rect width="105" height="48" fill="url(#paint0_linear_939_12645)"/>
<path d="M44.5067 27.9866C44.5067 22.3689 48.3642 17.6545 53.5909 16.2788C53.1813 16.2355 52.7641 16.2129 52.3431 16.2129C45.7887 16.2129 40.4785 21.4862 40.4785 27.9866C40.4785 34.487 45.7906 39.7603 52.3431 39.7603C52.7641 39.7603 53.1794 39.7377 53.5909 39.6963C48.3642 38.3187 44.5067 33.6062 44.5067 27.9866Z" fill="#005183"/>
<path d="M30.2591 27.9866C30.2591 22.3689 26.4035 17.6545 21.1768 16.2788C21.5864 16.2355 22.0017 16.2129 22.4228 16.2129C28.9771 16.2129 34.2873 21.4862 34.2873 27.9866C34.2873 34.487 28.9752 39.7603 22.4228 39.7603C22.0017 39.7603 21.5864 39.7377 21.1768 39.6963C26.4035 38.3187 30.2591 33.6062 30.2591 27.9866Z" fill="#005183"/>
<path d="M4.75438 43.8835V44.832C4.75438 45.1726 4.59317 45.3401 4.25939 45.3401H2.17703C1.11878 45.3401 0.784991 44.7002 1.18895 43.4318C-0.542563 43.9738 -0.417393 46.4204 1.79203 46.4204H4.7942C5.49022 46.4204 5.83349 45.9969 5.83349 45.1707V43.8496C5.83349 43.6821 5.89986 43.4995 6.03262 43.332H4.95161C4.82455 43.5221 4.75248 43.699 4.75248 43.8816L4.75438 43.8835Z" fill="#A18130"/>
<path d="M3.03256 42.2654C3.03256 42.1149 3.0648 42.002 3.13308 41.9248H2.22844C2.16017 42.002 2.12793 42.1149 2.12793 42.2654V42.8018H3.03446V42.2654H3.03256Z" fill="#A18130"/>
<path d="M4.15854 42.2519C4.15854 42.1014 4.19078 41.9922 4.26095 41.915H3.35442C3.28615 41.9922 3.25391 42.1014 3.25391 42.2519V42.792H4.15854V42.2519Z" fill="#A18130"/>
<path d="M6.78905 41.6765V45.2146C6.78905 45.3313 6.76629 45.5741 6.73026 45.9222C6.68853 46.2723 6.58802 46.6318 6.42871 47.0119C7.38645 47.0119 7.86626 46.3306 7.86626 44.9643V41.6445C7.86626 41.477 7.94023 41.2944 8.06729 41.127H6.99197C6.85922 41.3189 6.79094 41.4958 6.79094 41.6765H6.78905Z" fill="#A18130"/>
<path d="M9.04442 43.8747C9.11839 45.9053 9.07666 46.6318 8.93443 46.9141C8.79408 47.2039 8.5134 47.5314 8.0791 47.9134C9.4389 47.9134 10.1254 47.2321 10.1254 45.8639V43.8427C10.1254 43.6752 10.1956 43.4926 10.3265 43.3232H9.24545C9.11649 43.5152 9.04442 43.6921 9.04442 43.8728V43.8747Z" fill="#A18130"/>
<path d="M12.0771 44.8232V41.6765C12.0771 41.4939 12.0088 41.317 11.8741 41.127H10.7988C10.9278 41.2944 11.0018 41.477 11.0018 41.6445V45.3652C11.0018 46.0653 11.345 46.4229 12.0353 46.4229H13.1751V45.3407H12.5721C12.2383 45.3407 12.0771 45.1638 12.0771 44.8232Z" fill="#A18130"/>
<path d="M15.1416 42.8242L14.9728 43.7238H14.8988C13.9923 43.7238 13.484 44.5218 13.7723 45.3461H13.1787V46.4226H18.9896V45.3404H18.2215C17.9086 43.7652 16.9433 42.9108 15.1397 42.8242H15.1416ZM14.8723 45.3461C14.639 45.3461 14.4589 45.0713 14.4589 44.8455C14.4589 44.6046 14.639 44.4314 14.8723 44.4314C15.1056 44.4314 15.2857 44.582 15.2857 44.8963C15.2857 45.1823 15.1018 45.3461 14.8723 45.3461ZM16.0292 45.3461C16.1904 44.9264 16.1164 44.3505 15.7561 44.0739C15.6271 43.9478 15.6688 43.9158 15.8888 43.9741C16.3971 44.1096 17.0741 44.7231 17.0286 45.3461H16.0292Z" fill="#A18130"/>
<path d="M23.0992 45.0316V44.8641C23.0992 44.3748 22.9475 43.9664 22.6308 43.6257C22.3197 43.2757 21.948 43.1025 21.5061 43.1025C21.0643 43.1025 20.6906 43.2757 20.3891 43.6163C20.0003 44.0435 19.951 44.5065 19.8941 45.0335C19.8941 45.2424 19.7329 45.3421 19.3991 45.3421H18.9971V46.4242H19.5319C19.8846 46.4242 20.1862 46.332 20.4289 46.1419C20.7305 46.4506 21.0927 46.6143 21.5043 46.6143C21.9158 46.6143 22.278 46.4638 22.5796 46.1645C22.8128 46.332 23.1049 46.4242 23.4577 46.4242H23.9887V45.3421H23.5866C23.2566 45.3421 23.0973 45.2424 23.0973 45.0335L23.0992 45.0316ZM21.4739 45.5642C21.1534 45.5642 20.8936 45.2405 20.8936 44.8133C20.8936 44.3861 21.1534 44.0736 21.4739 44.0736C21.7944 44.0736 22.0694 44.4011 22.0694 44.8133C22.0694 45.2254 21.8096 45.5642 21.4739 45.5642Z" fill="#A18130"/>
<path d="M24.6941 41.6833V44.8319C24.6941 45.1725 24.5329 45.34 24.1991 45.34H23.998V46.4222H24.7358C25.4318 46.4222 25.7751 46.0721 25.7751 45.372V41.6513C25.7751 41.4838 25.8415 41.3013 25.9742 41.1338H24.8932C24.7661 41.3239 24.6922 41.5027 24.6922 41.6833H24.6941Z" fill="#A18130"/>
<path d="M26.7255 41.6765V45.2146C26.7255 45.3313 26.7028 45.5741 26.6648 45.9222C26.6231 46.2723 26.5226 46.6318 26.3633 47.0119C27.3191 47.0119 27.8008 46.3306 27.8008 44.9643V41.6445C27.8008 41.477 27.8748 41.2944 28.0019 41.127H26.9265C26.7938 41.3189 26.7255 41.4958 26.7255 41.6765Z" fill="#A18130"/>
<path d="M31.594 44.8509L31.5845 43.8515C31.5845 43.684 31.6527 43.5015 31.7874 43.334H30.7102C30.5774 43.5241 30.5092 43.701 30.5092 43.8835C30.5793 45.9142 30.5376 46.6406 30.3954 46.9229C30.2588 47.2146 29.9743 47.5402 29.54 47.9223C30.8126 47.9223 31.4859 47.3313 31.5769 46.1513C31.8064 46.3659 31.9941 46.4242 32.1572 46.4242H32.7432V45.3421H32.1383C31.8045 45.3421 31.6262 45.1821 31.594 44.8509Z" fill="#A18130"/>
<path d="M33.8451 43.8835V44.832C33.8451 45.1727 33.6802 45.3402 33.3521 45.3402H32.7471V46.4223H33.8812C34.5772 46.4223 34.9205 46.0723 34.9205 45.3722V43.8515C34.9205 43.684 34.9887 43.5015 35.1215 43.334H34.0443C33.9115 43.5241 33.8432 43.701 33.8432 43.8835H33.8451Z" fill="#A18130"/>
<path d="M33.9961 47.4402V47.9804H34.9007V47.4402C34.9007 47.2897 34.9292 47.1805 35.0031 47.0996H34.0966C34.0226 47.1805 33.9961 47.2897 33.9961 47.4402Z" fill="#A18130"/>
<path d="M32.8662 47.4483V47.9884H33.7727V47.4483C33.7727 47.2977 33.805 47.1904 33.8733 47.1133H32.9667C32.9003 47.1904 32.8662 47.2996 32.8662 47.4483Z" fill="#A18130"/>
<path d="M39.2215 43.8326C39.2215 43.6651 39.2936 43.4845 39.4225 43.3151H39.286C38.516 43.0234 37.8257 42.9481 37.1884 43.0968C36.5531 43.2473 36.1624 43.5748 35.9899 44.0961C35.8609 44.497 35.8381 44.9035 35.9387 45.3232C36.0487 45.7315 36.2914 46.044 36.6669 46.2434C37.0367 46.4429 37.5317 46.4937 38.1462 46.4034C38.1272 46.6311 38.0855 46.7949 38.0362 46.9021C37.8939 47.1938 37.6095 47.5194 37.1809 47.9015C38.3396 47.9015 39.0034 47.4103 39.1722 46.4203H40.1792V45.3382H39.2215V43.8289V43.8326ZM37.9357 45.4417C37.1221 45.709 36.5588 44.736 37.2036 44.2053C37.4179 44.0283 37.6759 44.0227 37.9167 44.1319C38.2827 44.2956 38.3472 45.31 37.9357 45.4417Z" fill="#A18130"/>
<path d="M42.2575 44.3335V41.6347C42.2575 41.4672 42.3315 41.2847 42.4604 41.1172H41.3851C41.2524 41.3073 41.1841 41.4842 41.1841 41.6667V44.8153C41.1841 45.0656 41.1518 45.2425 41.1006 45.3422H40.1865V46.4244H47.3857V45.3422H46.4374C45.4664 43.0443 43.7368 42.4685 42.2575 44.3335ZM42.5742 45.3422C43.0958 44.533 43.549 44.2018 43.9701 44.2018C44.465 44.2018 44.9088 44.6647 45.3431 45.3422H42.5742Z" fill="#A18130"/>
<path d="M48.4446 42.2576C48.4446 42.1071 48.4769 41.9923 48.5451 41.917H47.6386C47.5684 41.9942 47.5381 42.109 47.5381 42.2576V42.7921H48.4427V42.2576H48.4446Z" fill="#A18130"/>
<path d="M48.4935 43.8835V44.832C48.4935 45.1727 48.3285 45.3402 47.9985 45.3402H47.3936V46.4223H48.5296C49.2237 46.4223 49.5669 46.0723 49.5669 45.3722V43.8515C49.5669 43.684 49.6371 43.5015 49.7699 43.334H48.6927C48.5599 43.5241 48.4935 43.701 48.4935 43.8835Z" fill="#A18130"/>
<path d="M49.5745 42.2422C49.5745 42.0916 49.6029 41.9824 49.675 41.9053H48.7704C48.6964 41.9824 48.668 42.0916 48.668 42.2422V42.7842H49.5745V42.2422Z" fill="#A18130"/>
<path d="M51.4159 43.1065C50.7844 43.257 50.3899 43.5826 50.2211 44.1058C50.0884 44.5048 50.0694 44.915 50.1718 45.331C50.2818 45.7412 50.5246 46.0536 50.8944 46.2531C51.2642 46.4526 51.7592 46.5034 52.3737 46.4131C52.3547 46.6408 52.3149 46.8027 52.2637 46.9137C52.1214 47.2035 51.8427 47.531 51.4084 47.913C52.7682 47.913 53.4547 47.2318 53.4547 45.8636V43.8423C53.4547 43.6748 53.5211 43.4923 53.6557 43.3229H53.5135C52.7492 43.0331 52.0532 42.9559 51.4178 43.1065H51.4159ZM52.1708 45.442C51.3571 45.7092 50.7939 44.7363 51.4387 44.2055C51.653 44.0286 51.909 44.023 52.1518 44.1321C52.5178 44.2959 52.5823 45.3103 52.1708 45.442Z" fill="#A18130"/>
<path d="M62.3166 42.2654C62.3166 42.1149 62.3451 42.0076 62.4171 41.9248H61.5106C61.4367 42.0076 61.4082 42.1149 61.4082 42.2654V42.8075H62.3147V42.2654H62.3166Z" fill="#A18130"/>
<path d="M61.2868 43.1064C60.6553 43.2569 60.2608 43.5825 60.0882 44.1057C59.9593 44.5047 59.9782 44.915 60.1508 45.3309H58.3567C57.3004 45.3309 56.9647 44.691 57.3686 43.4226C55.6371 43.9646 55.7623 46.4112 57.9717 46.4112H62.2749C62.9709 46.4112 63.3085 46.0611 63.3085 45.3629V43.8404C63.3085 43.6729 63.3407 43.4903 63.409 43.3209H63.3806C62.6163 43.0311 61.9202 42.9539 61.2849 43.1045L61.2868 43.1064ZM62.2351 44.8228C62.2351 45.1634 62.0739 45.3309 61.7401 45.3309H61.2773C60.9568 44.8623 60.9435 44.5141 61.2451 44.2732C61.5372 44.0323 61.8728 44.0041 62.2351 44.1735V44.8228Z" fill="#A18130"/>
<path d="M64.3959 43.8747C64.468 45.9053 64.4263 46.6318 64.2859 46.9141C64.1437 47.2039 63.8649 47.5314 63.4287 47.9134C64.7885 47.9134 65.475 47.2321 65.475 45.8639V43.8427C65.475 43.6752 65.5433 43.4926 65.6761 43.3232H64.5951C64.468 43.5152 64.3959 43.6921 64.3959 43.8728V43.8747Z" fill="#A18130"/>
<path d="M67.4267 44.8232V41.6765C67.4267 41.4939 67.3585 41.317 67.2257 41.127H66.1504C66.2794 41.2944 66.3533 41.477 66.3533 41.6445V45.3652C66.3533 46.0653 66.6966 46.4229 67.3869 46.4229H68.5267V45.3407H67.9217C67.5879 45.3407 67.4267 45.1638 67.4267 44.8232Z" fill="#A18130"/>
<path d="M72.9017 44.563L72.1222 43.7557C71.6689 43.2833 71.2669 43.0556 70.9141 43.0424C70.5614 43.033 70.0948 43.1929 69.6359 43.6917L68.8583 44.5404L69.5543 45.3403H68.5283V46.4224H73.3132V45.3403H72.2151L72.9017 44.563ZM70.8553 45.3535L70.1328 44.5724L70.8971 43.8629L71.5703 44.6214L70.8572 45.3516L70.8553 45.3535Z" fill="#A18130"/>
<path d="M77.4185 45.0316V44.8641C77.4185 44.3748 77.2668 43.9664 76.952 43.6257C76.641 43.2757 76.2693 43.1025 75.8255 43.1025C75.3817 43.1025 75.01 43.2757 74.7103 43.6163C74.3197 44.0435 74.2703 44.5065 74.2153 45.0335C74.2153 45.2424 74.0541 45.3421 73.7204 45.3421H73.3164V46.4242H73.8531C74.2059 46.4242 74.5074 46.332 74.7502 46.1419C75.0517 46.4506 75.4139 46.6143 75.8255 46.6143C76.237 46.6143 76.5993 46.4638 76.9008 46.1645C77.1341 46.332 77.428 46.4242 77.7808 46.4242H78.3118V45.3421H77.9078C77.5797 45.3421 77.4185 45.2424 77.4185 45.0335V45.0316ZM75.7932 45.5642C75.4727 45.5642 75.211 45.2405 75.211 44.8133C75.211 44.3861 75.4727 44.0736 75.7932 44.0736C76.1138 44.0736 76.3868 44.4011 76.3868 44.8133C76.3868 45.2254 76.127 45.5642 75.7932 45.5642Z" fill="#A18130"/>
<path d="M79.0144 41.6833V44.8319C79.0144 45.1725 78.8551 45.34 78.5194 45.34H78.3184V46.4222H79.0542C79.7502 46.4222 80.0935 46.0721 80.0935 45.372V41.6513C80.0935 41.4838 80.1637 41.3013 80.2945 41.1338H79.2135C79.0845 41.3239 79.0125 41.5027 79.0125 41.6833H79.0144Z" fill="#A18130"/>
<path d="M81.043 41.6765V45.2146C81.043 45.3313 81.0202 45.5741 80.9842 45.9222C80.9443 46.2723 80.8419 46.6318 80.6826 47.0119C81.6404 47.0119 82.1202 46.3306 82.1202 44.9643V41.6445C82.1202 41.477 82.1941 41.2944 82.3212 41.127H81.2459C81.1131 41.3189 81.0449 41.4958 81.0449 41.6765H81.043Z" fill="#A18130"/>
<path d="M86.3723 42.2519C86.3723 42.1014 86.4008 41.9922 86.4729 41.915H85.5663C85.4924 41.9922 85.4658 42.1014 85.4658 42.2519V42.792H86.3705V42.2519H86.3723Z" fill="#A18130"/>
<path d="M85.2405 42.2654C85.2405 42.1149 85.2728 42.002 85.341 41.9248H84.4345C84.3643 42.002 84.334 42.1149 84.334 42.2654V42.8018H85.2405V42.2654Z" fill="#A18130"/>
<path d="M88.7939 47.458V48H89.7005V47.458C89.7005 47.3074 89.7308 47.1983 89.801 47.1211H88.8945C88.8262 47.1983 88.7939 47.3074 88.7939 47.458Z" fill="#A18130"/>
<path d="M89.9247 47.4481V47.9882H90.8294V47.4481C90.8294 47.2975 90.8578 47.1902 90.9299 47.1074H90.0234C89.9494 47.1902 89.9229 47.2994 89.9229 47.4481H89.9247Z" fill="#A18130"/>
<path d="M98.6575 42.2422C98.6575 42.0916 98.686 41.9824 98.758 41.9053H97.8515C97.7775 41.9824 97.751 42.0916 97.751 42.2422V42.7842H98.6575V42.2422Z" fill="#A18130"/>
<path d="M98.6407 44.8321L98.6274 43.8516C98.6274 43.6841 98.6995 43.5015 98.8266 43.334H97.7513C97.6185 43.5241 97.5502 43.701 97.5502 43.8836V44.8321C97.5502 45.1727 97.3909 45.3402 97.0571 45.3402H96.0444C95.7144 45.3402 95.5551 45.2405 95.5551 45.0316V44.8641C95.5551 44.3748 95.4034 43.9664 95.0867 43.6257C94.7756 43.2757 94.4058 43.1025 93.962 43.1025C93.5183 43.1025 93.1465 43.2757 92.845 43.6163C92.4562 44.0435 92.405 44.5065 92.35 45.0335C92.35 45.2424 92.1907 45.3421 91.8569 45.3421H90.8613C90.5256 45.3421 90.3568 45.1746 90.3568 44.834L90.3435 43.8535C90.3435 43.686 90.4156 43.5034 90.5445 43.3359H89.4692C89.3365 43.526 89.2682 43.7029 89.2682 43.8854V44.834C89.2682 45.1746 89.107 45.3421 88.7732 45.3421H87.66C87.33 45.3421 87.165 45.1746 87.165 44.834V43.8854C87.237 43.7048 87.2977 43.526 87.366 43.3359H86.3002C86.0707 43.1853 85.7957 43.1044 85.5036 43.1044C84.5478 43.1044 83.8916 43.9908 83.8916 44.8358C83.8916 45.2442 84.0433 45.6037 84.3354 45.9349C84.6293 46.253 85.0219 46.4167 85.5017 46.4167C85.8772 46.4167 86.1977 46.3678 86.4727 46.2662C86.6339 46.3753 86.852 46.4261 87.127 46.4261H89.3061C89.5754 46.4261 89.7859 46.3753 89.9585 46.2662C90.1273 46.3753 90.3397 46.4261 90.6147 46.4261H91.9878C92.3405 46.4261 92.6421 46.3339 92.8848 46.1438C93.1864 46.4525 93.5486 46.6162 93.9601 46.6162C94.3717 46.6162 94.7339 46.4656 95.0355 46.1664C95.2687 46.3339 95.5608 46.4261 95.9135 46.4261H97.5901C97.8613 46.4261 98.0699 46.3753 98.2444 46.2662C98.4131 46.3753 98.6236 46.4261 98.8986 46.4261H99.7312V45.344H99.1414C98.8076 45.344 98.6369 45.1765 98.6369 44.8358L98.6407 44.8321ZM85.4941 45.3647C85.2002 45.3647 84.9574 45.2141 84.9119 44.8151C84.8664 44.4068 85.1736 44.0755 85.4941 44.0755C85.8147 44.0755 86.0878 44.403 86.0878 44.8151C86.0878 45.2273 85.826 45.3647 85.4941 45.3647ZM93.9279 45.5642C93.6074 45.5642 93.3476 45.2405 93.3476 44.8133C93.3476 44.3861 93.6074 44.0736 93.9279 44.0736C94.2484 44.0736 94.5234 44.4011 94.5234 44.8133C94.5234 45.2254 94.2617 45.5642 93.9279 45.5642Z" fill="#A18130"/>
<path d="M102.498 42.2519C102.498 42.1014 102.529 41.9922 102.599 41.915H101.692C101.624 41.9922 101.592 42.1014 101.592 42.2519V42.792H102.498V42.2519Z" fill="#A18130"/>
<path d="M101.371 42.2654C101.371 42.1149 101.404 42.002 101.472 41.9248H100.567C100.497 42.002 100.467 42.1149 100.467 42.2654V42.8018H101.371V42.2654Z" fill="#A18130"/>
<path d="M103.921 41.1338C103.794 41.3239 103.722 41.5027 103.722 41.6833V44.8319C103.722 45.1725 103.561 45.34 103.227 45.34H102.432C102.098 45.34 101.928 45.1725 101.928 44.8319L101.914 43.8514C101.914 43.6839 101.987 43.5013 102.114 43.3338H101.038C100.907 43.5239 100.837 43.7008 100.837 43.8834V44.8319C100.837 45.1725 100.676 45.34 100.342 45.34H99.7373V46.4222H100.877C101.148 46.4222 101.359 46.3714 101.533 46.2622C101.702 46.3714 101.913 46.4222 102.188 46.4222H103.762C104.458 46.4222 104.801 46.0721 104.801 45.372V41.6513C104.801 41.4838 104.869 41.3013 105 41.1338H103.919H103.921Z" fill="#A18130"/>
<path d="M8.89874 34.2223H16.8698C18.1499 34.2223 18.7625 33.5786 18.7625 32.2744V28.6403C18.7625 27.9459 19.0431 27.2683 19.5324 26.5381H23.6687C23.1605 27.1818 22.8968 27.8762 22.8968 28.5199V33.5786C22.8968 36.7423 21.5845 38.3589 18.9199 38.3589H7.42706C-1.03325 38.3589 -1.50738 28.9885 5.11332 26.9202C3.57336 31.77 4.8516 34.2223 8.89874 34.2223ZM12.559 21.1481C12.2973 21.4436 12.174 21.8783 12.174 22.4523V24.5037H8.7053V22.4523C8.7053 21.8783 8.82857 21.4436 9.09219 21.1481H12.5609H12.559ZM16.8698 21.1143C16.608 21.4097 16.4848 21.8275 16.4848 22.4015V24.4698H13.0142V22.4015C13.0142 21.8275 13.1374 21.4097 13.401 21.1143H16.8698Z" fill="#005183"/>
<path d="M38.9069 35.1292C36.762 32.8426 35.3396 36.9002 38.3057 36.9002H39.8286L40.6195 38.8292H32.9766L33.8186 36.9002H35.002C32.9083 33.65 37.9757 30.8552 39.8988 34.0377L38.9088 35.1311L38.9069 35.1292Z" fill="#A18130"/>
<path d="M66.1269 34.1878C65.4613 32.5881 65.3911 31.0242 65.8823 29.4941C66.5461 27.4936 68.0538 26.2421 70.4718 25.6681C72.9069 25.0941 75.5696 25.3895 78.4959 26.5018H78.6003C78.3385 27.1454 78.2172 27.8418 78.2172 28.4835V34.3082C78.2172 36.9863 76.9199 38.3225 74.2572 38.3225H57.7899C49.3277 38.3225 48.8574 28.954 55.4781 26.8838C53.9362 31.7337 55.2163 34.1859 59.2635 34.1859H66.1307L66.1269 34.1878ZM74.0979 29.7538C72.7135 29.1102 71.4353 29.2156 70.3144 30.1359C69.1576 31.0581 69.2107 32.3962 70.4377 34.1878H72.2071C73.4873 34.1878 74.0998 33.5442 74.0998 32.2399V29.7538H74.0979ZM74.7978 21.1494C74.519 21.4618 74.4109 21.8796 74.4109 22.4536V24.5219H70.9422V22.4536C70.9422 21.8796 71.0465 21.4618 71.3272 21.1494H74.7959H74.7978Z" fill="#005183"/>
<path d="M88.4548 38.36C80.2903 38.36 79.2567 29.2512 86.141 26.8517C84.8438 30.45 85.2478 34.1519 89.9246 34.1519H97.8975C99.1757 34.1519 99.8585 33.2316 100.018 31.44L99.9476 20.2271C99.9476 19.5327 100.209 18.8533 100.718 18.123H104.903C104.414 18.7667 104.133 19.4611 104.133 20.1048V30.849C104.133 36.8808 103.923 37.9065 100.209 38.3581H88.4548V38.36ZM95.0413 24.8173C94.6203 24.4183 94.2353 24.2094 93.8674 24.2094C93.2548 24.2094 92.8698 24.6272 92.8698 25.1485C92.8698 26.1215 93.5185 26.6616 94.552 26.6616H95.8474L96.5832 28.2255H89.6799L90.4499 26.6616H91.5006C91.2389 26.0876 91.1156 25.5663 91.1156 25.0789C91.1156 23.7219 92.2724 22.6097 93.5848 22.6097C94.3908 22.6097 95.267 23.0087 95.9327 23.8951L95.0395 24.8154L95.0413 24.8173Z" fill="#005183"/>
<path d="M44.8413 9.26509C45.1296 10.8478 45.1713 12.6959 44.3919 14.2222C43.6541 15.6601 42.226 16.6763 40.1342 17.2466C39.6563 15.9236 39.423 14.4782 39.9123 13.5635C40.4357 12.5868 41.6514 11.7004 42.8272 10.846C43.5214 10.3416 44.225 9.82969 44.8413 9.26509ZM45.1163 5.04004C45.1467 5.3468 45.1656 5.63475 45.1846 5.92269C45.1846 5.93775 45.1846 5.95092 45.1865 5.96786C44.7256 8.65157 40.0527 10.0518 38.5525 12.8446C37.426 14.9468 38.7137 17.9881 39.2163 19.0251C39.222 19.0213 39.2258 19.0175 39.2296 19.01C50.967 16.9304 45.1144 5.04004 45.1144 5.04004H45.1163Z" fill="#A18130"/>
<path d="M30.242 6.03544C31.3685 6.8861 32.3604 7.972 32.4514 9.00521C32.5482 10.1081 32.0153 11.5064 31.4975 12.8595C31.1941 13.6594 30.8849 14.4667 30.6782 15.276C29.5669 14.1035 28.5162 12.5772 28.3322 10.8759C28.1597 9.27057 28.8026 7.6483 30.242 6.0392M30.0334 4.05371C30.0334 4.05371 30.0296 4.065 30.0296 4.07065C21.3303 12.1632 32.7682 18.9666 32.7682 18.9666C32.5747 18.7257 32.4002 18.4961 32.2239 18.2627C32.2144 18.2514 32.2068 18.2401 32.1992 18.2269C31.1125 15.7277 34.2588 12.0277 33.9838 8.87535C33.7733 6.50405 31.0253 4.6503 30.0315 4.05371H30.0334Z" fill="#A18130"/>
<path d="M37.6042 1.52817C39.5273 1.52817 41.0786 2.52562 42.3171 4.56946C41.4314 5.17169 40.4149 5.65724 39.5728 5.65724C39.4306 5.65724 39.2959 5.64407 39.1708 5.61584C38.1751 5.39188 37.077 4.52805 36.0169 3.69245C35.465 3.2596 34.9055 2.81921 34.329 2.43905L34.8297 2.10594C35.7002 1.76718 36.6541 1.52817 37.6042 1.52817ZM37.6042 0C33.7164 0 30.1055 3.15232 30.1055 3.15232C30.3786 3.0507 30.6346 2.96224 30.8925 2.87379C30.9077 2.87003 30.9191 2.86626 30.9342 2.86062C31.0139 2.85309 31.0935 2.84932 31.1732 2.84932C33.6424 2.84932 36.0112 6.47214 38.8332 7.10637C39.0778 7.16095 39.3263 7.1873 39.5747 7.1873C41.5528 7.1873 43.5669 5.61208 44.2932 4.98349C44.2894 4.97973 44.2837 4.97785 44.278 4.97408C42.4593 1.17812 39.9787 0 37.6042 0Z" fill="#005183"/>
</g>
<defs>
<linearGradient id="paint0_linear_939_12645" x1="0" y1="24" x2="105" y2="24" gradientUnits="userSpaceOnUse">
</linearGradient>
<clipPath id="clip0_939_12645">
<rect width="105" height="48" fill="white"/>
</clipPath>
</defs>
</svg>
