<svg width="56" height="56" viewBox="0 0 56 56" fill="none" xmlns="http://www.w3.org/2000/svg">
<rect x="-0.5" y="0.5" width="55" height="55" rx="27.5" transform="matrix(-1 0 0 1 55 0)" fill="white"/>
<path fill-rule="evenodd" clip-rule="evenodd" d="M32.2803 28.5303C32.5732 28.2374 32.5732 27.7626 32.2803 27.4697L24.7803 19.9697C24.4874 19.6768 24.0126 19.6768 23.7197 19.9697C23.4268 20.2626 23.4268 20.7374 23.7197 21.0303L30.6893 28L23.7197 34.9697C23.4268 35.2626 23.4268 35.7374 23.7197 36.0303C24.0126 36.3232 24.4874 36.3232 24.7803 36.0303L32.2803 28.5303Z" fill="#005183"/>
<rect x="-0.5" y="0.5" width="55" height="55" rx="27.5" transform="matrix(-1 0 0 1 55 0)" stroke="#387093"/>
</svg>
