<svg width="30" height="30" viewBox="0 0 30 30" fill="none" xmlns="http://www.w3.org/2000/svg">
<g clip-path="url(#clip0_7_101819)">
<path d="M21.6246 12.2089L4.9462 0.736892C4.2609 0.26447 3.54814 0.0151367 2.93793 0.0151367C1.59818 0.0151367 0.709961 1.13884 0.709961 2.94712V27.0686C0.709961 27.9519 0.966828 28.69 1.34763 29.2037C1.73427 29.7245 2.33914 30.0001 2.9926 30.0001C3.60257 30.0001 4.28715 29.7503 4.97221 29.2786L21.6355 17.8065C22.7067 17.0683 23.2941 16.0746 23.2939 15.0072C23.2939 13.9404 22.6973 12.9467 21.6246 12.2089Z" fill="#005183"/>
<path d="M27.7315 29.9924L27.7131 29.9922C27.7101 29.9922 27.7071 29.9924 27.7041 29.9924H27.7315Z" fill="black"/>
<path d="M27.6814 0L26.992 0.00194412C26.0892 0.00194412 25.3076 0.737795 25.3076 1.64181V28.3351C25.3076 29.2401 26.0763 29.983 26.9803 29.983L27.7127 29.9922C28.6121 29.9874 29.2897 29.2381 29.2897 28.3366V1.64011C29.2897 0.736093 28.5849 0 27.6814 0Z" fill="#005183"/>
</g>
<defs>
<clipPath id="clip0_7_101819">
<rect width="30" height="30" fill="white"/>
</clipPath>
</defs>
</svg>
