<svg width="30" height="30" viewBox="0 0 30 30" fill="none" xmlns="http://www.w3.org/2000/svg">
<g clip-path="url(#clip0_7_101802)">
<path d="M8.37541 12.2089L25.0538 0.736892C25.7391 0.26447 26.4519 0.0151367 27.0621 0.0151367C28.4018 0.0151367 29.29 1.13884 29.29 2.94712V27.0686C29.29 27.9519 29.0332 28.69 28.6524 29.2037C28.2657 29.7245 27.6609 30.0001 27.0074 30.0001C26.3974 30.0001 25.7129 29.7503 25.0278 29.2786L8.36447 17.8065C7.29326 17.0683 6.70589 16.0746 6.70614 15.0072C6.70614 13.9404 7.30274 12.9467 8.37541 12.2089Z" fill="#005183" fill-opacity="0.3"/>
<path d="M2.26853 29.9924L2.28692 29.9922C2.28993 29.9922 2.29289 29.9924 2.2959 29.9924H2.26853Z" fill="black"/>
<path d="M2.31861 0L3.00804 0.00194412C3.91085 0.00194412 4.69238 0.737795 4.69238 1.64181V28.3351C4.69238 29.2401 3.92373 29.983 3.01971 29.983L2.28732 29.9922C1.38786 29.9874 0.710335 29.2381 0.710335 28.3366V1.64011C0.710335 0.736093 1.41508 0 2.31861 0Z" fill="#005183" fill-opacity="0.3"/>
</g>
<defs>
<clipPath id="clip0_7_101802">
<rect width="30" height="30" fill="white" transform="matrix(-1 0 0 1 30 0)"/>
</clipPath>
</defs>
</svg>
