<svg width="56" height="57" viewBox="0 0 56 57" fill="none" xmlns="http://www.w3.org/2000/svg">
<path fill-rule="evenodd" clip-rule="evenodd" d="M23.5 20.25C22.6716 20.25 22 20.9216 22 21.75L22 35.25C22 36.0784 22.6716 36.75 23.5 36.75H29.5C30.3284 36.75 31 36.0784 31 35.25V31.5C31 31.0858 31.3358 30.75 31.75 30.75C32.1642 30.75 32.5 31.0858 32.5 31.5V35.25C32.5 36.9069 31.1569 38.25 29.5 38.25H23.5C21.8431 38.25 20.5 36.9069 20.5 35.25L20.5 21.75C20.5 20.0931 21.8431 18.75 23.5 18.75L29.5 18.75C31.1569 18.75 32.5 20.0931 32.5 21.75V25.5C32.5 25.9142 32.1642 26.25 31.75 26.25C31.3358 26.25 31 25.9142 31 25.5V21.75C31 20.9216 30.3284 20.25 29.5 20.25L23.5 20.25ZM34.2197 24.9697C34.5126 24.6768 34.9874 24.6768 35.2803 24.9697L38.2803 27.9697C38.5732 28.2626 38.5732 28.7374 38.2803 29.0303L35.2803 32.0303C34.9874 32.3232 34.5126 32.3232 34.2197 32.0303C33.9268 31.7374 33.9268 31.2626 34.2197 30.9697L35.9393 29.25L25 29.25C24.5858 29.25 24.25 28.9142 24.25 28.5C24.25 28.0858 24.5858 27.75 25 27.75L35.9393 27.75L34.2197 26.0303C33.9268 25.7374 33.9268 25.2626 34.2197 24.9697Z" fill="#005183"/>
</svg>
