<svg width="163" height="164" viewBox="0 0 163 164" fill="none" xmlns="http://www.w3.org/2000/svg">
<path fill-rule="evenodd" clip-rule="evenodd" d="M0.25 82C0.25 37.1269 36.6269 0.75 81.5 0.75C126.373 0.75 162.75 37.1269 162.75 82C162.75 126.873 126.373 163.25 81.5 163.25C36.6269 163.25 0.25 126.873 0.25 82ZM111.586 66.8827C113.592 64.0739 112.942 60.1705 110.133 58.1642C107.324 56.1579 103.42 56.8084 101.414 59.6173L74.4525 97.3636L60.9194 83.8306C58.4786 81.3898 54.5214 81.3898 52.0806 83.8306C49.6398 86.2714 49.6398 90.2286 52.0806 92.6694L70.8306 111.419C72.1297 112.719 73.9346 113.38 75.7655 113.229C77.5964 113.077 79.268 112.128 80.3358 110.633L111.586 66.8827Z" fill="#008243"/>
</svg>
