<svg width="24" height="24" viewBox="0 0 24 24" fill="none" xmlns="http://www.w3.org/2000/svg">
<path d="M19.5404 18.6947C20.0402 18.3741 20.6836 18.4316 21.6521 17.8965C22.2691 17.5559 21.9175 17.3459 21.7185 17.2464C18.2115 15.5503 17.6521 12.9278 17.6277 12.731C17.5968 12.4944 17.5636 12.3087 17.8223 12.0699C18.0722 11.8377 19.1844 11.15 19.4918 10.9355C20.0004 10.5795 20.2259 10.2235 20.0601 9.7857C19.9451 9.48498 19.662 9.36999 19.3635 9.36999C19.2707 9.36999 19.1756 9.38105 19.0849 9.40095C18.5255 9.52257 17.9815 9.80339 17.6675 9.87857C17.6255 9.88963 17.5857 9.89405 17.5525 9.89405C17.3867 9.89405 17.3248 9.81887 17.3381 9.61765C17.3779 9.00514 17.4619 7.81108 17.3646 6.69442C17.2319 5.15762 16.7366 4.39696 16.1484 3.72475C15.8654 3.40191 14.5453 2 12.0024 2C9.46612 2 8.13939 3.40191 7.85635 3.72475C7.26817 4.39917 6.77286 5.15983 6.64018 6.69442C6.54289 7.81108 6.63134 9.00514 6.66672 9.61765C6.67777 9.81003 6.62028 9.89405 6.45223 9.89405C6.41906 9.89405 6.38147 9.88963 6.33725 9.87857C6.02325 9.80339 5.47929 9.52257 4.91985 9.40095C4.82919 9.38105 4.73411 9.36999 4.64124 9.36999C4.34273 9.36999 4.05969 9.48277 3.94471 9.7857C3.77886 10.2235 4.0022 10.5795 4.51299 10.9355C4.82035 11.15 5.93259 11.8377 6.18246 12.0699C6.44117 12.3109 6.408 12.4967 6.37705 12.731C6.35051 12.9278 5.79328 15.5503 2.28629 17.2464C2.08065 17.3459 1.73128 17.5559 2.34821 17.8965C3.31672 18.4294 3.96018 18.3719 4.45992 18.6947C4.88447 18.9689 4.63461 19.5593 4.94197 19.7716C5.32008 20.0347 6.44338 19.7539 7.89173 20.2315C9.10348 20.6317 9.84424 21.7617 12.0002 21.7617C14.1517 21.7617 14.9146 20.6273 16.1086 20.2315C17.557 19.7539 18.6781 20.0347 19.0584 19.7716C19.3657 19.5593 19.1159 18.9689 19.5404 18.6947Z" stroke="#005183" stroke-linejoin="round"/>
</svg>
