<svg width="18" height="14" viewBox="0 0 18 14" fill="none" xmlns="http://www.w3.org/2000/svg">
<path d="M17.0284 0.359521C16.3493 0.680355 15.1934 1.28202 14.6126 1.39702C14.5901 1.40285 14.5718 1.41035 14.5501 1.41619C13.8726 0.747854 12.9443 0.333688 11.9168 0.333688C9.84594 0.333688 8.16677 2.01285 8.16677 4.08369C8.16677 4.19285 8.15761 4.39369 8.16677 4.50035C5.48511 4.50035 3.52677 3.10119 2.06094 1.30285C1.86511 1.06119 1.65677 1.18702 1.61344 1.35869C1.51594 1.74702 1.48261 2.39619 1.48261 2.85952C1.48261 4.02702 2.39511 5.17369 3.81594 5.88452C3.55427 5.95202 3.26594 6.00035 2.96594 6.00035C2.61261 6.00035 2.20594 5.90785 1.85011 5.72119C1.71844 5.65202 1.43427 5.67119 1.51844 6.00785C1.85594 7.35702 3.39594 8.30452 4.77177 8.58035C4.45927 8.76452 3.79261 8.72702 3.48594 8.72702C3.37261 8.72702 2.97844 8.70035 2.72344 8.66869C2.49094 8.64035 2.13344 8.70035 2.43261 9.15369C3.07511 10.1262 4.52844 10.737 5.77927 10.7604C4.62761 11.6637 2.74427 11.9937 0.940108 11.9937C0.575108 11.9854 0.593441 12.4012 0.887608 12.5554C2.21844 13.2537 4.39844 13.667 5.95594 13.667C12.1476 13.667 15.6668 8.94785 15.6668 4.49952C15.6668 4.42785 15.6651 4.27785 15.6626 4.12702C15.6626 4.11202 15.6668 4.09785 15.6668 4.08285C15.6668 4.06035 15.6601 4.03869 15.6601 4.01619C15.6576 3.90285 15.6551 3.79702 15.6526 3.74202C16.1434 3.38785 16.8951 2.77285 17.2751 2.30202C17.4043 2.14202 17.3001 1.94785 17.1243 2.00869C16.6718 2.16619 15.8893 2.47119 15.3993 2.52952C16.3801 1.88035 16.8651 1.31535 17.2818 0.687855C17.4243 0.473688 17.2459 0.256188 17.0284 0.359521Z" fill="#F7FBFE"/>
</svg>
