<svg width="14" height="14" viewBox="0 0 14 14" fill="none" xmlns="http://www.w3.org/2000/svg">
<path d="M0.333008 4.2219H3.11079V13.6663H0.333008V4.2219ZM1.71356 3.11079H1.69801C0.869119 3.11079 0.333008 2.49301 0.333008 1.72134C0.333008 0.933008 0.885786 0.333008 1.72967 0.333008C2.57467 0.333008 3.09523 0.933008 3.11079 1.72134C3.11079 2.49245 2.57467 3.11079 1.71356 3.11079ZM13.6663 13.6663H10.8886V8.61134C10.8886 7.39023 10.208 6.5569 9.11523 6.5569C8.28134 6.5569 7.83023 7.11912 7.61134 7.66245C7.53134 7.8569 7.55523 8.39467 7.55523 8.66634V13.6663H4.77745V4.2219H7.55523V5.67523C7.95579 5.05523 8.58301 4.2219 10.1875 4.2219C12.1752 4.2219 13.6658 5.4719 13.6658 8.26301L13.6663 13.6663Z" fill="#005183"/>
</svg>
