<svg width="36" height="36" viewBox="0 0 36 36" fill="none" xmlns="http://www.w3.org/2000/svg">
<path d="M19.6328 12.6953V12.4062H23.3828V12.6953H22.9844C22.5677 12.6953 22.2474 12.8698 22.0234 13.2188C21.9141 13.3802 21.8594 13.7552 21.8594 14.3438V18.6406C21.8594 19.7031 21.7526 20.5286 21.5391 21.1172C21.3307 21.7005 20.9167 22.2031 20.2969 22.625C19.6823 23.0417 18.8438 23.25 17.7812 23.25C16.625 23.25 15.7474 23.0495 15.1484 22.6484C14.5495 22.2474 14.125 21.7083 13.875 21.0312C13.7083 20.5677 13.625 19.6979 13.625 18.4219V14.2812C13.625 13.6302 13.5339 13.2031 13.3516 13C13.1745 12.7969 12.8854 12.6953 12.4844 12.6953H12.0859V12.4062H16.6641V12.6953H16.2578C15.8203 12.6953 15.5078 12.8333 15.3203 13.1094C15.1901 13.2969 15.125 13.6875 15.125 14.2812V18.8984C15.125 19.3099 15.1615 19.7812 15.2344 20.3125C15.3125 20.8438 15.4505 21.2578 15.6484 21.5547C15.8464 21.8516 16.1302 22.0964 16.5 22.2891C16.875 22.4818 17.3333 22.5781 17.875 22.5781C18.5677 22.5781 19.1875 22.4271 19.7344 22.125C20.2812 21.8229 20.6536 21.4375 20.8516 20.9688C21.0547 20.4948 21.1562 19.6953 21.1562 18.5703V14.2812C21.1562 13.6198 21.0833 13.2057 20.9375 13.0391C20.7344 12.8099 20.4323 12.6953 20.0312 12.6953H19.6328Z" fill="#757575"/>
<rect x="12" y="25" width="11" height="1" fill="#757575"/>
</svg>
