<svg width="58" height="58" viewBox="0 0 58 58" fill="none" xmlns="http://www.w3.org/2000/svg">
<path fill-rule="evenodd" clip-rule="evenodd" d="M0.199219 29.0002C0.199219 13.0944 13.0934 0.200195 28.9992 0.200195C44.905 0.200195 57.7992 13.0944 57.7992 29.0002C57.7992 44.906 44.905 57.8002 28.9992 57.8002C13.0934 57.8002 0.199219 44.906 0.199219 29.0002ZM23.2054 18.5304C24.0723 18.0571 25.1285 18.0949 25.9593 18.629L38.5593 26.729C39.3321 27.2258 39.7992 28.0815 39.7992 29.0002C39.7992 29.9189 39.3321 30.7746 38.5593 31.2714L25.9593 39.3714C25.1285 39.9055 24.0723 39.9433 23.2054 39.47C22.3385 38.9967 21.7992 38.0879 21.7992 37.1002V20.9002C21.7992 19.9125 22.3385 19.0037 23.2054 18.5304Z" fill="#F7FBFE"/>
</svg>
