<svg width="158" height="24" viewBox="0 0 158 24" fill="none" xmlns="http://www.w3.org/2000/svg">
<path d="M0.49 11.932H6.482V12.996H0.49V11.932ZM2.968 9.468H4.018V15.46H2.968V9.468ZM8.58266 15.152C8.88132 15.348 9.22199 15.502 9.60466 15.614C9.98732 15.7167 10.3653 15.768 10.7387 15.768C11.3733 15.768 11.8913 15.614 12.2927 15.306C12.7033 14.998 13.002 14.5687 13.1887 14.018C13.3847 13.458 13.4733 12.814 13.4547 12.086C13.1933 12.562 12.8387 12.9213 12.3907 13.164C11.9427 13.4067 11.4107 13.528 10.7947 13.528C10.1507 13.528 9.59066 13.402 9.11466 13.15C8.64799 12.8887 8.28866 12.5247 8.03666 12.058C7.78466 11.5913 7.65866 11.0407 7.65866 10.406C7.65866 9.734 7.79866 9.15533 8.07866 8.67C8.36799 8.17533 8.76932 7.79733 9.28266 7.536C9.79599 7.26533 10.398 7.13 11.0887 7.13C11.91 7.13 12.6147 7.32133 13.2027 7.704C13.8 8.07733 14.2573 8.61867 14.5747 9.328C14.9013 10.0373 15.0647 10.8913 15.0647 11.89C15.0647 12.9353 14.892 13.8453 14.5467 14.62C14.2013 15.3947 13.7113 15.9967 13.0767 16.426C12.4513 16.8553 11.7093 17.07 10.8507 17.07C10.3653 17.07 9.85666 17.0047 9.32466 16.874C8.80199 16.734 8.33999 16.552 7.93866 16.328L8.58266 15.152ZM11.1727 8.474C10.7807 8.474 10.4353 8.55333 10.1367 8.712C9.84732 8.86133 9.61866 9.08067 9.45066 9.37C9.28266 9.65933 9.19866 10.0093 9.19866 10.42C9.19866 10.9893 9.36666 11.4467 9.70266 11.792C10.048 12.128 10.5147 12.296 11.1027 12.296C11.5507 12.296 11.9287 12.2073 12.2367 12.03C12.554 11.8433 12.792 11.6053 12.9507 11.316C13.1187 11.0173 13.198 10.6953 13.1887 10.35C13.1887 10.1353 13.1513 9.916 13.0767 9.692C13.002 9.468 12.8807 9.26733 12.7127 9.09C12.554 8.90333 12.344 8.754 12.0827 8.642C11.8307 8.53 11.5273 8.474 11.1727 8.474ZM23.0984 9.048C22.7997 8.852 22.4544 8.70267 22.0624 8.6C21.6797 8.488 21.3017 8.432 20.9284 8.432C20.2937 8.432 19.771 8.586 19.3604 8.894C18.9497 9.202 18.6464 9.63133 18.4504 10.182C18.2637 10.7327 18.1797 11.3767 18.1984 12.114C18.4597 11.638 18.8144 11.2787 19.2624 11.036C19.7197 10.7933 20.2564 10.672 20.8724 10.672C21.5257 10.672 22.0857 10.8027 22.5524 11.064C23.0284 11.316 23.3924 11.6753 23.6444 12.142C23.9057 12.6087 24.0364 13.1593 24.0364 13.794C24.0364 14.466 23.8917 15.0493 23.6024 15.544C23.3224 16.0293 22.921 16.4073 22.3984 16.678C21.885 16.9393 21.2784 17.07 20.5784 17.07C19.757 17.07 19.0477 16.8833 18.4504 16.51C17.853 16.1273 17.391 15.5813 17.0644 14.872C16.747 14.1627 16.5884 13.3087 16.5884 12.31C16.5884 11.2647 16.761 10.3547 17.1064 9.58C17.4517 8.80533 17.9417 8.20333 18.5764 7.774C19.211 7.34467 19.9577 7.13 20.8164 7.13C21.3017 7.13 21.8104 7.2 22.3424 7.34C22.8744 7.47067 23.341 7.648 23.7424 7.872L23.0984 9.048ZM20.5644 11.904C20.1257 11.904 19.7477 11.9973 19.4304 12.184C19.113 12.3613 18.8704 12.5993 18.7024 12.898C18.5437 13.1873 18.4644 13.5047 18.4644 13.85C18.4644 14.0647 18.5017 14.284 18.5764 14.508C18.651 14.732 18.7724 14.9373 18.9404 15.124C19.1084 15.3013 19.3184 15.446 19.5704 15.558C19.8317 15.67 20.1397 15.726 20.4944 15.726C20.8957 15.726 21.2457 15.6513 21.5444 15.502C21.843 15.3433 22.0764 15.1193 22.2444 14.83C22.4124 14.5313 22.4964 14.1813 22.4964 13.78C22.4964 13.2013 22.3237 12.744 21.9784 12.408C21.633 12.072 21.1617 11.904 20.5644 11.904ZM31.9714 9.048C31.6727 8.852 31.3274 8.70267 30.9354 8.6C30.5527 8.488 30.1747 8.432 29.8014 8.432C29.1667 8.432 28.6441 8.586 28.2334 8.894C27.8227 9.202 27.5194 9.63133 27.3234 10.182C27.1367 10.7327 27.0527 11.3767 27.0714 12.114C27.3327 11.638 27.6874 11.2787 28.1354 11.036C28.5927 10.7933 29.1294 10.672 29.7454 10.672C30.3987 10.672 30.9587 10.8027 31.4254 11.064C31.9014 11.316 32.2654 11.6753 32.5174 12.142C32.7787 12.6087 32.9094 13.1593 32.9094 13.794C32.9094 14.466 32.7647 15.0493 32.4754 15.544C32.1954 16.0293 31.7941 16.4073 31.2714 16.678C30.7581 16.9393 30.1514 17.07 29.4514 17.07C28.6301 17.07 27.9207 16.8833 27.3234 16.51C26.7261 16.1273 26.2641 15.5813 25.9374 14.872C25.6201 14.1627 25.4614 13.3087 25.4614 12.31C25.4614 11.2647 25.6341 10.3547 25.9794 9.58C26.3247 8.80533 26.8147 8.20333 27.4494 7.774C28.0841 7.34467 28.8307 7.13 29.6894 7.13C30.1747 7.13 30.6834 7.2 31.2154 7.34C31.7474 7.47067 32.2141 7.648 32.6154 7.872L31.9714 9.048ZM29.4374 11.904C28.9987 11.904 28.6207 11.9973 28.3034 12.184C27.9861 12.3613 27.7434 12.5993 27.5754 12.898C27.4167 13.1873 27.3374 13.5047 27.3374 13.85C27.3374 14.0647 27.3747 14.284 27.4494 14.508C27.5241 14.732 27.6454 14.9373 27.8134 15.124C27.9814 15.3013 28.1914 15.446 28.4434 15.558C28.7047 15.67 29.0127 15.726 29.3674 15.726C29.7687 15.726 30.1187 15.6513 30.4174 15.502C30.7161 15.3433 30.9494 15.1193 31.1174 14.83C31.2854 14.5313 31.3694 14.1813 31.3694 13.78C31.3694 13.2013 31.1967 12.744 30.8514 12.408C30.5061 12.072 30.0347 11.904 29.4374 11.904ZM34.4185 12.212H37.8625V13.276H34.4185V12.212ZM41.6868 11.54L41.3228 10.826C41.4348 10.8167 41.5981 10.812 41.8128 10.812C42.0368 10.8027 42.2701 10.798 42.5128 10.798C42.7554 10.798 42.9608 10.798 43.1288 10.798C43.8754 10.798 44.5194 10.9287 45.0608 11.19C45.6114 11.4513 46.0361 11.806 46.3348 12.254C46.6334 12.702 46.7828 13.2107 46.7828 13.78C46.7828 14.4427 46.6241 15.0213 46.3068 15.516C45.9988 16.0107 45.5601 16.3933 44.9908 16.664C44.4308 16.9347 43.7681 17.07 43.0028 17.07C42.4054 17.07 41.7754 16.9673 41.1128 16.762C40.4594 16.5567 39.8808 16.286 39.3768 15.95L40.0488 14.69C40.4594 15.0073 40.9074 15.2547 41.3928 15.432C41.8781 15.6093 42.3634 15.698 42.8488 15.698C43.5114 15.698 44.0388 15.5347 44.4308 15.208C44.8228 14.8813 45.0188 14.4427 45.0188 13.892C45.0188 13.3693 44.8274 12.9587 44.4448 12.66C44.0714 12.352 43.4974 12.198 42.7228 12.198C42.6108 12.198 42.4474 12.2027 42.2328 12.212C42.0181 12.212 41.7801 12.2213 41.5188 12.24C41.2668 12.2493 41.0194 12.2633 40.7767 12.282C40.5341 12.3007 40.3241 12.3193 40.1468 12.338V7.2H46.3628V8.6H40.9448L41.6868 7.872V11.54ZM50.341 11.54L49.977 10.826C50.089 10.8167 50.2524 10.812 50.467 10.812C50.691 10.8027 50.9244 10.798 51.167 10.798C51.4097 10.798 51.615 10.798 51.783 10.798C52.5297 10.798 53.1737 10.9287 53.715 11.19C54.2657 11.4513 54.6904 11.806 54.989 12.254C55.2877 12.702 55.437 13.2107 55.437 13.78C55.437 14.4427 55.2784 15.0213 54.961 15.516C54.653 16.0107 54.2144 16.3933 53.645 16.664C53.085 16.9347 52.4224 17.07 51.657 17.07C51.0597 17.07 50.4297 16.9673 49.767 16.762C49.1137 16.5567 48.535 16.286 48.031 15.95L48.703 14.69C49.1137 15.0073 49.5617 15.2547 50.047 15.432C50.5324 15.6093 51.0177 15.698 51.503 15.698C52.1657 15.698 52.693 15.5347 53.085 15.208C53.477 14.8813 53.673 14.4427 53.673 13.892C53.673 13.3693 53.4817 12.9587 53.099 12.66C52.7257 12.352 52.1517 12.198 51.377 12.198C51.265 12.198 51.1017 12.2027 50.887 12.212C50.6724 12.212 50.4344 12.2213 50.173 12.24C49.921 12.2493 49.6737 12.2633 49.431 12.282C49.1884 12.3007 48.9784 12.3193 48.801 12.338V7.2H55.017V8.6H49.599L50.341 7.872V11.54ZM60.9973 7.13C62.332 7.13 63.3587 7.55933 64.0773 8.418C64.796 9.27667 65.1553 10.504 65.1553 12.1C65.1553 13.696 64.796 14.9233 64.0773 15.782C63.3587 16.6407 62.332 17.07 60.9973 17.07C59.6533 17.07 58.622 16.6407 57.9033 15.782C57.1847 14.9233 56.8253 13.696 56.8253 12.1C56.8253 10.504 57.1847 9.27667 57.9033 8.418C58.622 7.55933 59.6533 7.13 60.9973 7.13ZM60.9973 8.362C60.176 8.362 59.5553 8.67 59.1353 9.286C58.7247 9.89267 58.5193 10.8307 58.5193 12.1C58.5193 13.36 58.7247 14.298 59.1353 14.914C59.5553 15.53 60.176 15.838 60.9973 15.838C61.8187 15.838 62.4347 15.53 62.8453 14.914C63.256 14.298 63.4613 13.36 63.4613 12.1C63.4613 10.8307 63.256 9.89267 62.8453 9.286C62.4347 8.67 61.8187 8.362 60.9973 8.362ZM66.0098 7.2H69.7758V17H68.1238V7.872L68.8518 8.6H66.0098V7.2ZM78.4558 9.048C78.1571 8.852 77.8118 8.70267 77.4198 8.6C77.0371 8.488 76.6591 8.432 76.2858 8.432C75.6511 8.432 75.1284 8.586 74.7178 8.894C74.3071 9.202 74.0038 9.63133 73.8078 10.182C73.6211 10.7327 73.5371 11.3767 73.5558 12.114C73.8171 11.638 74.1718 11.2787 74.6198 11.036C75.0771 10.7933 75.6138 10.672 76.2298 10.672C76.8831 10.672 77.4431 10.8027 77.9098 11.064C78.3858 11.316 78.7498 11.6753 79.0018 12.142C79.2631 12.6087 79.3938 13.1593 79.3938 13.794C79.3938 14.466 79.2491 15.0493 78.9598 15.544C78.6798 16.0293 78.2784 16.4073 77.7558 16.678C77.2424 16.9393 76.6358 17.07 75.9358 17.07C75.1144 17.07 74.4051 16.8833 73.8078 16.51C73.2104 16.1273 72.7484 15.5813 72.4218 14.872C72.1044 14.1627 71.9458 13.3087 71.9458 12.31C71.9458 11.2647 72.1184 10.3547 72.4638 9.58C72.8091 8.80533 73.2991 8.20333 73.9338 7.774C74.5684 7.34467 75.3151 7.13 76.1738 7.13C76.6591 7.13 77.1678 7.2 77.6998 7.34C78.2318 7.47067 78.6984 7.648 79.0998 7.872L78.4558 9.048ZM75.9218 11.904C75.4831 11.904 75.1051 11.9973 74.7878 12.184C74.4704 12.3613 74.2278 12.5993 74.0598 12.898C73.9011 13.1873 73.8218 13.5047 73.8218 13.85C73.8218 14.0647 73.8591 14.284 73.9338 14.508C74.0084 14.732 74.1298 14.9373 74.2978 15.124C74.4658 15.3013 74.6758 15.446 74.9278 15.558C75.1891 15.67 75.4971 15.726 75.8518 15.726C76.2531 15.726 76.6031 15.6513 76.9018 15.502C77.2004 15.3433 77.4338 15.1193 77.6018 14.83C77.7698 14.5313 77.8538 14.1813 77.8538 13.78C77.8538 13.2013 77.6811 12.744 77.3358 12.408C76.9904 12.072 76.5191 11.904 75.9218 11.904ZM87.3288 9.048C87.0302 8.852 86.6848 8.70267 86.2928 8.6C85.9102 8.488 85.5322 8.432 85.1588 8.432C84.5242 8.432 84.0015 8.586 83.5908 8.894C83.1802 9.202 82.8768 9.63133 82.6808 10.182C82.4942 10.7327 82.4102 11.3767 82.4288 12.114C82.6902 11.638 83.0448 11.2787 83.4928 11.036C83.9502 10.7933 84.4868 10.672 85.1028 10.672C85.7562 10.672 86.3162 10.8027 86.7828 11.064C87.2588 11.316 87.6228 11.6753 87.8748 12.142C88.1362 12.6087 88.2668 13.1593 88.2668 13.794C88.2668 14.466 88.1222 15.0493 87.8328 15.544C87.5528 16.0293 87.1515 16.4073 86.6288 16.678C86.1155 16.9393 85.5088 17.07 84.8088 17.07C83.9875 17.07 83.2782 16.8833 82.6808 16.51C82.0835 16.1273 81.6215 15.5813 81.2948 14.872C80.9775 14.1627 80.8188 13.3087 80.8188 12.31C80.8188 11.2647 80.9915 10.3547 81.3368 9.58C81.6822 8.80533 82.1722 8.20333 82.8068 7.774C83.4415 7.34467 84.1882 7.13 85.0468 7.13C85.5322 7.13 86.0408 7.2 86.5728 7.34C87.1048 7.47067 87.5715 7.648 87.9728 7.872L87.3288 9.048ZM84.7948 11.904C84.3562 11.904 83.9782 11.9973 83.6608 12.184C83.3435 12.3613 83.1008 12.5993 82.9328 12.898C82.7742 13.1873 82.6948 13.5047 82.6948 13.85C82.6948 14.0647 82.7322 14.284 82.8068 14.508C82.8815 14.732 83.0028 14.9373 83.1708 15.124C83.3388 15.3013 83.5488 15.446 83.8008 15.558C84.0622 15.67 84.3702 15.726 84.7248 15.726C85.1262 15.726 85.4762 15.6513 85.7748 15.502C86.0735 15.3433 86.3068 15.1193 86.4748 14.83C86.6428 14.5313 86.7268 14.1813 86.7268 13.78C86.7268 13.2013 86.5542 12.744 86.2088 12.408C85.8635 12.072 85.3922 11.904 84.7948 11.904ZM89.0759 14.564V13.388L92.4079 7.2H94.0039L90.5039 13.766L90.1259 13.164H96.8459V14.564H89.0759ZM93.8499 10.784H95.3899V17H93.8499V10.784ZM102.245 7.13C103.58 7.13 104.607 7.55933 105.325 8.418C106.044 9.27667 106.403 10.504 106.403 12.1C106.403 13.696 106.044 14.9233 105.325 15.782C104.607 16.6407 103.58 17.07 102.245 17.07C100.901 17.07 99.8701 16.6407 99.1514 15.782C98.4327 14.9233 98.0734 13.696 98.0734 12.1C98.0734 10.504 98.4327 9.27667 99.1514 8.418C99.8701 7.55933 100.901 7.13 102.245 7.13ZM102.245 8.362C101.424 8.362 100.803 8.67 100.383 9.286C99.9727 9.89267 99.7674 10.8307 99.7674 12.1C99.7674 13.36 99.9727 14.298 100.383 14.914C100.803 15.53 101.424 15.838 102.245 15.838C103.067 15.838 103.683 15.53 104.093 14.914C104.504 14.298 104.709 13.36 104.709 12.1C104.709 10.8307 104.504 9.89267 104.093 9.286C103.683 8.67 103.067 8.362 102.245 8.362ZM112.144 7.13C113.478 7.13 114.505 7.55933 115.224 8.418C115.942 9.27667 116.302 10.504 116.302 12.1C116.302 13.696 115.942 14.9233 115.224 15.782C114.505 16.6407 113.478 17.07 112.144 17.07C110.8 17.07 109.768 16.6407 109.05 15.782C108.331 14.9233 107.972 13.696 107.972 12.1C107.972 10.504 108.331 9.27667 109.05 8.418C109.768 7.55933 110.8 7.13 112.144 7.13ZM112.144 8.362C111.322 8.362 110.702 8.67 110.282 9.286C109.871 9.89267 109.666 10.8307 109.666 12.1C109.666 13.36 109.871 14.298 110.282 14.914C110.702 15.53 111.322 15.838 112.144 15.838C112.965 15.838 113.581 15.53 113.992 14.914C114.402 14.298 114.608 13.36 114.608 12.1C114.608 10.8307 114.402 9.89267 113.992 9.286C113.581 8.67 112.965 8.362 112.144 8.362Z" fill="white"/>
<path fill-rule="evenodd" clip-rule="evenodd" d="M143.52 7.76662C143.339 7.35303 143.137 7.34298 142.966 7.34298C142.815 7.33294 142.653 7.33294 142.482 7.33294C142.321 7.33294 142.048 7.3932 141.817 7.64549C141.585 7.89719 140.95 8.49217 140.95 9.71167C140.95 10.9318 141.837 12.1111 141.958 12.2724C142.079 12.4337 143.671 15.0139 146.192 16.0124C148.288 16.839 148.712 16.6777 149.166 16.6269C149.619 16.5767 150.627 16.0325 150.839 15.4476C151.04 14.8733 151.04 14.3693 150.98 14.2682C150.92 14.1678 150.748 14.1069 150.506 13.9758C150.254 13.8552 149.045 13.2502 148.813 13.1693C148.581 13.0889 148.419 13.0487 148.258 13.2904C148.097 13.5427 147.623 14.0969 147.472 14.2582C147.331 14.4195 147.18 14.4396 146.938 14.3185C146.686 14.1979 145.89 13.9356 144.942 13.0889C144.206 12.4331 143.712 11.6171 143.56 11.3755C143.42 11.1232 143.54 10.992 143.671 10.8709C143.783 10.7604 143.924 10.579 144.045 10.4378C144.165 10.296 144.206 10.1855 144.297 10.0242C144.377 9.86292 144.337 9.71167 144.277 9.59114C144.216 9.48006 143.742 8.26056 143.52 7.76662Z" stroke="white" stroke-linejoin="round"/>
</svg>
